# Blender 5.0.1
# www.blender.org
o Gear_Half
v -0.079599 -0.381590 0.080000
v -0.090884 -0.387659 0.070000
v -0.071682 -0.391664 0.070000
v -0.079599 -0.381590 -0.080000
v -0.071682 -0.391664 -0.070000
v -0.090884 -0.387659 -0.070000
v 0.072488 -0.383005 0.080000
v 0.064385 -0.392930 0.070000
v 0.083658 -0.389282 0.070000
v 0.072488 -0.383005 -0.080000
v 0.083658 -0.389282 -0.070000
v 0.064385 -0.392930 -0.070000
v 0.213540 -0.326110 0.080000
v 0.209852 -0.338381 0.070000
v 0.226262 -0.327635 0.070000
v 0.213540 -0.326110 -0.080000
v 0.226262 -0.327635 -0.070000
v 0.209852 -0.338381 -0.070000
v 0.322082 -0.219568 0.080000
v 0.323370 -0.232316 0.070000
v 0.334419 -0.216109 0.070000
v 0.322082 -0.219568 -0.080000
v 0.334419 -0.216109 -0.070000
v 0.323370 -0.232316 -0.070000
v 0.381590 -0.079599 0.080000
v 0.387659 -0.090884 0.070000
v 0.391664 -0.071682 0.070000
v 0.381590 -0.079599 -0.080000
v 0.391664 -0.071682 -0.070000
v 0.387659 -0.090884 -0.070000
v 0.383005 0.072488 0.080000
v 0.392930 0.064385 0.070000
v 0.402297 0.078125 0.070000
v 0.398556 0.087399 0.080000
v 0.383005 0.072488 -0.080000
v 0.398556 0.087399 -0.080000
v 0.402297 0.078125 -0.070000
v 0.392930 0.064385 -0.070000
v 0.347655 0.213592 0.080000
v 0.343914 0.222866 0.070000
v 0.327635 0.226262 0.070000
v 0.326110 0.213540 0.080000
v 0.347655 0.213592 -0.080000
v 0.326110 0.213540 -0.080000
v 0.327635 0.226262 -0.070000
v 0.343914 0.222866 -0.070000
v 0.219568 0.322082 0.080000
v 0.232316 0.323370 0.070000
v 0.229224 0.339710 0.070000
v 0.220021 0.343622 0.080000
v 0.219568 0.322082 -0.080000
v 0.220021 0.343622 -0.080000
v 0.229224 0.339710 -0.070000
v 0.232316 0.323370 -0.070000
v 0.094797 0.396862 0.080000
v 0.085594 0.400774 0.070000
v 0.071682 0.391664 0.070000
v 0.079599 0.381590 0.080000
v 0.094797 0.396862 -0.080000
v 0.079599 0.381590 -0.080000
v 0.071682 0.391664 -0.070000
v 0.085594 0.400774 -0.070000
v -0.072488 0.383005 0.080000
v -0.064385 0.392930 0.070000
v -0.078125 0.402297 0.070000
v -0.087399 0.398556 0.080000
v -0.072488 0.383005 -0.080000
v -0.087399 0.398556 -0.080000
v -0.078125 0.402297 -0.070000
v -0.064385 0.392930 -0.070000
v -0.213592 0.347655 0.080000
v -0.222866 0.343914 0.070000
v -0.226262 0.327635 0.070000
v -0.213540 0.326110 0.080000
v -0.213592 0.347655 -0.080000
v -0.213540 0.326110 -0.080000
v -0.226262 0.327635 -0.070000
v -0.222866 0.343914 -0.070000
v -0.322082 0.219568 0.080000
v -0.323370 0.232316 0.070000
v -0.339710 0.229224 0.070000
v -0.343622 0.220021 0.080000
v -0.322082 0.219568 -0.080000
v -0.343622 0.220021 -0.080000
v -0.339710 0.229224 -0.070000
v -0.323370 0.232316 -0.070000
v -0.396862 0.094797 0.080000
v -0.400774 0.085594 0.070000
v -0.391664 0.071682 0.070000
v -0.381590 0.079599 0.080000
v -0.396862 0.094797 -0.080000
v -0.381590 0.079599 -0.080000
v -0.391664 0.071682 -0.070000
v -0.400774 0.085594 -0.070000
v -0.383005 -0.072488 0.080000
v -0.392930 -0.064385 0.070000
v -0.389282 -0.083658 0.070000
v -0.383005 -0.072488 -0.080000
v -0.389282 -0.083658 -0.070000
v -0.392930 -0.064385 -0.070000
v -0.326110 -0.213540 0.080000
v -0.338381 -0.209851 0.070000
v -0.327635 -0.226262 0.070000
v -0.326110 -0.213540 -0.080000
v -0.327635 -0.226262 -0.070000
v -0.338381 -0.209852 -0.070000
v -0.219568 -0.322082 0.080000
v -0.232316 -0.323370 0.070000
v -0.216109 -0.334419 0.070000
v -0.219568 -0.322082 -0.080000
v -0.216109 -0.334419 -0.070000
v -0.232316 -0.323370 -0.070000
v 0.495037 0.115533 -0.070000
v 0.476489 0.108051 -0.070000
v 0.472748 0.117325 -0.080000
v 0.491296 0.124807 -0.080000
v 0.495037 0.115533 0.070000
v 0.491296 0.124807 0.080000
v 0.472748 0.117325 0.080000
v 0.476489 0.108051 0.070000
v 0.440395 0.251000 0.080000
v 0.436654 0.260274 0.070000
v 0.418106 0.252792 0.070000
v 0.421847 0.243518 0.080000
v 0.440395 0.251000 -0.080000
v 0.421847 0.243518 -0.080000
v 0.418106 0.252792 -0.070000
v 0.436654 0.260274 -0.070000
v 0.268350 0.431738 -0.070000
v 0.260525 0.413332 -0.070000
v 0.251322 0.417245 -0.080000
v 0.259147 0.435650 -0.080000
v 0.268350 0.431738 0.070000
v 0.259147 0.435650 0.080000
v 0.251322 0.417245 0.080000
v 0.260525 0.413332 0.070000
v 0.133922 0.488890 0.080000
v 0.124720 0.492802 0.070000
v 0.116894 0.474397 0.070000
v 0.126097 0.470484 0.080000
v 0.133922 0.488890 -0.080000
v 0.126097 0.470484 -0.080000
v 0.116894 0.474397 -0.070000
v 0.124720 0.492802 -0.070000
v -0.115533 0.495037 -0.070000
v -0.108051 0.476489 -0.070000
v -0.117325 0.472748 -0.080000
v -0.124807 0.491296 -0.080000
v -0.115533 0.495037 0.070000
v -0.124807 0.491296 0.080000
v -0.117325 0.472748 0.080000
v -0.108051 0.476489 0.070000
v -0.251000 0.440395 0.080000
v -0.260274 0.436654 0.070000
v -0.252792 0.418106 0.070000
v -0.243518 0.421847 0.080000
v -0.251000 0.440395 -0.080000
v -0.243518 0.421847 -0.080000
v -0.252792 0.418106 -0.070000
v -0.260274 0.436654 -0.070000
v -0.431738 0.268350 -0.070000
v -0.413332 0.260525 -0.070000
v -0.417245 0.251322 -0.080000
v -0.435650 0.259147 -0.080000
v -0.431738 0.268350 0.070000
v -0.435650 0.259147 0.080000
v -0.417245 0.251322 0.080000
v -0.413332 0.260525 0.070000
v -0.488890 0.133922 0.080000
v -0.492802 0.124720 0.070000
v -0.474397 0.116894 0.070000
v -0.470484 0.126097 0.080000
v -0.488890 0.133922 -0.080000
v -0.470484 0.126097 -0.080000
v -0.474397 0.116894 -0.070000
v -0.492802 0.124720 -0.070000
v 0.569229 0.145459 -0.070000
v 0.565488 0.154733 -0.080000
v 0.574762 0.158473 -0.070000
v 0.569229 0.145459 0.070000
v 0.574762 0.158473 0.070000
v 0.565488 0.154733 0.080000
v 0.514587 0.280926 0.080000
v 0.523861 0.284667 0.070000
v 0.510846 0.290200 0.070000
v 0.514587 0.280926 -0.080000
v 0.510846 0.290200 -0.070000
v 0.523861 0.284667 -0.070000
v 0.299651 0.505360 -0.070000
v 0.290448 0.509273 -0.080000
v 0.294360 0.518476 -0.070000
v 0.299651 0.505360 0.070000
v 0.294360 0.518476 0.070000
v 0.290448 0.509273 0.080000
v 0.165223 0.562512 0.080000
v 0.169136 0.571715 0.070000
v 0.156020 0.566425 0.070000
v 0.165223 0.562512 -0.080000
v 0.156020 0.566425 -0.070000
v 0.169136 0.571715 -0.070000
v -0.145459 0.569229 -0.070000
v -0.154733 0.565488 -0.080000
v -0.158473 0.574762 -0.070000
v -0.145459 0.569229 0.070000
v -0.158473 0.574762 0.070000
v -0.154733 0.565488 0.080000
v -0.280926 0.514587 0.080000
v -0.284667 0.523861 0.070000
v -0.290200 0.510846 0.070000
v -0.280926 0.514587 -0.080000
v -0.290200 0.510846 -0.070000
v -0.284667 0.523861 -0.070000
v -0.505360 0.299651 -0.070000
v -0.509273 0.290448 -0.080000
v -0.518476 0.294360 -0.070000
v -0.505360 0.299651 0.070000
v -0.518476 0.294360 0.070000
v -0.509273 0.290448 0.080000
v -0.562512 0.165223 0.080000
v -0.571715 0.169136 0.070000
v -0.566425 0.156020 0.070000
v -0.562512 0.165223 -0.080000
v -0.566425 0.156020 -0.070000
v -0.571715 0.169136 -0.070000
vn -0.1576 -0.7553 0.6362
vn -0.1576 -0.7553 -0.6362
vn 0.1435 -0.7581 0.6362
vn 0.1435 -0.7581 -0.6362
vn 0.4227 -0.6455 0.6362
vn 0.4227 -0.6455 -0.6362
vn 0.6375 -0.4346 0.6362
vn 0.6375 -0.4346 -0.6362
vn 0.7553 -0.1576 0.6362
vn 0.7553 -0.1576 -0.6362
vn 0.5112 -0.4446 0.7356
vn 0.5112 -0.4446 -0.7356
vn 0.0597 0.6748 0.7356
vn 0.0597 0.6748 -0.7356
vn 0.6758 0.0471 0.7356
vn 0.6758 0.0471 -0.7356
vn -0.4350 0.5194 0.7356
vn -0.4350 0.5194 -0.7356
vn 0.4446 0.5112 0.7356
vn 0.4446 0.5112 -0.7356
vn -0.6748 0.0597 0.7356
vn -0.6748 0.0597 -0.7356
vn -0.0471 0.6758 0.7356
vn -0.0471 0.6758 -0.7356
vn -0.5194 -0.4350 0.7356
vn -0.5194 -0.4350 -0.7356
vn -0.7581 -0.1435 0.6362
vn -0.7581 -0.1435 -0.6362
vn -0.6455 -0.4227 0.6362
vn -0.6455 -0.4227 -0.6362
vn -0.4346 -0.6375 0.6362
vn -0.4346 -0.6375 -0.6362
vn 0.2645 -0.6558 -0.7071
vn 0.2645 -0.6558 0.7071
vn -0.2645 0.6558 0.7071
vn -0.2645 0.6558 -0.7071
vn 0.6507 -0.2767 -0.7071
vn 0.6507 -0.2767 0.7071
vn -0.6507 0.2767 0.7071
vn -0.6507 0.2767 -0.7071
vn 0.6558 0.2645 -0.7071
vn 0.6558 0.2645 0.7071
vn -0.6558 -0.2645 0.7071
vn -0.6558 -0.2645 -0.7071
vn 0.2767 0.6507 -0.7071
vn 0.2767 0.6507 0.7071
vn -0.2767 -0.6507 0.7071
vn -0.2767 -0.6507 -0.7071
vn 0.7514 -0.3195 -0.5773
vn 0.7514 -0.3195 0.5773
vn 0.3195 0.7514 0.5773
vn 0.3195 0.7514 -0.5773
vn 0.7572 0.3054 -0.5774
vn 0.7572 0.3054 0.5774
vn -0.3054 0.7572 0.5774
vn -0.3054 0.7572 -0.5773
vn 0.3195 0.7514 0.5774
vn -0.7514 0.3195 0.5774
vn -0.7514 0.3195 -0.5773
vn -0.3054 0.7572 -0.5774
vn -0.3054 0.7572 0.5773
vn -0.7572 -0.3054 0.5774
vn -0.7572 -0.3054 -0.5774
vn -0.0066 -0.7071 0.7071
vn -0.0066 -0.7071 -0.7071
vn -0.2042 -0.9789 -0.0000
vn 0.1860 -0.9826 -0.0000
vn 0.5478 -0.8366 -0.0000
vn 0.4953 -0.5046 0.7071
vn 0.4953 -0.5046 -0.7071
vn 0.8263 -0.5633 -0.0000
vn 0.9789 -0.2042 -0.0000
vn 0.7071 -0.0066 0.7071
vn 0.7071 -0.0066 -0.7071
vn -0.0000 -0.0000 1.0000
vn -0.0000 -0.0000 -1.0000
vn 0.2042 0.9789 -0.0000
vn 0.5046 0.4953 0.7071
vn 0.5046 0.4953 -0.7071
vn 0.9826 0.1860 -0.0000
vn -0.5478 0.8366 -0.0000
vn 0.0066 0.7071 0.7071
vn 0.0066 0.7071 -0.7071
vn 0.5633 0.8263 -0.0000
vn -0.9789 0.2042 -0.0000
vn -0.4953 0.5046 0.7071
vn -0.4953 0.5046 -0.7071
vn -0.1860 0.9826 -0.0000
vn -0.8366 -0.5478 -0.0000
vn -0.7071 0.0066 0.7071
vn -0.7071 0.0066 -0.7071
vn -0.9826 -0.1860 -0.0000
vn -0.5046 -0.4953 0.7071
vn -0.5046 -0.4953 -0.7071
vn -0.5633 -0.8263 -0.0000
vn 0.3741 -0.9274 -0.0000
vn -0.3741 0.9274 -0.0000
vn 0.9203 -0.3913 -0.0000
vn -0.9203 0.3913 -0.0000
vn 0.9274 0.3741 -0.0000
vn -0.9274 -0.3741 -0.0000
vn 0.3913 0.9203 -0.0000
vn -0.3913 -0.9203 -0.0000
vn -0.0093 -1.0000 -0.0000
vn 0.7005 -0.7137 -0.0000
vn 1.0000 -0.0093 -0.0000
vn 0.7137 0.7005 -0.0000
vn 0.0093 1.0000 -0.0000
vn -0.7005 0.7137 -0.0000
vn -1.0000 0.0093 -0.0000
vn -0.7137 -0.7005 -0.0000
vt 0.750000 0.483883
vt 0.735967 0.497842
vt 0.755885 0.488829
vt 0.999203 1.000000
vt 0.995995 0.968750
vt 0.977447 0.959475
vt 0.938297 0.500000
vt 0.941505 0.531250
vt 0.926978 0.521035
vt 0.339503 0.466079
vt 0.366698 0.478875
vt 0.335959 0.472902
vt 0.915380 0.415380
vt 0.913561 0.433227
vt 0.923039 0.414717
vt 0.874203 1.000000
vt 0.870995 0.968750
vt 0.866812 0.958300
vt 0.813297 0.500000
vt 0.816505 0.531250
vt 0.809606 0.515937
vt 0.466079 0.339503
vt 0.485139 0.351534
vt 0.468398 0.346833
vt 0.983883 0.250000
vt 0.980014 0.271149
vt 0.988829 0.244115
vt 0.749203 1.000000
vt 0.745995 0.968750
vt 0.749472 0.953223
vt 0.688297 0.500000
vt 0.691505 0.531250
vt 0.687500 0.531250
vt 0.687500 0.500000
vt 0.687898 1.000000
vt 0.687500 1.000000
vt 0.687500 0.968750
vt 0.690503 0.968750
vt 0.625000 0.500000
vt 0.625000 0.531250
vt 0.621997 0.531250
vt 0.624602 0.500000
vt 0.625000 1.000000
vt 0.624602 1.000000
vt 0.621997 0.968750
vt 0.625000 0.968750
vt 0.839503 0.033921
vt 0.846833 0.031602
vt 0.841844 0.028269
vt 0.835959 0.027098
vt 0.562898 1.000000
vt 0.562500 1.000000
vt 0.562500 0.968750
vt 0.565503 0.968750
vt 0.500000 0.500000
vt 0.500000 0.531250
vt 0.496997 0.531250
vt 0.499602 0.500000
vt 0.255885 0.011171
vt 0.250000 0.016118
vt 0.244115 0.011171
vt 0.250000 0.010000
vt 0.437898 0.500000
vt 0.440503 0.531250
vt 0.437500 0.531250
vt 0.437500 0.500000
vt 0.160497 0.033921
vt 0.153167 0.031602
vt 0.158156 0.028269
vt 0.164041 0.027098
vt 0.375000 0.500000
vt 0.375000 0.531250
vt 0.371997 0.531250
vt 0.374602 0.500000
vt 0.085283 0.076961
vt 0.084620 0.084620
vt 0.076961 0.085283
vt 0.080294 0.080294
vt 0.313297 0.500000
vt 0.316505 0.531250
vt 0.312500 0.531250
vt 0.312500 0.500000
vt 0.312898 1.000000
vt 0.312500 1.000000
vt 0.312500 0.968750
vt 0.315503 0.968750
vt 0.250000 0.500000
vt 0.250000 0.531250
vt 0.246997 0.531250
vt 0.249602 0.500000
vt 0.250000 1.000000
vt 0.249602 1.000000
vt 0.246997 0.968750
vt 0.250000 0.968750
vt 0.188297 0.500000
vt 0.191505 0.531250
vt 0.191353 0.518863
vt 0.033921 0.339503
vt 0.037093 0.359482
vt 0.027098 0.335959
vt 0.584620 0.415380
vt 0.561416 0.427144
vt 0.585283 0.423039
vt 0.084620 0.415380
vt 0.085283 0.423039
vt 0.076961 0.414717
vt 0.660497 0.466079
vt 0.653167 0.468398
vt 0.664041 0.472902
vt 0.160497 0.466079
vt 0.177431 0.482167
vt 0.153167 0.468398
vt 0.687500 0.968750
vt 0.687500 0.968750
vt 0.687500 0.531250
vt 0.923039 0.085283
vt 0.919706 0.080294
vt 0.923039 0.085283
vt 0.625000 0.968750
vt 0.562500 0.968750
vt 0.562500 0.531250
vt 0.562500 0.500000
vt 0.562500 0.531250
vt 0.500000 1.000000
vt 0.500000 0.968750
vt 0.153167 0.031602
vt 0.437500 0.531250
vt 0.585283 0.076961
vt 0.580294 0.080294
vt 0.580294 0.080294
vt 0.375000 1.000000
vt 0.375000 0.968750
vt 0.375000 0.968750
vt 0.312500 0.968750
vt 0.312500 0.531250
vt 0.250000 0.968750
vt 0.687500 0.968750
vt 0.686165 1.000000
vt 0.684497 0.968750
vt 0.687500 0.531250
vt 0.684497 0.531250
vt 0.686165 0.500000
vt 0.627670 0.500000
vt 0.629005 0.531250
vt 0.625000 0.531250
vt 0.626335 1.000000
vt 0.625000 0.968750
vt 0.628003 0.968750
vt 0.561165 1.000000
vt 0.559497 0.968750
vt 0.562500 0.531250
vt 0.559497 0.531250
vt 0.561165 0.500000
vt 0.502670 0.500000
vt 0.504005 0.531250
vt 0.501335 1.000000
vt 0.503003 0.968750
vt 0.437500 0.968750
vt 0.436165 1.000000
vt 0.434497 0.968750
vt 0.437500 0.531250
vt 0.434497 0.531250
vt 0.436165 0.500000
vt 0.377670 0.500000
vt 0.379005 0.531250
vt 0.376335 1.000000
vt 0.378003 0.968750
vt 0.312500 0.968750
vt 0.311165 1.000000
vt 0.309497 0.968750
vt 0.308495 0.531250
vt 0.309830 0.500000
vt 0.252670 0.500000
vt 0.254005 0.531250
vt 0.251335 1.000000
vt 0.250000 0.968750
vt 0.253003 0.968750
vt 0.995995 0.531250
vt 0.999203 0.500000
vt 0.941505 0.968750
vt 0.938297 1.000000
vt 1.000000 0.531250
vt 0.937500 0.968750
vt 0.846833 0.468398
vt 0.839503 0.466079
vt 0.414717 0.423039
vt 0.415380 0.415380
vt 0.870995 0.531250
vt 0.875000 0.531250
vt 0.874203 0.500000
vt 0.816505 0.968750
vt 0.813297 1.000000
vt 0.812500 0.968750
vt 0.972902 0.335959
vt 0.966079 0.339503
vt 0.488829 0.255885
vt 0.483882 0.250000
vt 0.745995 0.531250
vt 0.750000 0.531250
vt 0.749204 0.500000
vt 0.968398 0.153167
vt 0.923039 0.085283
vt 0.915380 0.084620
vt 0.966079 0.160497
vt 0.423039 0.085283
vt 0.468398 0.153167
vt 0.466079 0.160497
vt 0.415380 0.084620
vt 0.566505 0.531250
vt 0.563297 0.500000
vt 0.755885 0.011171
vt 0.750000 0.016118
vt 0.335959 0.027098
vt 0.339503 0.033921
vt 0.495995 0.968750
vt 0.500000 0.968750
vt 0.441505 0.968750
vt 0.499203 1.000000
vt 0.438297 1.000000
vt 0.437500 0.968750
vt 0.653167 0.031602
vt 0.585283 0.076961
vt 0.584620 0.084620
vt 0.660497 0.033921
vt 0.370995 0.968750
vt 0.374203 1.000000
vt 0.527098 0.164041
vt 0.511171 0.244115
vt 0.516118 0.250000
vt 0.533921 0.160497
vt 0.011171 0.244115
vt 0.027098 0.164041
vt 0.033921 0.160497
vt 0.016118 0.250000
vt 0.191505 0.968750
vt 0.188297 1.000000
vt 0.187500 0.968750
vt 0.531602 0.346833
vt 0.533921 0.339503
vt 0.120995 0.968750
vt 0.120995 0.531250
vt 0.125000 0.531250
vt 0.134301 0.949715
vt 0.062500 0.968750
vt 0.088467 0.517745
vt 0.066505 0.531250
vt 0.066505 0.968750
vt 0.244115 0.488829
vt 0.250000 0.483882
vt 0.968398 0.153167
vt 0.468398 0.153167
vt 0.468398 0.153167
vt 0.423039 0.085283
vt 0.625000 0.531250
vt 0.835959 0.027098
vt 0.755885 0.011171
vt 0.835959 0.027098
vt 0.255885 0.011171
vt 0.335959 0.027098
vt 0.335959 0.027098
vt 0.255885 0.011171
vt 0.437500 0.968750
vt 0.437500 0.968750
vt 0.653167 0.031602
vt 0.653167 0.031602
vt 0.085283 0.076961
vt 0.375000 0.531250
vt 0.527098 0.164041
vt 0.511171 0.244115
vt 0.511171 0.244115
vt 0.527098 0.164041
vt 0.011171 0.244115
vt 0.027098 0.164041
vt 0.027098 0.164041
vt 0.011171 0.244115
vt 0.437500 1.000000
vt 0.375000 0.500000
vt 0.423039 0.085283
vt 0.968398 0.153167
vt 0.923039 0.085283
vt 0.335959 0.027098
vt 0.755885 0.011171
vt 0.085283 0.076961
vt 0.153167 0.031602
vt 0.585283 0.076961
s 0
f 1/1/1 2/2/1 3/3/1
f 4/4/2 5/5/2 6/6/2
f 7/7/3 8/8/3 9/9/3
f 10/10/4 11/11/4 12/12/4
f 13/13/5 14/14/5 15/15/5
f 16/16/6 17/17/6 18/18/6
f 19/19/7 20/20/7 21/21/7
f 22/22/8 23/23/8 24/24/8
f 25/25/9 26/26/9 27/27/9
f 28/28/10 29/29/10 30/30/10
f 31/31/11 32/32/11 33/33/11 34/34/11
f 35/35/12 36/36/12 37/37/12 38/38/12
f 39/39/13 40/40/13 41/41/13 42/42/13
f 43/43/14 44/44/14 45/45/14 46/46/14
f 47/47/15 48/48/15 49/49/15 50/50/15
f 51/51/16 52/52/16 53/53/16 54/54/16
f 55/55/17 56/56/17 57/57/17 58/58/17
f 59/59/18 60/60/18 61/61/18 62/62/18
f 63/63/19 64/64/19 65/65/19 66/66/19
f 67/67/20 68/68/20 69/69/20 70/70/20
f 71/71/21 72/72/21 73/73/21 74/74/21
f 75/75/22 76/76/22 77/77/22 78/78/22
f 79/79/23 80/80/23 81/81/23 82/82/23
f 83/83/24 84/84/24 85/85/24 86/86/24
f 87/87/25 88/88/25 89/89/25 90/90/25
f 91/91/26 92/92/26 93/93/26 94/94/26
f 95/95/27 96/96/27 97/97/27
f 98/98/28 99/99/28 100/100/28
f 101/101/29 102/102/29 103/103/29
f 104/104/30 105/105/30 106/106/30
f 107/107/31 108/108/31 109/109/31
f 110/110/32 111/111/32 112/112/32
f 113/113/33 114/114/33 115/36/33 116/36/33
f 117/115/34 118/34/34 119/34/34 120/115/34
f 121/116/35 122/117/35 123/117/35 124/118/35
f 125/43/36 126/43/36 127/46/36 128/119/36
f 129/120/37 130/53/37 131/52/37 132/52/37
f 133/121/38 134/122/38 135/122/38 136/123/38
f 137/55/39 138/56/39 139/56/39 140/55/39
f 141/124/40 142/124/40 143/125/40 144/125/40
f 145/69/41 146/69/41 147/68/41 148/126/41
f 149/127/42 150/66/42 151/66/42 152/65/42
f 153/128/43 154/129/43 155/130/43 156/128/43
f 157/131/44 158/131/44 159/132/44 160/133/44
f 161/134/45 162/85/45 163/84/45 164/84/45
f 165/135/46 166/82/46 167/82/46 168/135/46
f 169/87/47 170/88/47 171/88/47 172/87/47
f 173/91/48 174/91/48 175/94/48 176/136/48
f 177/137/49 178/138/49 179/139/49
f 180/140/50 181/141/50 182/142/50
f 183/143/51 184/144/51 185/145/51
f 186/146/52 187/147/52 188/148/52
f 189/53/53 190/149/53 191/150/53
f 192/151/54 193/152/54 194/153/54
f 195/154/55 196/155/55 197/56/55
f 198/156/56 199/125/56 200/157/56
f 201/158/52 202/159/52 203/160/52
f 204/161/57 205/162/57 206/163/57
f 207/164/58 208/165/58 209/72/58
f 210/166/59 211/133/59 212/167/59
f 213/168/60 214/169/60 215/170/60
f 216/81/61 217/171/61 218/172/61
f 219/173/62 220/174/62 221/88/62
f 222/175/63 223/176/63 224/177/63
f 3/178/64 8/8/64 7/7/64 1/179/64
f 12/180/65 5/5/65 4/4/65 10/181/65
f 2/182/66 6/6/66 5/5/66 3/178/66
f 11/183/67 9/9/67 8/8/67 12/180/67
f 9/184/34 14/14/34 13/13/34 7/185/34
f 18/186/33 11/11/33 10/10/33 16/187/33
f 17/17/68 15/188/68 14/189/68 18/18/68
f 15/188/69 20/20/69 19/19/69 13/190/69
f 24/191/70 17/17/70 16/16/70 22/192/70
f 23/193/71 21/21/71 20/20/71 24/191/71
f 21/194/38 26/26/38 25/25/38 19/195/38
f 30/196/37 23/23/37 22/22/37 28/197/37
f 29/29/72 27/198/72 26/199/72 30/30/72
f 27/198/73 32/32/73 31/31/73 25/200/73
f 38/38/74 29/29/74 28/28/74 35/35/74
f 37/37/71 33/33/71 32/32/71 38/38/71
f 34/201/75 39/202/75 42/203/75 31/204/75
f 43/205/76 36/206/76 35/207/76 44/208/76
f 45/45/77 41/41/77 40/40/77 46/46/77
f 41/41/78 48/209/78 47/210/78 42/42/78
f 54/54/79 45/45/79 44/44/79 51/51/79
f 53/53/80 49/151/80 48/209/80 54/54/80
f 50/50/75 55/211/75 58/212/75 47/47/75
f 59/59/76 52/213/76 51/214/76 60/60/76
f 61/215/81 57/57/81 56/56/81 62/216/81
f 57/57/82 64/64/82 63/63/82 58/58/82
f 70/217/83 61/215/83 60/218/83 67/219/83
f 69/220/84 65/65/84 64/64/84 70/217/84
f 66/221/75 71/222/75 74/223/75 63/224/75
f 75/75/76 68/68/76 67/67/76 76/76/76
f 77/225/85 73/73/85 72/72/85 78/133/85
f 73/73/86 80/80/86 79/79/86 74/74/86
f 86/86/87 77/225/87 76/226/87 83/83/87
f 85/85/88 81/81/88 80/80/88 86/86/88
f 82/227/75 87/228/75 90/229/75 79/230/75
f 91/231/76 84/232/76 83/233/76 92/234/76
f 93/93/89 89/89/89 88/88/89 94/94/89
f 89/89/90 96/96/90 95/95/90 90/90/90
f 100/235/91 93/93/91 92/92/91 98/236/91
f 99/237/92 97/97/92 96/96/92 100/235/92
f 97/238/43 102/102/43 101/101/43 95/239/43
f 106/106/44 99/99/44 98/98/44 104/104/44
f 105/240/89 103/241/89 102/242/89 106/243/89
f 103/103/93 108/108/93 107/107/93 101/101/93
f 112/112/94 105/105/94 104/104/94 110/110/94
f 111/244/95 109/245/95 108/246/95 112/247/95
f 109/109/47 2/2/47 1/1/47 107/107/47
f 6/248/48 111/111/48 110/110/48 4/249/48
f 113/113/96 117/115/96 120/115/96 114/114/96
f 118/250/75 121/116/75 124/118/75 119/201/75
f 125/205/76 116/251/76 115/252/76 126/253/76
f 127/46/97 123/254/97 122/145/97 128/119/97
f 129/120/98 133/121/98 136/123/98 130/53/98
f 134/255/75 137/256/75 140/211/75 135/257/75
f 141/258/76 132/259/76 131/260/76 142/261/76
f 143/125/99 139/56/99 138/56/99 144/125/99
f 145/262/100 149/127/100 152/65/100 146/263/100
f 150/264/75 153/128/75 156/128/75 151/265/75
f 157/266/76 148/126/76 147/68/76 158/75/76
f 159/132/101 155/72/101 154/267/101 160/133/101
f 161/134/102 165/135/102 168/135/102 162/85/102
f 166/268/75 169/269/75 172/270/75 167/271/75
f 173/272/76 164/273/76 163/274/76 174/275/76
f 175/94/103 171/88/103 170/88/103 176/136/103
f 78/133/44 159/132/44 158/131/44 75/131/44
f 146/263/41 69/220/41 68/276/41 147/276/41
f 33/33/34 120/115/34 119/34/34 34/34/34
f 123/254/35 40/40/35 39/39/35 124/39/35
f 71/71/43 156/277/43 155/72/43 72/72/43
f 46/46/36 127/46/36 126/43/36 43/43/36
f 114/114/33 37/37/33 36/36/33 115/36/33
f 84/84/45 163/84/45 162/85/45 85/85/45
f 167/82/46 82/82/46 81/81/46 168/135/46
f 171/88/47 88/88/47 87/87/47 172/87/47
f 52/52/37 131/52/37 130/53/37 53/53/37
f 135/122/38 50/122/38 49/151/38 136/123/38
f 94/94/48 175/94/48 174/91/48 91/91/48
f 139/56/39 56/56/39 55/55/39 140/55/39
f 62/216/40 143/125/40 142/124/40 59/124/40
f 151/66/42 66/66/42 65/65/42 152/65/42
f 179/139/98 181/141/98 180/140/98 177/137/98
f 181/141/42 184/144/42 183/143/42 182/142/42
f 188/148/41 179/139/41 178/138/41 186/146/41
f 187/147/102 185/145/102 184/144/102 188/148/102
f 191/150/100 193/152/100 192/151/100 189/53/100
f 193/152/46 196/155/46 195/154/46 194/153/46
f 200/157/45 191/150/45 190/149/45 198/156/45
f 199/125/97 197/56/97 196/155/97 200/157/97
f 203/160/102 205/162/102 204/161/102 201/158/102
f 205/162/35 208/165/35 207/164/35 206/163/35
f 212/167/36 203/160/36 202/159/36 210/166/36
f 211/133/99 209/72/99 208/165/99 212/167/99
f 215/170/97 217/171/97 216/81/97 213/168/97
f 217/171/39 220/174/39 219/173/39 218/172/39
f 224/177/40 215/170/40 214/169/40 222/175/40
f 223/176/101 221/88/101 220/174/101 224/177/101
f 148/276/41 202/159/41 201/158/41 145/262/41
f 206/163/42 150/66/42 149/127/42 204/161/42
f 209/72/43 154/267/43 153/277/43 207/164/43
f 160/133/44 211/133/44 210/166/44 157/131/44
f 164/84/45 214/169/45 213/168/45 161/134/45
f 218/172/46 166/82/46 165/135/46 216/81/46
f 221/88/47 170/88/47 169/87/47 219/173/47
f 116/36/33 178/138/33 177/137/33 113/113/33
f 182/142/34 118/34/34 117/115/34 180/140/34
f 176/136/48 223/176/48 222/175/48 173/91/48
f 185/145/35 122/145/35 121/39/35 183/143/35
f 128/119/36 187/147/36 186/146/36 125/43/36
f 132/52/37 190/149/37 189/53/37 129/120/37
f 194/153/38 134/122/38 133/121/38 192/151/38
f 197/56/39 138/56/39 137/55/39 195/154/39
f 144/125/40 199/125/40 198/156/40 141/124/40
f 1/1/75 7/185/75 13/13/75 19/195/75 25/25/75 31/204/75 42/203/75 47/47/75 58/212/75 63/224/75 74/223/75 79/230/75 90/229/75 95/239/75 101/101/75 107/107/75
f 3/178/104 5/5/104 12/180/104 8/8/104
f 111/111/103 6/6/103 2/2/103 109/245/103
f 10/10/76 4/249/76 110/110/76 104/104/76 98/98/76 92/234/76 83/233/76 76/76/76 67/67/76 60/60/76 51/214/76 44/208/76 35/207/76 28/197/76 22/22/76 16/187/76
f 14/14/96 9/9/96 11/11/96 18/18/96
f 15/188/105 17/17/105 24/191/105 20/20/105
f 26/26/98 21/21/98 23/23/98 30/30/98
f 27/198/106 29/29/106 38/38/106 32/32/106
f 39/202/75 34/201/75 119/201/75 124/118/75
f 33/33/96 37/37/96 114/114/96 120/115/96
f 36/206/76 43/205/76 126/253/76 115/252/76
f 46/46/97 40/40/97 123/254/97 127/46/97
f 41/41/107 45/45/107 54/54/107 48/209/107
f 55/211/75 50/50/75 135/257/75 140/211/75
f 49/151/98 53/53/98 130/53/98 136/123/98
f 52/213/76 59/59/76 142/261/76 131/260/76
f 57/57/108 61/215/108 70/217/108 64/64/108
f 62/216/99 56/56/99 139/56/99 143/125/99
f 71/222/75 66/221/75 151/265/75 156/128/75
f 65/65/100 69/220/100 146/263/100 152/65/100
f 68/68/76 75/75/76 158/75/76 147/68/76
f 73/73/109 77/225/109 86/86/109 80/80/109
f 78/133/101 72/72/101 155/72/101 159/132/101
f 87/228/75 82/227/75 167/271/75 172/270/75
f 81/81/102 85/85/102 162/85/102 168/135/102
f 84/232/76 91/231/76 174/275/76 163/274/76
f 89/89/110 93/93/110 100/235/110 96/96/110
f 94/94/103 88/88/103 171/88/103 175/94/103
f 102/102/101 97/97/101 99/99/101 106/243/101
f 103/241/111 105/240/111 112/247/111 108/246/111
f 117/115/96 113/113/96 177/137/96 180/140/96
f 116/251/76 125/205/76 186/278/76 178/252/76
f 121/116/75 118/250/75 182/279/75 183/280/75
f 128/119/97 122/145/97 185/145/97 187/147/97
f 133/121/98 129/120/98 189/53/98 192/151/98
f 132/259/76 141/258/76 198/261/76 190/281/76
f 137/256/75 134/255/75 194/257/75 195/282/75
f 144/125/99 138/56/99 197/56/99 199/125/99
f 148/126/76 157/266/76 210/283/76 202/284/76
f 149/127/100 145/262/100 201/158/100 204/161/100
f 153/128/75 150/264/75 206/221/75 207/285/75
f 160/133/101 154/267/101 209/72/101 211/133/101
f 165/135/102 161/134/102 213/168/102 216/81/102
f 164/273/76 173/272/76 222/272/76 214/274/76
f 169/269/75 166/268/75 218/271/75 219/269/75
f 176/136/103 170/88/103 221/88/103 223/176/103
f 181/141/100 179/139/100 188/148/100 184/144/100
f 193/152/102 191/150/102 200/157/102 196/155/102
f 205/162/97 203/160/97 212/167/97 208/165/97
f 217/171/99 215/170/99 224/177/99 220/174/99
