# Blender 5.0.1
# www.blender.org
o Gear_Main
v 0.010932 -0.908972 0.100000
v -0.000000 -0.889952 0.100000
v -0.009952 -0.899020 0.090000
v 0.000980 -0.909952 0.090000
v 0.010932 -0.908972 -0.100000
v 0.000980 -0.909952 -0.090000
v -0.009952 -0.899020 -0.090000
v -0.000000 -0.889952 -0.100000
v 0.166610 -0.893639 0.100000
v 0.176561 -0.892658 0.090000
v 0.185151 -0.879804 0.090000
v 0.173621 -0.872851 0.100000
v 0.166610 -0.893639 -0.100000
v 0.173621 -0.872852 -0.100000
v 0.185151 -0.879804 -0.090000
v 0.176561 -0.892659 -0.090000
v 0.340570 -0.822208 0.100000
v 0.334846 -0.834394 0.090000
v 0.349129 -0.840311 0.090000
v 0.357948 -0.835597 0.100000
v 0.340570 -0.822208 -0.100000
v 0.357948 -0.835597 -0.100000
v 0.349129 -0.840311 -0.090000
v 0.334846 -0.834395 -0.090000
v 0.495908 -0.761856 0.100000
v 0.504727 -0.757142 0.090000
v 0.507743 -0.741979 0.090000
v 0.494431 -0.739968 0.100000
v 0.495908 -0.761856 -0.100000
v 0.494431 -0.739968 -0.100000
v 0.507743 -0.741979 -0.090000
v 0.504727 -0.757142 -0.090000
v 0.629291 -0.629291 0.100000
v 0.628666 -0.642740 0.090000
v 0.644126 -0.642740 0.090000
v 0.650470 -0.635010 0.100000
v 0.629291 -0.629291 -0.100000
v 0.650470 -0.635010 -0.100000
v 0.644126 -0.642740 -0.090000
v 0.628666 -0.642740 -0.090000
v 0.749709 -0.514087 0.100000
v 0.756053 -0.506357 0.090000
v 0.753036 -0.491194 0.090000
v 0.739968 -0.494431 0.100000
v 0.749709 -0.514087 -0.100000
v 0.739968 -0.494431 -0.100000
v 0.753036 -0.491194 -0.090000
v 0.756053 -0.506357 -0.090000
v 0.822208 -0.340570 0.100000
v 0.826778 -0.353234 0.090000
v 0.841061 -0.347318 0.090000
v 0.843964 -0.337748 0.100000
v 0.822208 -0.340570 -0.100000
v 0.843964 -0.337749 -0.100000
v 0.841061 -0.347318 -0.090000
v 0.826778 -0.353234 -0.090000
v 0.889373 -0.188054 0.100000
v 0.892276 -0.178484 0.090000
v 0.883687 -0.165629 0.090000
v 0.872851 -0.173621 0.100000
v 0.889373 -0.188054 -0.100000
v 0.872851 -0.173621 -0.100000
v 0.883687 -0.165630 -0.090000
v 0.892276 -0.178484 -0.090000
v 0.889952 -0.000000 0.100000
v 0.899020 -0.009952 0.090000
v 0.909952 0.000980 0.090000
v 0.908972 0.010932 0.100000
v 0.889952 -0.000000 -0.100000
v 0.908972 0.010932 -0.100000
v 0.909952 0.000980 -0.090000
v 0.899020 -0.009952 -0.090000
v 0.893639 0.166610 0.100000
v 0.892658 0.176562 0.090000
v 0.879804 0.185151 0.090000
v 0.872851 0.173621 0.100000
v 0.893639 0.166610 -0.100000
v 0.872851 0.173621 -0.100000
v 0.879804 0.185151 -0.090000
v 0.892658 0.176561 -0.090000
v 0.822208 0.340570 0.100000
v 0.834394 0.334846 0.090000
v 0.840311 0.349129 0.090000
v 0.835597 0.357948 0.100000
v 0.822208 0.340570 -0.100000
v 0.835597 0.357948 -0.100000
v 0.840311 0.349129 -0.090000
v 0.834394 0.334846 -0.090000
v 0.761856 0.495908 0.100000
v 0.757142 0.504727 0.090000
v 0.741979 0.507743 0.090000
v 0.739968 0.494431 0.100000
v 0.761856 0.495908 -0.100000
v 0.739968 0.494431 -0.100000
v 0.741979 0.507743 -0.090000
v 0.757142 0.504727 -0.090000
v 0.629291 0.629291 0.100000
v 0.642740 0.628666 0.090000
v 0.642740 0.644126 0.090000
v 0.635010 0.650470 0.100000
v 0.629291 0.629291 -0.100000
v 0.635010 0.650470 -0.100000
v 0.642740 0.644126 -0.090000
v 0.642740 0.628666 -0.090000
v 0.514087 0.749709 0.100000
v 0.506357 0.756053 0.090000
v 0.491194 0.753037 0.090000
v 0.494431 0.739968 0.100000
v 0.514087 0.749709 -0.100000
v 0.494431 0.739968 -0.100000
v 0.491194 0.753036 -0.090000
v 0.506357 0.756053 -0.090000
v 0.340570 0.822208 0.100000
v 0.353234 0.826778 0.090000
v 0.347318 0.841061 0.090000
v 0.337748 0.843964 0.100000
v 0.340570 0.822208 -0.100000
v 0.337748 0.843964 -0.100000
v 0.347318 0.841061 -0.090000
v 0.353234 0.826778 -0.090000
v 0.188054 0.889373 0.100000
v 0.178484 0.892276 0.090000
v 0.165629 0.883687 0.090000
v 0.173621 0.872852 0.100000
v 0.188054 0.889373 -0.100000
v 0.173621 0.872851 -0.100000
v 0.165629 0.883687 -0.090000
v 0.178484 0.892276 -0.090000
v -0.000000 0.889952 0.100000
v 0.009952 0.899020 0.090000
v -0.000980 0.909952 0.090000
v -0.010932 0.908972 0.100000
v -0.000000 0.889952 -0.100000
v -0.010932 0.908972 -0.100000
v -0.000980 0.909952 -0.090000
v 0.009952 0.899020 -0.090000
v -0.166610 0.893639 0.100000
v -0.176561 0.892659 0.090000
v -0.185151 0.879804 0.090000
v -0.173621 0.872852 0.100000
v -0.166610 0.893639 -0.100000
v -0.173621 0.872851 -0.100000
v -0.185151 0.879804 -0.090000
v -0.176561 0.892658 -0.090000
v -0.340570 0.822208 0.100000
v -0.334846 0.834395 0.090000
v -0.349129 0.840311 0.090000
v -0.357948 0.835597 0.100000
v -0.340570 0.822208 -0.100000
v -0.357948 0.835597 -0.100000
v -0.349129 0.840311 -0.090000
v -0.334846 0.834394 -0.090000
v -0.495908 0.761856 0.100000
v -0.504727 0.757142 0.090000
v -0.507743 0.741979 0.090000
v -0.494431 0.739968 0.100000
v -0.495908 0.761856 -0.100000
v -0.494431 0.739968 -0.100000
v -0.507743 0.741979 -0.090000
v -0.504727 0.757142 -0.090000
v -0.629291 0.629291 0.100000
v -0.628666 0.642740 0.090000
v -0.644126 0.642740 0.090000
v -0.650470 0.635010 0.100000
v -0.629291 0.629291 -0.100000
v -0.650470 0.635010 -0.100000
v -0.644126 0.642740 -0.090000
v -0.628666 0.642740 -0.090000
v -0.749709 0.514087 0.100000
v -0.756053 0.506357 0.090000
v -0.753036 0.491194 0.090000
v -0.739968 0.494431 0.100000
v -0.749709 0.514087 -0.100000
v -0.739968 0.494431 -0.100000
v -0.753036 0.491194 -0.090000
v -0.756053 0.506357 -0.090000
v -0.822208 0.340570 0.100000
v -0.826778 0.353234 0.090000
v -0.841061 0.347318 0.090000
v -0.843964 0.337749 0.100000
v -0.822208 0.340570 -0.100000
v -0.843964 0.337748 -0.100000
v -0.841061 0.347318 -0.090000
v -0.826778 0.353234 -0.090000
v -0.889373 0.188054 0.100000
v -0.892276 0.178484 0.090000
v -0.883687 0.165630 0.090000
v -0.872851 0.173621 0.100000
v -0.889373 0.188054 -0.100000
v -0.872851 0.173621 -0.100000
v -0.883687 0.165629 -0.090000
v -0.892276 0.178484 -0.090000
v -0.889952 -0.000000 0.100000
v -0.899020 0.009952 0.090000
v -0.909952 -0.000980 0.090000
v -0.908972 -0.010932 0.100000
v -0.889952 -0.000000 -0.100000
v -0.908972 -0.010932 -0.100000
v -0.909952 -0.000980 -0.090000
v -0.899020 0.009952 -0.090000
v -0.893639 -0.166610 0.100000
v -0.892658 -0.176561 0.090000
v -0.879804 -0.185151 0.090000
v -0.872851 -0.173621 0.100000
v -0.893639 -0.166610 -0.100000
v -0.872851 -0.173621 -0.100000
v -0.879804 -0.185151 -0.090000
v -0.892658 -0.176562 -0.090000
v -0.822208 -0.340570 0.100000
v -0.834394 -0.334846 0.090000
v -0.840311 -0.349129 0.090000
v -0.835597 -0.357948 0.100000
v -0.822208 -0.340570 -0.100000
v -0.835597 -0.357948 -0.100000
v -0.840311 -0.349129 -0.090000
v -0.834394 -0.334846 -0.090000
v -0.761856 -0.495908 0.100000
v -0.757142 -0.504727 0.090000
v -0.741979 -0.507743 0.090000
v -0.739968 -0.494431 0.100000
v -0.761856 -0.495908 -0.100000
v -0.739968 -0.494431 -0.100000
v -0.741979 -0.507743 -0.090000
v -0.757142 -0.504727 -0.090000
v -0.629291 -0.629291 0.100000
v -0.642740 -0.628666 0.090000
v -0.642740 -0.644126 0.090000
v -0.635010 -0.650470 0.100000
v -0.629291 -0.629291 -0.100000
v -0.635010 -0.650470 -0.100000
v -0.642740 -0.644126 -0.090000
v -0.642740 -0.628666 -0.090000
v -0.514087 -0.749709 0.100000
v -0.506357 -0.756053 0.090000
v -0.491194 -0.753036 0.090000
v -0.494431 -0.739968 0.100000
v -0.514087 -0.749709 -0.100000
v -0.494431 -0.739968 -0.100000
v -0.491194 -0.753037 -0.090000
v -0.506357 -0.756053 -0.090000
v -0.340570 -0.822208 0.100000
v -0.353234 -0.826778 0.090000
v -0.347318 -0.841061 0.090000
v -0.337748 -0.843964 0.100000
v -0.340570 -0.822208 -0.100000
v -0.337748 -0.843964 -0.100000
v -0.347318 -0.841061 -0.090000
v -0.353234 -0.826778 -0.090000
v -0.188054 -0.889373 0.100000
v -0.178484 -0.892276 0.090000
v -0.165629 -0.883687 0.090000
v -0.173621 -0.872851 0.100000
v -0.188054 -0.889373 -0.100000
v -0.173621 -0.872852 -0.100000
v -0.165629 -0.883687 -0.090000
v -0.178484 -0.892276 -0.090000
v -0.211276 -0.965929 -0.100000
v -0.201707 -0.968831 -0.090000
v -0.207513 -0.987970 -0.090000
v -0.217082 -0.985067 -0.100000
v -0.211276 -0.965928 0.100000
v -0.217082 -0.985067 0.100000
v -0.207513 -0.987970 0.090000
v -0.201707 -0.968831 0.090000
v -0.370541 -0.917616 0.090000
v -0.376346 -0.936755 0.090000
v -0.366777 -0.939658 0.100000
v -0.360971 -0.920519 0.100000
v -0.370541 -0.917616 -0.090000
v -0.360971 -0.920519 -0.100000
v -0.366777 -0.939658 -0.100000
v -0.376346 -0.936755 -0.090000
v -0.564839 -0.811550 -0.100000
v -0.557109 -0.817894 -0.090000
v -0.569796 -0.833354 -0.090000
v -0.577527 -0.827010 -0.100000
v -0.564839 -0.811550 0.100000
v -0.577527 -0.827010 0.100000
v -0.569796 -0.833354 0.090000
v -0.557109 -0.817894 0.090000
v -0.693491 -0.705967 0.090000
v -0.706179 -0.721427 0.090000
v -0.698449 -0.727771 0.100000
v -0.685761 -0.712311 0.100000
v -0.693491 -0.705967 -0.090000
v -0.685761 -0.712311 -0.100000
v -0.698449 -0.727771 -0.100000
v -0.706179 -0.721427 -0.090000
v -0.832409 -0.533620 -0.100000
v -0.827695 -0.542439 -0.090000
v -0.845334 -0.551867 -0.090000
v -0.850048 -0.543048 -0.100000
v -0.832409 -0.533620 0.100000
v -0.850048 -0.543048 0.100000
v -0.845334 -0.551867 0.090000
v -0.827695 -0.542439 0.090000
v -0.910864 -0.386841 0.090000
v -0.928503 -0.396269 0.090000
v -0.923789 -0.405088 0.100000
v -0.906150 -0.395660 0.100000
v -0.910864 -0.386841 -0.090000
v -0.906150 -0.395660 -0.100000
v -0.923789 -0.405088 -0.100000
v -0.928503 -0.396269 -0.090000
v -0.973253 -0.174451 -0.100000
v -0.972273 -0.184403 -0.090000
v -0.992177 -0.186363 -0.090000
v -0.993157 -0.176411 -0.100000
v -0.973253 -0.174451 0.100000
v -0.993157 -0.176411 0.100000
v -0.992177 -0.186363 0.090000
v -0.972273 -0.184403 0.090000
v -0.989567 -0.008822 0.090000
v -1.009470 -0.010782 0.090000
v -1.008490 -0.020734 0.100000
v -0.988586 -0.018773 0.100000
v -0.989567 -0.008822 -0.090000
v -0.988586 -0.018773 -0.100000
v -1.008490 -0.020734 -0.100000
v -1.009470 -0.010782 -0.090000
v -0.965928 0.211276 -0.100000
v -0.968831 0.201707 -0.090000
v -0.987970 0.207513 -0.090000
v -0.985067 0.217082 -0.100000
v -0.965928 0.211276 0.100000
v -0.985067 0.217082 0.100000
v -0.987970 0.207513 0.090000
v -0.968831 0.201707 0.090000
v -0.917616 0.370541 0.090000
v -0.936755 0.376346 0.090000
v -0.939658 0.366777 0.100000
v -0.920519 0.360971 0.100000
v -0.917616 0.370541 -0.090000
v -0.920519 0.360971 -0.100000
v -0.939658 0.366777 -0.100000
v -0.936755 0.376346 -0.090000
v -0.811550 0.564839 -0.100000
v -0.817894 0.557109 -0.090000
v -0.833354 0.569796 -0.090000
v -0.827010 0.577527 -0.100000
v -0.811550 0.564839 0.100000
v -0.827010 0.577527 0.100000
v -0.833354 0.569797 0.090000
v -0.817894 0.557109 0.090000
v -0.705967 0.693491 0.090000
v -0.721427 0.706179 0.090000
v -0.727771 0.698449 0.100000
v -0.712311 0.685761 0.100000
v -0.705967 0.693491 -0.090000
v -0.712311 0.685761 -0.100000
v -0.727771 0.698449 -0.100000
v -0.721427 0.706179 -0.090000
v -0.533620 0.832409 -0.100000
v -0.542439 0.827695 -0.090000
v -0.551867 0.845334 -0.090000
v -0.543048 0.850048 -0.100000
v -0.533620 0.832410 0.100000
v -0.543048 0.850048 0.100000
v -0.551867 0.845334 0.090000
v -0.542439 0.827696 0.090000
v -0.386841 0.910865 0.090000
v -0.396269 0.928503 0.090000
v -0.405088 0.923789 0.100000
v -0.395660 0.906151 0.100000
v -0.386841 0.910864 -0.090000
v -0.395660 0.906150 -0.100000
v -0.405088 0.923789 -0.100000
v -0.396269 0.928503 -0.090000
v -0.174451 0.973253 -0.100000
v -0.184403 0.972273 -0.090000
v -0.186363 0.992177 -0.090000
v -0.176411 0.993157 -0.100000
v -0.174451 0.973254 0.100000
v -0.176411 0.993157 0.100000
v -0.186363 0.992177 0.090000
v -0.184403 0.972273 0.090000
v -0.008822 0.989567 0.090000
v -0.010782 1.009470 0.090000
v -0.020734 1.008490 0.100000
v -0.018773 0.988586 0.100000
v -0.008822 0.989567 -0.090000
v -0.018773 0.988586 -0.100000
v -0.020734 1.008490 -0.100000
v -0.010782 1.009470 -0.090000
v 0.211276 0.965928 -0.100000
v 0.201707 0.968831 -0.090000
v 0.207513 0.987970 -0.090000
v 0.217082 0.985067 -0.100000
v 0.211276 0.965929 0.100000
v 0.217082 0.985067 0.100000
v 0.207513 0.987970 0.090000
v 0.201707 0.968831 0.090000
v 0.370541 0.917616 0.090000
v 0.376346 0.936755 0.090000
v 0.366777 0.939658 0.100000
v 0.360971 0.920519 0.100000
v 0.370541 0.917616 -0.090000
v 0.360971 0.920519 -0.100000
v 0.366777 0.939658 -0.100000
v 0.376346 0.936755 -0.090000
v 0.564839 0.811550 -0.100000
v 0.557109 0.817894 -0.090000
v 0.569796 0.833354 -0.090000
v 0.577527 0.827010 -0.100000
v 0.564839 0.811550 0.100000
v 0.577527 0.827010 0.100000
v 0.569796 0.833354 0.090000
v 0.557109 0.817894 0.090000
v 0.693491 0.705967 0.090000
v 0.706179 0.721427 0.090000
v 0.698449 0.727771 0.100000
v 0.685761 0.712311 0.100000
v 0.693491 0.705967 -0.090000
v 0.685761 0.712311 -0.100000
v 0.698449 0.727771 -0.100000
v 0.706179 0.721427 -0.090000
v 0.832409 0.533620 -0.100000
v 0.827695 0.542439 -0.090000
v 0.845334 0.551867 -0.090000
v 0.850048 0.543048 -0.100000
v 0.832409 0.533620 0.100000
v 0.850048 0.543048 0.100000
v 0.845334 0.551867 0.090000
v 0.827695 0.542439 0.090000
v 0.910864 0.386841 0.090000
v 0.928503 0.396269 0.090000
v 0.923789 0.405088 0.100000
v 0.906150 0.395660 0.100000
v 0.910864 0.386841 -0.090000
v 0.906150 0.395660 -0.100000
v 0.923789 0.405088 -0.100000
v 0.928503 0.396269 -0.090000
v 0.973253 0.174451 -0.100000
v 0.972273 0.184403 -0.090000
v 0.992177 0.186363 -0.090000
v 0.993157 0.176411 -0.100000
v 0.973253 0.174451 0.100000
v 0.993157 0.176411 0.100000
v 0.992177 0.186363 0.090000
v 0.972273 0.184403 0.090000
v 0.989567 0.008822 0.090000
v 1.009470 0.010782 0.090000
v 1.008490 0.020734 0.100000
v 0.988586 0.018773 0.100000
v 0.989567 0.008822 -0.090000
v 0.988586 0.018773 -0.100000
v 1.008490 0.020734 -0.100000
v 1.009470 0.010782 -0.090000
v 0.965928 -0.211276 -0.100000
v 0.968831 -0.201707 -0.090000
v 0.987970 -0.207513 -0.090000
v 0.985067 -0.217082 -0.100000
v 0.965928 -0.211276 0.100000
v 0.985067 -0.217082 0.100000
v 0.987970 -0.207513 0.090000
v 0.968831 -0.201707 0.090000
v 0.917616 -0.370541 0.090000
v 0.936755 -0.376346 0.090000
v 0.939658 -0.366777 0.100000
v 0.920519 -0.360971 0.100000
v 0.917616 -0.370541 -0.090000
v 0.920519 -0.360971 -0.100000
v 0.939658 -0.366777 -0.100000
v 0.936755 -0.376346 -0.090000
v 0.811550 -0.564839 -0.100000
v 0.817894 -0.557109 -0.090000
v 0.833354 -0.569797 -0.090000
v 0.827010 -0.577527 -0.100000
v 0.811550 -0.564839 0.100000
v 0.827010 -0.577527 0.100000
v 0.833354 -0.569796 0.090000
v 0.817894 -0.557109 0.090000
v 0.705967 -0.693491 0.090000
v 0.721427 -0.706179 0.090000
v 0.727771 -0.698449 0.100000
v 0.712311 -0.685761 0.100000
v 0.705967 -0.693491 -0.090000
v 0.712311 -0.685761 -0.100000
v 0.727771 -0.698449 -0.100000
v 0.721427 -0.706179 -0.090000
v 0.533620 -0.832410 -0.100000
v 0.542439 -0.827696 -0.090000
v 0.551867 -0.845334 -0.090000
v 0.543048 -0.850048 -0.100000
v 0.533620 -0.832409 0.100000
v 0.543048 -0.850048 0.100000
v 0.551867 -0.845334 0.090000
v 0.542439 -0.827695 0.090000
v 0.386841 -0.910864 0.090000
v 0.396269 -0.928503 0.090000
v 0.405088 -0.923789 0.100000
v 0.395660 -0.906150 0.100000
v 0.386841 -0.910865 -0.090000
v 0.395660 -0.906151 -0.100000
v 0.405088 -0.923789 -0.100000
v 0.396269 -0.928503 -0.090000
v 0.018773 -0.988586 -0.100000
v 0.020734 -1.008490 -0.100000
v 0.010782 -1.009470 -0.090000
v 0.008822 -0.989567 -0.090000
v 0.174451 -0.973254 -0.100000
v 0.184403 -0.972273 -0.090000
v 0.186363 -0.992177 -0.090000
v 0.176411 -0.993157 -0.100000
v 0.174451 -0.973253 0.100000
v 0.176411 -0.993157 0.100000
v 0.186363 -0.992177 0.090000
v 0.184403 -0.972273 0.090000
v 0.018773 -0.988586 0.100000
v 0.008822 -0.989567 0.090000
v 0.010782 -1.009470 0.090000
v 0.020734 -1.008490 0.100000
v -0.230735 -1.064525 -0.090000
v -0.243208 -1.071192 -0.090000
v -0.240305 -1.061623 -0.100000
v -0.230735 -1.064525 0.090000
v -0.240305 -1.061623 0.100000
v -0.243208 -1.071192 0.090000
v -0.390000 -1.016213 -0.100000
v -0.392903 -1.025783 -0.090000
v -0.399569 -1.013310 -0.090000
v -0.390000 -1.016213 0.100000
v -0.399569 -1.013310 0.090000
v -0.392903 -1.025782 0.090000
v -0.620548 -0.895195 -0.090000
v -0.634622 -0.896581 -0.090000
v -0.628278 -0.888851 -0.100000
v -0.620548 -0.895195 0.090000
v -0.628278 -0.888851 0.100000
v -0.634622 -0.896581 0.090000
v -0.749201 -0.789612 -0.100000
v -0.755545 -0.797342 -0.090000
v -0.756931 -0.783268 -0.090000
v -0.749201 -0.789612 0.100000
v -0.756931 -0.783268 0.090000
v -0.755545 -0.797342 0.090000
v -0.915888 -0.589579 -0.090000
v -0.929421 -0.585473 -0.090000
v -0.920602 -0.580759 -0.100000
v -0.915888 -0.589579 0.090000
v -0.920602 -0.580759 0.100000
v -0.929421 -0.585473 0.090000
v -0.994343 -0.442800 -0.100000
v -1.003162 -0.447514 -0.090000
v -0.999057 -0.433981 -0.090000
v -0.994343 -0.442800 0.100000
v -0.999057 -0.433980 0.090000
v -1.003162 -0.447514 0.090000
v -1.071792 -0.194205 -0.090000
v -1.082724 -0.185233 -0.090000
v -1.072772 -0.184253 -0.100000
v -1.071792 -0.194205 0.090000
v -1.072772 -0.184253 0.100000
v -1.082724 -0.185233 0.090000
v -1.088105 -0.028575 -0.100000
v -1.098057 -0.029555 -0.090000
v -1.089085 -0.018623 -0.090000
v -1.088105 -0.028575 0.100000
v -1.089085 -0.018623 0.090000
v -1.098057 -0.029555 0.090000
v -1.064525 0.230735 -0.090000
v -1.071192 0.243208 -0.090000
v -1.061623 0.240305 -0.100000
v -1.064525 0.230735 0.090000
v -1.061623 0.240305 0.100000
v -1.071192 0.243208 0.090000
v -1.016213 0.390000 -0.100000
v -1.025782 0.392903 -0.090000
v -1.013310 0.399569 -0.090000
v -1.016213 0.390000 0.100000
v -1.013310 0.399569 0.090000
v -1.025782 0.392903 0.090000
v -0.895195 0.620548 -0.090000
v -0.896581 0.634622 -0.090000
v -0.888851 0.628278 -0.100000
v -0.895195 0.620548 0.090000
v -0.888851 0.628278 0.100000
v -0.896581 0.634622 0.090000
v -0.789612 0.749201 -0.100000
v -0.797342 0.755545 -0.090000
v -0.783268 0.756931 -0.090000
v -0.789612 0.749201 0.100000
v -0.783268 0.756931 0.090000
v -0.797342 0.755545 0.090000
v -0.589579 0.915888 -0.090000
v -0.585473 0.929421 -0.090000
v -0.580759 0.920601 -0.100000
v -0.589579 0.915888 0.090000
v -0.580759 0.920602 0.100000
v -0.585473 0.929421 0.090000
v -0.442800 0.994343 -0.100000
v -0.447514 1.003162 -0.090000
v -0.433980 0.999056 -0.090000
v -0.442800 0.994343 0.100000
v -0.433980 0.999057 0.090000
v -0.447514 1.003162 0.090000
v -0.194205 1.071792 -0.090000
v -0.185233 1.082724 -0.090000
v -0.184253 1.072772 -0.100000
v -0.194205 1.071792 0.090000
v -0.184253 1.072772 0.100000
v -0.185233 1.082724 0.090000
v -0.028575 1.088105 -0.100000
v -0.029555 1.098057 -0.090000
v -0.018623 1.089085 -0.090000
v -0.028575 1.088105 0.100000
v -0.018623 1.089085 0.090000
v -0.029555 1.098057 0.090000
v 0.230735 1.064525 -0.090000
v 0.243208 1.071192 -0.090000
v 0.240305 1.061623 -0.100000
v 0.230735 1.064525 0.090000
v 0.240305 1.061623 0.100000
v 0.243208 1.071192 0.090000
v 0.390000 1.016213 -0.100000
v 0.392903 1.025782 -0.090000
v 0.399569 1.013310 -0.090000
v 0.390000 1.016213 0.100000
v 0.399569 1.013310 0.090000
v 0.392903 1.025783 0.090000
v 0.620548 0.895195 -0.090000
v 0.634622 0.896581 -0.090000
v 0.628278 0.888851 -0.100000
v 0.620548 0.895195 0.090000
v 0.628278 0.888851 0.100000
v 0.634622 0.896581 0.090000
v 0.749201 0.789612 -0.100000
v 0.755545 0.797342 -0.090000
v 0.756931 0.783268 -0.090000
v 0.749201 0.789612 0.100000
v 0.756931 0.783268 0.090000
v 0.755545 0.797342 0.090000
v 0.915888 0.589579 -0.090000
v 0.929421 0.585473 -0.090000
v 0.920602 0.580759 -0.100000
v 0.915888 0.589579 0.090000
v 0.920602 0.580759 0.100000
v 0.929421 0.585473 0.090000
v 0.994343 0.442800 -0.100000
v 1.003162 0.447514 -0.090000
v 0.999057 0.433980 -0.090000
v 0.994343 0.442800 0.100000
v 0.999057 0.433981 0.090000
v 1.003162 0.447514 0.090000
v 1.071792 0.194205 -0.090000
v 1.082724 0.185233 -0.090000
v 1.072772 0.184253 -0.100000
v 1.071792 0.194205 0.090000
v 1.072772 0.184253 0.100000
v 1.082724 0.185233 0.090000
v 1.088105 0.028575 -0.100000
v 1.098057 0.029555 -0.090000
v 1.089085 0.018623 -0.090000
v 1.088105 0.028575 0.100000
v 1.089085 0.018623 0.090000
v 1.098057 0.029555 0.090000
v 1.064525 -0.230735 -0.090000
v 1.071192 -0.243208 -0.090000
v 1.061623 -0.240305 -0.100000
v 1.064525 -0.230735 0.090000
v 1.061623 -0.240305 0.100000
v 1.071192 -0.243208 0.090000
v 1.016213 -0.390000 -0.100000
v 1.025782 -0.392903 -0.090000
v 1.013310 -0.399569 -0.090000
v 1.016213 -0.390000 0.100000
v 1.013310 -0.399569 0.090000
v 1.025782 -0.392903 0.090000
v 0.895195 -0.620548 -0.090000
v 0.896581 -0.634622 -0.090000
v 0.888851 -0.628278 -0.100000
v 0.895195 -0.620548 0.090000
v 0.888851 -0.628278 0.100000
v 0.896581 -0.634622 0.090000
v 0.789612 -0.749201 -0.100000
v 0.797342 -0.755545 -0.090000
v 0.783268 -0.756931 -0.090000
v 0.789612 -0.749201 0.100000
v 0.783268 -0.756931 0.090000
v 0.797342 -0.755545 0.090000
v 0.589579 -0.915888 -0.090000
v 0.585473 -0.929421 -0.090000
v 0.580759 -0.920602 -0.100000
v 0.589579 -0.915888 0.090000
v 0.580759 -0.920601 0.100000
v 0.585473 -0.929421 0.090000
v 0.442800 -0.994343 -0.100000
v 0.447514 -1.003162 -0.090000
v 0.433980 -0.999057 -0.090000
v 0.442800 -0.994343 0.100000
v 0.433980 -0.999056 0.090000
v 0.447514 -1.003162 0.090000
v 0.194205 -1.071792 -0.090000
v 0.185233 -1.082724 -0.090000
v 0.184253 -1.072772 -0.100000
v 0.194205 -1.071792 0.090000
v 0.184253 -1.072772 0.100000
v 0.185233 -1.082724 0.090000
v 0.018623 -1.089085 0.090000
v 0.029555 -1.098057 0.090000
v 0.028575 -1.088105 0.100000
v 0.018623 -1.089085 -0.090000
v 0.028575 -1.088105 -0.100000
v 0.029555 -1.098057 -0.090000
v -0.190000 -0.059153 0.190000
v -0.190000 -0.049153 0.200000
v -0.200000 -0.049153 0.190000
v -0.190000 0.049153 0.200000
v -0.190000 0.059153 0.190000
v -0.200000 0.049153 0.190000
v -0.190000 -0.059153 0.113393
v -0.200000 -0.049153 0.113393
v -0.190000 -0.049153 0.103393
v -0.190000 0.059153 0.113393
v -0.190000 0.049153 0.103393
v -0.200000 0.049153 0.113393
v 2.220000 -0.059153 0.190000
v 2.230000 -0.049153 0.190000
v 2.220000 -0.049153 0.200000
v 2.220000 0.059153 0.190000
v 2.220000 0.049153 0.200000
v 2.230000 0.049153 0.190000
v 2.220000 -0.059153 0.113393
v 2.220000 -0.049153 0.103393
v 2.230000 -0.049153 0.113393
v 2.220000 0.059153 0.113393
v 2.230000 0.049153 0.113393
v 2.220000 0.049153 0.103393
vn -0.5433 -0.3966 0.7400
vn -0.5433 -0.3966 -0.7400
vn 0.6102 -0.2830 0.7400
vn 0.6102 -0.2830 -0.7400
vn -0.3502 -0.5743 0.7399
vn -0.3502 -0.5743 -0.7399
vn 0.6721 -0.0279 0.7400
vn 0.6721 -0.0279 -0.7400
vn -0.1037 -0.6646 0.7400
vn -0.1037 -0.6646 -0.7400
vn 0.6316 0.2314 0.7399
vn 0.6316 0.2314 -0.7399
vn 0.1585 -0.6537 0.7400
vn 0.1585 -0.6537 -0.7400
vn 0.4950 0.4555 0.7399
vn 0.4950 0.4555 -0.7399
vn 0.3966 -0.5433 0.7399
vn 0.3966 -0.5433 -0.7400
vn 0.2830 0.6102 0.7400
vn 0.2830 0.6102 -0.7400
vn 0.5743 -0.3502 0.7399
vn 0.5743 -0.3502 -0.7399
vn 0.0279 0.6721 0.7400
vn 0.0279 0.6721 -0.7400
vn 0.6646 -0.1037 0.7400
vn 0.6646 -0.1037 -0.7400
vn -0.2314 0.6316 0.7399
vn -0.2314 0.6316 -0.7400
vn 0.6537 0.1585 0.7400
vn 0.6537 0.1585 -0.7400
vn -0.4555 0.4950 0.7399
vn -0.4555 0.4950 -0.7399
vn 0.5433 0.3966 0.7400
vn 0.5433 0.3966 -0.7400
vn -0.6102 0.2830 0.7400
vn -0.6102 0.2830 -0.7400
vn 0.3502 0.5743 0.7399
vn 0.3502 0.5743 -0.7399
vn -0.6721 0.0279 0.7400
vn -0.6721 0.0279 -0.7400
vn 0.1037 0.6646 0.7400
vn 0.1037 0.6646 -0.7400
vn -0.6316 -0.2314 0.7399
vn -0.6316 -0.2314 -0.7399
vn -0.1585 0.6537 0.7400
vn -0.1585 0.6537 -0.7400
vn -0.4950 -0.4555 0.7399
vn -0.4950 -0.4555 -0.7399
vn -0.3966 0.5433 0.7399
vn -0.3966 0.5433 -0.7400
vn -0.2830 -0.6102 0.7400
vn -0.2830 -0.6102 -0.7400
vn -0.5743 0.3502 0.7399
vn -0.5743 0.3502 -0.7399
vn -0.0279 -0.6721 0.7400
vn -0.0279 -0.6721 -0.7400
vn -0.6646 0.1037 0.7400
vn -0.6646 0.1037 -0.7400
vn 0.2314 -0.6316 0.7399
vn 0.2314 -0.6316 -0.7399
vn -0.6537 -0.1585 0.7400
vn -0.6537 -0.1585 -0.7400
vn 0.4555 -0.4950 0.7399
vn 0.4555 -0.4950 -0.7399
vn 0.6767 -0.2053 -0.7071
vn 0.6767 -0.2053 0.7071
vn -0.6767 0.2053 0.7071
vn -0.6767 0.2053 -0.7071
vn 0.5466 -0.4486 -0.7071
vn 0.5466 -0.4486 0.7071
vn -0.5466 0.4486 0.7071
vn -0.5466 0.4486 -0.7071
vn 0.3333 -0.6236 -0.7071
vn 0.3333 -0.6236 0.7071
vn -0.3333 0.6236 0.7071
vn -0.3333 0.6236 -0.7071
vn 0.0693 -0.7037 -0.7071
vn 0.0693 -0.7037 0.7071
vn -0.0693 0.7037 0.7071
vn -0.0693 0.7037 -0.7071
vn -0.2053 -0.6767 -0.7071
vn -0.2053 -0.6767 0.7071
vn 0.2053 0.6767 0.7071
vn 0.2053 0.6767 -0.7071
vn -0.4486 -0.5466 -0.7071
vn -0.4486 -0.5466 0.7071
vn 0.4486 0.5466 0.7071
vn 0.4486 0.5466 -0.7071
vn -0.6236 -0.3333 -0.7071
vn -0.6236 -0.3333 0.7071
vn 0.6236 0.3333 0.7071
vn 0.6236 0.3333 -0.7071
vn -0.7037 -0.0693 -0.7071
vn -0.7037 -0.0693 0.7071
vn 0.7037 0.0693 0.7071
vn 0.7037 0.0693 -0.7071
vn 0.3849 -0.7201 -0.5774
vn 0.3849 -0.7201 0.5773
vn -0.7201 -0.3849 -0.5773
vn -0.7201 -0.3849 0.5773
vn 0.0800 -0.8126 -0.5774
vn 0.0800 -0.8126 0.5774
vn -0.8126 -0.0800 -0.5774
vn -0.8126 -0.0800 0.5774
vn -0.2370 -0.7813 -0.5773
vn -0.2370 -0.7813 0.5773
vn -0.7813 0.2370 -0.5774
vn -0.7813 0.2370 0.5773
vn -0.5180 -0.6312 -0.5773
vn -0.5180 -0.6312 0.5773
vn -0.6312 0.5180 -0.5773
vn -0.6312 0.5180 0.5773
vn -0.7201 -0.3849 -0.5774
vn -0.7201 -0.3849 0.5774
vn -0.3849 0.7201 -0.5773
vn -0.3849 0.7201 0.5773
vn -0.8126 -0.0800 -0.5773
vn -0.8126 -0.0800 0.5773
vn -0.0800 0.8126 -0.5774
vn -0.0800 0.8126 0.5774
vn -0.7813 0.2370 -0.5773
vn 0.2370 0.7813 -0.5774
vn 0.2370 0.7813 0.5774
vn 0.5180 0.6312 -0.5774
vn 0.5180 0.6312 0.5773
vn -0.3849 0.7201 0.5774
vn 0.7201 0.3849 -0.5773
vn 0.7201 0.3849 0.5773
vn 0.8126 0.0800 -0.5774
vn 0.8126 0.0800 0.5774
vn 0.2370 0.7813 -0.5773
vn 0.2370 0.7813 0.5773
vn 0.7813 -0.2370 -0.5774
vn 0.7813 -0.2370 0.5774
vn 0.5180 0.6312 -0.5773
vn 0.6312 -0.5180 -0.5773
vn 0.6312 -0.5180 0.5773
vn 0.7201 0.3849 -0.5774
vn 0.7201 0.3849 0.5774
vn 0.3849 -0.7201 -0.5773
vn 0.8126 0.0800 -0.5773
vn 0.8126 0.0800 0.5773
vn 0.7813 -0.2370 -0.5773
vn 0.7813 -0.2370 0.5773
vn -0.2370 -0.7813 -0.5774
vn -0.2370 -0.7813 0.5774
vn -0.5180 -0.6312 0.5774
vn -0.5180 -0.6312 -0.5774
vn -0.5773 -0.5774 0.5774
vn -0.5773 0.5774 0.5774
vn -0.5773 -0.5774 -0.5774
vn -0.5773 0.5774 -0.5774
vn 0.5774 -0.5774 0.5773
vn 0.5774 0.5774 0.5773
vn 0.5774 -0.5774 -0.5773
vn 0.5774 0.5774 -0.5773
vn -0.0000 -0.0000 1.0000
vn -0.0000 -0.0000 -1.0000
vn -0.7071 -0.7071 -0.0000
vn 0.8315 -0.5556 -0.0000
vn 0.2053 -0.6767 0.7071
vn 0.2053 -0.6767 -0.7071
vn -0.3827 -0.9239 -0.0000
vn 0.9808 -0.1951 -0.0000
vn 0.4486 -0.5466 0.7071
vn 0.4486 -0.5466 -0.7071
vn -0.0000 -1.0000 -0.0000
vn 0.9808 0.1951 -0.0000
vn 0.6236 -0.3333 0.7071
vn 0.6236 -0.3333 -0.7071
vn 0.3827 -0.9239 -0.0000
vn 0.8315 0.5556 -0.0000
vn 0.7037 -0.0693 0.7071
vn 0.7037 -0.0693 -0.7071
vn 0.7071 -0.7071 -0.0000
vn 0.5556 0.8315 -0.0000
vn 0.6767 0.2053 0.7071
vn 0.6767 0.2053 -0.7071
vn 0.9239 -0.3827 -0.0000
vn 0.1951 0.9808 -0.0000
vn 0.5466 0.4486 0.7071
vn 0.5466 0.4486 -0.7071
vn 1.0000 -0.0000 -0.0000
vn -0.1951 0.9808 -0.0000
vn 0.3333 0.6236 0.7071
vn 0.3333 0.6236 -0.7071
vn 0.9239 0.3827 -0.0000
vn -0.5556 0.8315 -0.0000
vn 0.0693 0.7037 0.7071
vn 0.0693 0.7037 -0.7071
vn 0.7071 0.7071 -0.0000
vn -0.8315 0.5556 -0.0000
vn -0.2053 0.6767 0.7071
vn -0.2053 0.6767 -0.7071
vn 0.3827 0.9239 -0.0000
vn -0.9808 0.1951 -0.0000
vn -0.4486 0.5466 0.7071
vn -0.4486 0.5466 -0.7071
vn -0.0000 1.0000 -0.0000
vn -0.9808 -0.1951 -0.0000
vn -0.6236 0.3333 0.7071
vn -0.6236 0.3333 -0.7071
vn -0.3827 0.9239 -0.0000
vn -0.8315 -0.5556 -0.0000
vn -0.7037 0.0693 0.7071
vn -0.7037 0.0693 -0.7071
vn -0.7071 0.7071 -0.0000
vn -0.5556 -0.8315 -0.0000
vn -0.6767 -0.2053 0.7071
vn -0.6767 -0.2053 -0.7071
vn -0.9239 0.3827 -0.0000
vn -0.1951 -0.9808 -0.0000
vn -0.5466 -0.4486 0.7071
vn -0.5466 -0.4486 -0.7071
vn -1.0000 -0.0000 -0.0000
vn 0.1951 -0.9808 -0.0000
vn -0.3333 -0.6236 0.7071
vn -0.3333 -0.6236 -0.7071
vn -0.9239 -0.3827 -0.0000
vn 0.5556 -0.8315 -0.0000
vn -0.0693 -0.7037 0.7071
vn -0.0693 -0.7037 -0.7071
vn 0.9569 -0.2903 -0.0000
vn -0.9569 0.2903 -0.0000
vn 0.7730 -0.6344 -0.0000
vn -0.7730 0.6344 -0.0000
vn 0.4714 -0.8819 -0.0000
vn -0.4714 0.8819 -0.0000
vn 0.0980 -0.9952 -0.0000
vn -0.0980 0.9952 -0.0000
vn -0.2903 -0.9569 -0.0000
vn 0.2903 0.9569 -0.0000
vn -0.6344 -0.7730 -0.0000
vn 0.6344 0.7730 -0.0000
vn -0.8819 -0.4714 -0.0000
vn 0.8819 0.4714 -0.0000
vn -0.9952 -0.0980 -0.0000
vn 0.9952 0.0980 -0.0000
vn -0.7071 -0.0000 0.7071
vn -0.7071 -0.0000 -0.7071
vn -0.0000 -0.7071 -0.7071
vn -0.0000 0.7071 -0.7071
vn 0.7071 -0.0000 -0.7071
vn 0.7071 -0.0000 0.7071
vn -0.0000 -0.7071 0.7071
vn -0.0000 0.7071 0.7071
vn -0.0980 -0.9952 -0.0000
vn 0.2903 -0.9569 -0.0000
vn 0.6344 -0.7730 -0.0000
vn 0.8819 -0.4714 -0.0000
vn 0.9952 -0.0980 -0.0000
vn 0.9569 0.2903 -0.0000
vn 0.7730 0.6344 -0.0000
vn 0.4714 0.8819 -0.0000
vn 0.0980 0.9952 -0.0000
vn -0.2903 0.9569 -0.0000
vn -0.6344 0.7730 -0.0000
vn -0.8819 0.4714 -0.0000
vn -0.9952 0.0980 -0.0000
vn -0.9569 -0.2903 -0.0000
vn -0.7730 -0.6344 -0.0000
vn -0.4714 -0.8819 -0.0000
vt 0.752654 0.489739
vt 0.749062 0.488668
vt 0.728227 0.505557
vt 0.759375 0.509125
vt 1.000000 1.000000
vt 0.987500 0.974500
vt 0.954222 0.956617
vt 0.997776 0.998564
vt 0.794168 0.485650
vt 0.796822 0.485388
vt 0.796386 0.483645
vt 0.294168 0.485650
vt 0.297389 0.484799
vt 0.343412 0.503680
vt 0.322019 0.485936
vt 0.841686 0.470572
vt 0.846030 0.494237
vt 0.846627 0.498145
vt 0.843608 0.470788
vt 0.341238 0.470040
vt 0.344196 0.470474
vt 0.341844 0.471731
vt 0.880985 0.450810
vt 0.883337 0.449553
vt 0.882267 0.448109
vt 0.380985 0.450810
vt 0.383221 0.449238
vt 0.420207 0.470043
vt 0.402946 0.451444
vt 0.918740 0.418870
vt 0.913258 0.447333
vt 0.917470 0.448720
vt 0.920974 0.418160
vt 0.418498 0.418375
vt 0.421397 0.417644
vt 0.419706 0.419706
vt 0.947861 0.385398
vt 0.949553 0.383337
vt 0.949553 0.383337
vt 0.948012 0.382412
vt 0.448284 0.384883
vt 0.448945 0.383453
vt 0.482903 0.409487
vt 0.469263 0.389170
vt 0.970136 0.341773
vt 0.954131 0.375853
vt 0.963770 0.374752
vt 0.972312 0.339930
vt 0.811487 0.998279
vt 0.812500 1.000000
vt 0.820462 0.967092
vt 0.806821 0.946776
vt 0.781250 0.500000
vt 0.766457 0.489841
vt 0.775756 0.486469
vt 0.781833 0.499302
vt 0.484808 0.298736
vt 0.484444 0.297542
vt 0.511005 0.329617
vt 0.500182 0.306981
vt 0.987699 0.250349
vt 0.971636 0.282161
vt 0.981000 0.278125
vt 0.989739 0.247346
vt 0.487321 0.250000
vt 0.489739 0.247346
vt 0.490000 0.250000
vt 0.489739 0.252654
vt 0.718750 0.500000
vt 0.707082 0.485159
vt 0.716297 0.479946
vt 0.485650 0.205832
vt 0.482760 0.203701
vt 0.496821 0.226127
vt 0.494139 0.214309
vt 0.969256 0.159181
vt 0.958101 0.184388
vt 0.961072 0.189725
vt 0.970474 0.155804
vt 0.469256 0.159181
vt 0.470474 0.155804
vt 0.471731 0.158156
vt 0.472505 0.160708
vt 0.950810 0.119015
vt 0.949553 0.116663
vt 0.947861 0.114602
vt 0.947325 0.118152
vt 0.450810 0.119015
vt 0.447325 0.118152
vt 0.459293 0.143637
vt 0.457304 0.131038
vt 0.917811 0.082189
vt 0.906164 0.109600
vt 0.908654 0.114783
vt 0.917644 0.078603
vt 0.417811 0.082189
vt 0.417644 0.078603
vt 0.419706 0.080294
vt 0.421397 0.082356
vt 0.885398 0.052139
vt 0.883337 0.050447
vt 0.882161 0.049819
vt 0.882271 0.052160
vt 0.384883 0.051716
vt 0.382220 0.052118
vt 0.396067 0.086689
vt 0.393858 0.072925
vt 0.840819 0.030745
vt 0.829355 0.059347
vt 0.831369 0.064709
vt 0.839292 0.027495
vt 0.562500 1.000000
vt 0.576467 0.951413
vt 0.569231 0.925149
vt 0.799374 0.015386
vt 0.796822 0.014612
vt 0.794168 0.014350
vt 0.796299 0.017240
vt 0.299374 0.015386
vt 0.296299 0.017240
vt 0.307193 0.047055
vt 0.305613 0.032814
vt 0.750000 0.012680
vt 0.738957 0.041281
vt 0.740625 0.047125
vt 0.747346 0.010261
vt 0.250000 0.012680
vt 0.247346 0.010261
vt 0.250000 0.010000
vt 0.252654 0.010261
vt 0.468750 0.500000
vt 0.455471 0.475731
vt 0.462932 0.467764
vt 0.205832 0.014350
vt 0.203701 0.017240
vt 0.214954 0.047665
vt 0.213137 0.032814
vt 0.659182 0.030745
vt 0.648320 0.058150
vt 0.649881 0.064709
vt 0.655804 0.029526
vt 0.159181 0.030745
vt 0.155804 0.029526
vt 0.158156 0.028269
vt 0.160708 0.027495
vt 0.406250 0.500000
vt 0.391771 0.477522
vt 0.398917 0.470927
vt 0.119015 0.049190
vt 0.118152 0.052675
vt 0.129766 0.082494
vt 0.127523 0.067306
vt 0.582189 0.082189
vt 0.570833 0.107388
vt 0.572596 0.114783
vt 0.578603 0.082356
vt 0.082189 0.082189
vt 0.078603 0.082356
vt 0.080294 0.080294
vt 0.082356 0.078603
vt 0.552139 0.114602
vt 0.550447 0.116663
vt 0.549190 0.119015
vt 0.552675 0.118152
vt 0.052139 0.114602
vt 0.052675 0.118152
vt 0.064184 0.146239
vt 0.061446 0.131038
vt 0.530126 0.158925
vt 0.514869 0.192608
vt 0.517480 0.200248
vt 0.527688 0.160070
vt 0.030745 0.159181
vt 0.027495 0.160708
vt 0.028269 0.158156
vt 0.029526 0.155804
vt 0.281250 0.500000
vt 0.267918 0.485159
vt 0.276607 0.482795
vt 0.015386 0.200626
vt 0.017240 0.203701
vt 0.027784 0.229196
vt 0.024610 0.214309
vt 0.512680 0.250000
vt 0.497114 0.269196
vt 0.500250 0.278125
vt 0.510261 0.252654
vt 0.012680 0.250000
vt 0.010261 0.252654
vt 0.010000 0.250000
vt 0.010261 0.247346
vt 0.218750 0.500000
vt 0.208543 0.489841
vt 0.220661 0.489674
vt 0.219614 0.499559
vt 0.014416 0.294831
vt 0.016167 0.297542
vt 0.033208 0.330316
vt 0.024818 0.306981
vt 0.528643 0.341773
vt 0.495074 0.374975
vt 0.511230 0.374752
vt 0.529212 0.343608
vt 0.029961 0.341238
vt 0.029526 0.344196
vt 0.028269 0.341844
vt 0.156250 0.500000
vt 0.150960 0.494167
vt 0.166326 0.496058
vt 0.157433 0.499776
vt 0.049190 0.380985
vt 0.051634 0.383395
vt 0.060244 0.408621
vt 0.054415 0.387712
vt 0.580650 0.418870
vt 0.542164 0.446829
vt 0.557530 0.448720
vt 0.581840 0.420974
vt 0.124792 0.998279
vt 0.125000 1.000000
vt 0.147765 0.970985
vt 0.141935 0.950076
vt 0.093750 0.500000
vt 0.094896 0.497478
vt 0.114180 0.500681
vt 0.095325 0.499921
vt 0.114602 0.447861
vt 0.117281 0.449165
vt 0.118210 0.470439
vt 0.115804 0.451445
vt 0.657093 0.470572
vt 0.602661 0.493874
vt 0.628373 0.498145
vt 0.660070 0.472312
vt 0.062651 0.998464
vt 0.062500 1.000000
vt 0.092283 0.973587
vt 0.089877 0.954592
vt 0.031250 0.500000
vt 0.039846 0.499269
vt 0.070994 0.502837
vt 0.033256 0.499972
vt 0.200626 0.484614
vt 0.204489 0.484774
vt 0.230009 0.503819
vt 0.196731 0.485936
vt 0.194582 0.486119
vt 0.194582 0.486119
vt 0.200626 0.484614
vt 0.700627 0.484614
vt 0.700627 0.484614
vt 0.703178 0.485388
vt 0.628373 0.498145
vt 0.660708 0.472505
vt 0.660708 0.472505
vt 0.158156 0.471731
vt 0.160708 0.472505
vt 0.160708 0.472505
vt 0.115517 0.452075
vt 0.115517 0.452075
vt 0.114602 0.447861
vt 0.614602 0.447861
vt 0.614602 0.447861
vt 0.616663 0.449553
vt 0.557530 0.448720
vt 0.557530 0.448720
vt 0.582356 0.421397
vt 0.582356 0.421397
vt 0.080294 0.419706
vt 0.082356 0.421397
vt 0.082356 0.421397
vt 0.055737 0.389170
vt 0.049190 0.380985
vt 0.549190 0.380985
vt 0.550447 0.383337
vt 0.511230 0.374752
vt 0.511230 0.374752
vt 0.529526 0.344196
vt 0.529526 0.344196
vt 0.028269 0.341844
vt 0.029526 0.344196
vt 0.029526 0.344196
vt 0.014350 0.294168
vt 0.024818 0.306981
vt 0.014350 0.294168
vt 0.514350 0.294168
vt 0.514350 0.294168
vt 0.514612 0.296822
vt 0.497000 0.287500
vt 0.497000 0.287500
vt 0.510261 0.252654
vt 0.010261 0.252654
vt 0.010261 0.252654
vt 0.015386 0.200626
vt 0.027943 0.218019
vt 0.027943 0.218019
vt 0.267918 0.485159
vt 0.517481 0.200248
vt 0.517480 0.200248
vt 0.527495 0.160708
vt 0.527495 0.160708
vt 0.027495 0.160708
vt 0.052139 0.114602
vt 0.065112 0.135830
vt 0.065112 0.135830
vt 0.052139 0.114602
vt 0.343750 0.500000
vt 0.329085 0.480833
vt 0.329085 0.480833
vt 0.570030 0.126280
vt 0.578603 0.082356
vt 0.578603 0.082356
vt 0.078603 0.082356
vt 0.078603 0.082356
vt 0.119015 0.049190
vt 0.131142 0.072925
vt 0.119015 0.049190
vt 0.619015 0.049190
vt 0.619015 0.049190
vt 0.616663 0.050447
vt 0.647123 0.076855
vt 0.647123 0.076855
vt 0.655804 0.029526
vt 0.655804 0.029526
vt 0.448533 0.951414
vt 0.437500 1.000000
vt 0.448533 0.951413
vt 0.205832 0.014350
vt 0.216457 0.038881
vt 0.216457 0.038881
vt 0.205832 0.014350
vt 0.455471 0.475731
vt 0.455471 0.475731
vt 0.737500 0.059500
vt 0.737500 0.059500
vt 0.747346 0.010261
vt 0.247346 0.010261
vt 0.299374 0.015386
vt 0.308543 0.038881
vt 0.308543 0.038881
vt 0.299374 0.015386
vt 0.799373 0.015386
vt 0.827877 0.076855
vt 0.827877 0.076855
vt 0.839292 0.027495
vt 0.839292 0.027495
vt 0.576467 0.951413
vt 0.385398 0.052139
vt 0.393857 0.072925
vt 0.385398 0.052139
vt 0.885398 0.052139
vt 0.885398 0.052139
vt 0.904970 0.126280
vt 0.904970 0.126280
vt 0.917644 0.078603
vt 0.450810 0.119015
vt 0.459888 0.135830
vt 0.459888 0.135830
vt 0.450810 0.119015
vt 0.950810 0.119015
vt 0.950810 0.119015
vt 0.949553 0.116663
vt 0.957520 0.200248
vt 0.957520 0.200248
vt 0.970474 0.155804
vt 0.701712 0.957908
vt 0.687500 1.000000
vt 0.701712 0.957908
vt 0.485650 0.205832
vt 0.497057 0.218019
vt 0.497057 0.218019
vt 0.985650 0.205832
vt 0.985650 0.205832
vt 0.985388 0.203178
vt 0.985389 0.203178
vt 0.978000 0.287500
vt 0.978000 0.287500
vt 0.989739 0.247346
vt 0.989739 0.247346
vt 0.762000 0.962500
vt 0.750000 1.000000
vt 0.762000 0.962500
vt 0.484614 0.299374
vt 0.500181 0.306981
vt 0.500182 0.306981
vt 0.484614 0.299374
vt 0.984614 0.299374
vt 0.984614 0.299374
vt 0.985388 0.296822
vt 0.985388 0.296822
vt 0.963769 0.374752
vt 0.963770 0.374752
vt 0.972505 0.339292
vt 0.972505 0.339292
vt 0.471731 0.341844
vt 0.472505 0.339292
vt 0.447861 0.385398
vt 0.469263 0.389170
vt 0.469263 0.389170
vt 0.447861 0.385398
vt 0.947861 0.385398
vt 0.917470 0.448720
vt 0.917470 0.448720
vt 0.921397 0.417644
vt 0.921397 0.417644
vt 0.877235 0.970985
vt 0.875000 1.000000
vt 0.877235 0.970985
vt 0.409482 0.452075
vt 0.409483 0.452075
vt 0.380985 0.450810
vt 0.880985 0.450810
vt 0.880985 0.450810
vt 0.846627 0.498144
vt 0.844196 0.470474
vt 0.844196 0.470474
vt 0.932717 0.973586
vt 0.937500 1.000000
vt 0.932717 0.973587
vt 0.252654 0.489739
vt 0.250000 0.490000
vt 0.294168 0.485650
vt 0.330418 0.486119
vt 0.330418 0.486119
vt 0.794168 0.485650
vt 0.794168 0.485650
vt 0.796822 0.485388
vt 0.762500 0.515500
vt 0.762500 0.515500
vt 0.194582 0.486119
vt 0.196597 0.485617
vt 0.201264 0.484808
vt 0.039846 0.499269
vt 0.037571 0.507846
vt 0.160708 0.472505
vt 0.660708 0.472505
vt 0.635819 0.491541
vt 0.649930 0.481052
vt 0.115212 0.450670
vt 0.115117 0.448284
vt 0.095104 0.506652
vt 0.082356 0.421397
vt 0.082356 0.421397
vt 0.563221 0.441467
vt 0.574080 0.430505
vt 0.156250 0.975000
vt 0.158021 0.975000
vt 0.158021 1.000000
vt 0.152282 0.501875
vt 0.156840 0.500000
vt 0.156256 0.517292
vt 0.185729 1.000000
vt 0.185729 0.975000
vt 0.193179 0.972364
vt 0.529526 0.344196
vt 0.516910 0.363783
vt 0.024818 0.306981
vt 0.021329 0.302710
vt 0.014416 0.294831
vt 0.208543 0.489841
vt 0.212536 0.501561
vt 0.010261 0.252654
vt 0.010261 0.252654
vt 0.500250 0.278125
vt 0.505841 0.264269
vt 0.027943 0.218019
vt 0.023758 0.212222
vt 0.015192 0.201264
vt 0.267918 0.485159
vt 0.272952 0.498439
vt 0.520178 0.189725
vt 0.524157 0.173888
vt 0.065112 0.135830
vt 0.060788 0.128754
vt 0.051716 0.115117
vt 0.329085 0.480833
vt 0.334564 0.495555
vt 0.078603 0.082356
vt 0.080294 0.080294
vt 0.578603 0.082356
vt 0.572596 0.114783
vt 0.575745 0.096997
vt 0.406250 0.975000
vt 0.408021 0.975000
vt 0.408021 1.000000
vt 0.395391 0.489392
vt 0.406840 0.500000
vt 0.403959 0.513131
vt 0.435729 1.000000
vt 0.435729 0.975000
vt 0.441178 0.967138
vt 0.655804 0.029526
vt 0.650801 0.060660
vt 0.468750 0.975000
vt 0.470521 0.975000
vt 0.470521 1.000000
vt 0.458791 0.488048
vt 0.469340 0.500000
vt 0.466759 0.512683
vt 0.498229 1.000000
vt 0.498229 0.975000
vt 0.504167 0.966833
vt 0.747346 0.010261
vt 0.741667 0.043000
vt 0.747346 0.010261
vt 0.531250 0.975000
vt 0.533021 0.975000
vt 0.533021 1.000000
vt 0.796822 0.014612
vt 0.799374 0.015386
vt 0.799374 0.015386
vt 0.561319 1.000000
vt 0.560729 0.975000
vt 0.569484 0.963207
vt 0.840143 0.027753
vt 0.827877 0.076855
vt 0.827877 0.076855
vt 0.593750 0.975000
vt 0.595521 0.975000
vt 0.595521 1.000000
vt 0.885398 0.052139
vt 0.885398 0.052139
vt 0.623819 1.000000
vt 0.623229 0.975000
vt 0.632368 0.964507
vt 0.918331 0.079167
vt 0.904971 0.126280
vt 0.904970 0.126280
vt 0.656250 0.975000
vt 0.658021 0.975000
vt 0.658021 1.000000
vt 0.950810 0.119015
vt 0.686319 1.000000
vt 0.685729 0.975000
vt 0.694606 0.966454
vt 0.970893 0.156588
vt 0.957519 0.200248
vt 0.957520 0.200248
vt 0.718750 0.975000
vt 0.720521 0.975000
vt 0.720521 1.000000
vt 0.985650 0.205832
vt 0.985650 0.205832
vt 0.748819 1.000000
vt 0.748229 0.975000
vt 0.756000 0.968750
vt 0.989826 0.248231
vt 0.978000 0.287500
vt 0.494992 0.304445
vt 0.984614 0.299374
vt 0.472505 0.339292
vt 0.972312 0.339930
vt 0.963769 0.374752
vt 0.966681 0.362932
vt 0.843750 0.975000
vt 0.845521 0.975000
vt 0.845521 1.000000
vt 0.949553 0.383337
vt 0.947861 0.385398
vt 0.873819 1.000000
vt 0.873229 0.975000
vt 0.876118 0.972993
vt 0.920834 0.418331
vt 0.917470 0.448720
vt 0.906250 0.975000
vt 0.908021 0.975000
vt 0.908021 1.000000
vt 0.880985 0.450810
vt 0.936319 1.000000
vt 0.935729 0.975000
vt 0.935109 0.974293
vt 0.843412 0.470893
vt 0.846627 0.498145
vt 0.846627 0.498144
vt 0.968750 0.975000
vt 0.970521 0.975000
vt 0.970521 1.000000
vt 0.794168 0.485650
vt 1.000000 0.525000
vt 0.998229 0.525000
vt 0.998229 0.500000
vt 0.990625 0.974625
vt 0.999410 1.000000
vt 0.995547 0.974875
vt 0.126029 0.724122
vt 0.126029 0.750000
vt 0.125000 0.724122
vt 0.603868 0.998971
vt 0.625000 0.998971
vt 0.603868 1.000000
vt 0.126029 0.525878
vt 0.125000 0.525878
vt 0.126029 0.500000
vt 0.625000 0.242060
vt 0.603868 0.251029
vt 0.603868 0.230591
vt 0.373971 0.724122
vt 0.390849 0.724122
vt 0.385051 0.750514
vt 0.625514 0.737575
vt 0.603868 0.751029
vt 0.603868 0.730591
vt 0.373971 0.525878
vt 0.385051 0.499486
vt 0.390849 0.525878
vt 0.625514 0.519151
vt 0.603868 0.525878
vt 0.603868 0.499228
vt 0.252654 0.489739
vt 0.250000 0.487321
vt 0.935750 0.503177
vt 0.935154 0.499269
vt 0.968042 0.499842
vt 0.904194 0.949928
vt 0.933923 0.997127
vt 0.885720 0.499328
vt 0.880104 0.497478
vt 0.906325 0.499552
vt 0.854221 0.946187
vt 0.872255 0.996927
vt 0.877235 0.970985
vt 0.833679 0.493066
vt 0.824040 0.494167
vt 0.844464 0.499117
vt 0.984614 0.299374
vt 0.982760 0.296299
vt 0.469256 0.340819
vt 0.747569 0.932318
vt 0.748523 0.996074
vt 0.985650 0.205832
vt 0.982761 0.203701
vt 0.984614 0.200626
vt 0.701712 0.957908
vt 0.689740 0.924300
vt 0.659955 0.470269
vt 0.645915 0.480833
vt 0.639735 0.954015
vt 0.628898 0.917172
vt 0.596592 0.465209
vt 0.583229 0.477522
vt 0.344196 0.029526
vt 0.340819 0.030745
vt 0.339292 0.027495
vt 0.531769 0.462931
vt 0.519529 0.475731
vt 0.512500 0.950500
vt 0.500826 0.909622
vt 0.705832 0.014350
vt 0.703701 0.017240
vt 0.700626 0.015386
vt 0.448533 0.951414
vt 0.435707 0.910350
vt 0.619015 0.049190
vt 0.618152 0.052675
vt 0.614602 0.052139
vt 0.385265 0.954015
vt 0.371478 0.914091
vt 0.340330 0.473891
vt 0.323288 0.957908
vt 0.309222 0.920275
vt 0.515386 0.200626
vt 0.517240 0.203701
vt 0.514350 0.205832
vt 0.263000 0.962500
vt 0.249726 0.927960
vt 0.514350 0.294168
vt 0.517240 0.296299
vt 0.193353 0.935978
vt 0.186535 0.996074
vt 0.204538 0.967092
vt 0.549190 0.380985
vt 0.552675 0.381848
vt 0.614602 0.447861
vt 0.618152 0.447325
vt 0.082356 0.421397
vt 0.082189 0.417811
vt 0.700626 0.484614
vt 0.703701 0.482760
vt 0.159181 0.469256
vt 0.987500 0.974500
vt 0.150960 0.494167
vt 0.208543 0.489841
vt 0.820462 0.967092
vt 0.875000 1.000000
vt 0.625000 1.000000
vt 0.625000 1.000000
vt 0.639735 0.954015
vt 0.343750 0.500000
vt 0.094896 0.497478
vt 0.937500 1.000000
vt 0.155804 0.029526
vt 0.039846 0.499269
vt 0.092283 0.973587
vt 0.092283 0.973587
vt 0.094896 0.497478
vt 0.147765 0.970985
vt 0.150960 0.494167
vt 0.204538 0.967092
vt 0.515386 0.200626
vt 0.323288 0.957908
vt 0.323288 0.957908
vt 0.552139 0.114602
vt 0.552139 0.114602
vt 0.385265 0.954015
vt 0.385265 0.954015
vt 0.391771 0.477522
vt 0.155804 0.029526
vt 0.705832 0.014350
vt 0.512500 0.950500
vt 0.512500 0.950500
vt 0.519529 0.475731
vt 0.583229 0.477522
vt 0.583229 0.477522
vt 0.639735 0.954015
vt 0.645915 0.480833
vt 0.645915 0.480833
vt 0.470474 0.155804
vt 0.470474 0.155804
vt 0.707082 0.485159
vt 0.707082 0.485159
vt 0.489739 0.247346
vt 0.489739 0.247346
vt 0.766457 0.489841
vt 0.766457 0.489841
vt 0.820462 0.967092
vt 0.824040 0.494167
vt 0.824040 0.494167
vt 0.421397 0.417644
vt 0.421397 0.417644
vt 0.880104 0.497478
vt 0.880104 0.497478
vt 0.344196 0.470474
vt 0.344196 0.470474
vt 0.935154 0.499269
vt 0.076506 0.974293
vt 0.092283 0.973587
vt 0.614602 0.447861
vt 0.135497 0.972993
vt 0.147765 0.970985
vt 0.185729 0.525000
vt 0.185729 0.500000
vt 0.187500 0.525000
vt 0.255614 0.968750
vt 0.317009 0.966454
vt 0.552139 0.114602
vt 0.379247 0.964507
vt 0.435729 0.525000
vt 0.435729 0.500000
vt 0.437500 0.525000
vt 0.498229 0.525000
vt 0.498229 0.500000
vt 0.500000 0.525000
vt 0.525389 0.500365
vt 0.533021 0.525000
vt 0.560729 0.525000
vt 0.533021 0.500000
vt 0.560729 0.500000
vt 0.562500 0.525000
vt 0.588490 0.501261
vt 0.595521 0.525000
vt 0.623229 0.525000
vt 0.595521 0.500000
vt 0.623229 0.500000
vt 0.625000 0.525000
vt 0.651083 0.502917
vt 0.658021 0.525000
vt 0.685729 0.525000
vt 0.658021 0.500000
vt 0.685729 0.500000
vt 0.687500 0.525000
vt 0.712916 0.505079
vt 0.720521 0.525000
vt 0.748229 0.525000
vt 0.720521 0.500000
vt 0.748229 0.500000
vt 0.750000 0.525000
vt 0.774739 0.507421
vt 0.815595 0.971046
vt 0.820462 0.967092
vt 0.833895 0.509583
vt 0.845521 0.525000
vt 0.873229 0.525000
vt 0.845521 0.500000
vt 0.873229 0.500000
vt 0.875000 0.525000
vt 0.893177 0.511239
vt 0.908021 0.525000
vt 0.935729 0.525000
vt 0.908021 0.500000
vt 0.935729 0.500000
vt 0.937500 0.525000
vt 0.951952 0.512135
vt 0.970521 0.525000
vt 0.970521 0.500000
vt 0.406250 0.500000
vt 0.119015 0.049190
vt 0.131142 0.072925
vt 0.155804 0.029526
vt 0.447861 0.385398
vt 0.469263 0.389170
vt 0.205832 0.014350
vt 0.216457 0.038881
vt 0.247346 0.010261
vt 0.380985 0.450810
vt 0.409482 0.452075
vt 0.299374 0.015386
vt 0.294168 0.485650
vt 0.330418 0.486119
vt 0.049190 0.380985
vt 0.055737 0.389170
vt 0.762500 0.515500
vt 0.029526 0.344196
vt 0.393858 0.072925
vt 0.450810 0.119015
vt 0.485650 0.205832
vt 0.396132 0.000000
vt 0.603868 0.000000
vt 0.603868 0.025878
vt 0.396132 0.025878
vt 0.625000 0.025878
vt 0.396132 0.251029
vt 0.396132 0.224122
vt 0.619015 0.049190
vt 0.339292 0.027495
vt 0.470474 0.155804
vt 0.489739 0.247346
vt 0.421397 0.417644
vt 0.344196 0.470474
vt 0.060729 0.525000
vt 0.033021 0.975000
vt 0.123229 0.525000
vt 0.095521 0.975000
vt 0.248229 0.525000
vt 0.220521 0.975000
vt 0.310729 0.525000
vt 0.283021 0.975000
vt 0.373229 0.525000
vt 0.345521 0.975000
vt 0.810729 0.525000
vt 0.783021 0.975000
vt 0.396132 0.998971
vt 0.873971 0.525878
vt 0.873971 0.724122
s 0
f 1/1/1 2/2/1 3/3/1 4/4/1
f 5/5/2 6/6/2 7/7/2 8/8/2
f 9/9/3 10/10/3 11/10/3 12/11/3
f 13/12/4 14/13/4 15/14/4 16/15/4
f 17/16/5 18/17/5 19/18/5 20/19/5
f 21/20/6 22/21/6 23/22/6 24/22/6
f 25/23/7 26/24/7 27/24/7 28/25/7
f 29/26/8 30/27/8 31/28/8 32/29/8
f 33/30/9 34/31/9 35/32/9 36/33/9
f 37/34/10 38/35/10 39/36/10 40/36/10
f 41/37/11 42/38/11 43/39/11 44/40/11
f 45/41/12 46/42/12 47/43/12 48/44/12
f 49/45/13 50/46/13 51/47/13 52/48/13
f 53/49/14 54/50/14 55/51/14 56/52/14
f 57/53/15 58/54/15 59/55/15 60/56/15
f 61/57/16 62/58/16 63/59/16 64/60/16
f 65/61/17 66/62/17 67/63/17 68/64/17
f 69/65/18 70/66/18 71/67/18 72/68/18
f 73/69/19 74/70/19 75/71/19 76/69/19
f 77/72/20 78/73/20 79/74/20 80/75/20
f 81/76/21 82/77/21 83/78/21 84/79/21
f 85/80/22 86/81/22 87/82/22 88/83/22
f 89/84/23 90/85/23 91/86/23 92/87/23
f 93/88/24 94/89/24 95/90/24 96/91/24
f 97/92/25 98/93/25 99/94/25 100/95/25
f 101/96/26 102/97/26 103/98/26 104/99/26
f 105/100/27 106/101/27 107/102/27 108/103/27
f 109/104/28 110/105/28 111/106/28 112/107/28
f 113/108/29 114/109/29 115/110/29 116/111/29
f 117/112/30 118/112/30 119/113/30 120/114/30
f 121/115/31 122/116/31 123/117/31 124/118/31
f 125/119/32 126/120/32 127/121/32 128/122/32
f 129/123/33 130/124/33 131/125/33 132/126/33
f 133/127/34 134/128/34 135/129/34 136/130/34
f 137/131/35 138/132/35 139/133/35 140/131/35
f 141/134/36 142/135/36 143/136/36 144/137/36
f 145/138/37 146/139/37 147/140/37 148/141/37
f 149/142/38 150/143/38 151/144/38 152/145/38
f 153/146/39 154/147/39 155/148/39 156/146/39
f 157/149/40 158/150/40 159/151/40 160/152/40
f 161/153/41 162/154/41 163/155/41 164/156/41
f 165/157/42 166/158/42 167/159/42 168/160/42
f 169/161/43 170/162/43 171/163/43 172/164/43
f 173/165/44 174/166/44 175/167/44 176/168/44
f 177/169/45 178/170/45 179/171/45 180/172/45
f 181/173/46 182/174/46 183/175/46 184/176/46
f 185/177/47 186/178/47 187/179/47 188/177/47
f 189/180/48 190/181/48 191/182/48 192/183/48
f 193/184/49 194/185/49 195/186/49 196/187/49
f 197/188/50 198/189/50 199/190/50 200/191/50
f 201/192/51 202/193/51 203/194/51 204/195/51
f 205/196/52 206/197/52 207/198/52 208/199/52
f 209/200/53 210/201/53 211/202/53 212/203/53
f 213/204/54 214/205/54 215/206/54 216/206/54
f 217/207/55 218/208/55 219/209/55 220/210/55
f 221/211/56 222/212/56 223/213/56 224/214/56
f 225/215/57 226/216/57 227/217/57 228/218/57
f 229/219/58 230/220/58 231/221/58 232/222/58
f 233/223/59 234/224/59 235/225/59 236/226/59
f 237/227/60 238/228/60 239/229/60 240/230/60
f 241/231/61 242/232/61 243/233/61 244/234/61
f 245/235/62 246/236/62 247/237/62 248/238/62
f 249/239/63 250/240/63 251/241/63 252/242/63
f 253/243/64 254/244/64 255/245/64 256/246/64
f 257/243/65 258/247/65 259/248/65 260/249/65
f 261/250/66 262/251/66 263/252/66 264/252/66
f 265/253/67 266/253/67 267/254/67 268/255/67
f 269/256/68 270/257/68 271/258/68 272/256/68
f 273/227/69 274/259/69 275/260/69 276/261/69
f 277/262/70 278/263/70 279/264/70 280/264/70
f 281/265/71 282/266/71 283/267/71 284/268/71
f 285/269/72 286/270/72 287/271/72 288/269/72
f 289/211/73 290/272/73 291/272/73 292/273/73
f 293/274/74 294/274/74 295/275/74 296/275/74
f 297/276/75 298/277/75 299/278/75 300/279/75
f 301/280/76 302/281/76 303/282/76 304/206/76
f 305/283/77 306/284/77 307/199/77 308/285/77
f 309/286/78 310/287/78 311/288/78 312/288/78
f 313/289/79 314/290/79 315/291/79 316/187/79
f 317/190/80 318/292/80 319/293/80 320/190/80
f 321/294/81 322/295/81 323/296/81 324/180/81
f 325/177/82 326/177/82 327/178/82 328/297/82
f 329/298/83 330/299/83 331/300/83 332/301/83
f 333/175/84 334/302/84 335/174/84 336/175/84
f 337/303/85 338/304/85 339/305/85 340/306/85
f 341/307/86 342/307/86 343/308/86 344/309/86
f 345/310/87 346/310/87 347/311/87 348/312/87
f 349/159/88 350/313/88 351/314/88 352/159/88
f 353/315/89 354/316/89 355/316/89 356/317/89
f 357/318/90 358/319/90 359/320/90 360/320/90
f 361/321/91 362/322/91 363/323/91 364/324/91
f 365/325/92 366/326/92 367/326/92 368/327/92
f 369/328/93 370/329/93 371/330/93 372/331/93
f 373/131/94 374/131/94 375/332/94 376/333/94
f 377/334/95 378/335/95 379/336/95 380/336/95
f 381/129/96 382/337/96 383/128/96 384/129/96
f 385/338/68 386/339/68 387/340/68 388/341/68
f 389/115/67 390/342/67 391/116/67 392/116/67
f 393/343/66 394/344/66 395/345/66 396/346/66
f 397/113/65 398/112/65 399/112/65 400/347/65
f 401/348/72 402/107/72 403/349/72 404/350/72
f 405/351/71 406/352/71 407/101/71 408/101/71
f 409/353/70 410/354/70 411/355/70 412/95/70
f 413/98/69 414/97/69 415/97/69 416/98/69
f 417/356/76 418/357/76 419/358/76 420/359/76
f 421/360/75 422/361/75 423/362/75 424/362/75
f 425/363/74 426/364/74 427/365/74 428/79/74
f 429/366/73 430/367/73 431/367/73 432/368/73
f 433/369/80 434/370/80 435/371/80 436/72/80
f 437/372/79 438/373/79 439/374/79 440/375/79
f 441/376/78 442/377/78 443/378/78 444/379/78
f 445/380/77 446/381/77 447/381/77 448/382/77
f 449/383/84 450/384/84 451/385/84 452/386/84
f 453/387/83 454/388/83 455/389/83 456/390/83
f 457/391/82 458/392/82 459/393/82 460/394/82
f 461/395/81 462/396/81 463/396/81 464/395/81
f 465/397/88 466/398/88 467/399/88 468/400/88
f 469/401/87 470/401/87 471/39/87 472/38/87
f 473/402/86 474/403/86 475/404/86 476/405/86
f 477/406/85 478/407/85 479/407/85 480/408/85
f 481/26/92 482/409/92 483/410/92 484/411/92
f 485/412/91 486/413/91 487/24/91 488/24/91
f 489/18/90 490/414/90 491/415/90 492/416/90
f 493/417/89 494/418/89 495/418/89 496/419/89
f 497/420/93 498/420/93 499/421/93 500/421/93
f 501/422/96 502/423/96 503/424/96 504/422/96
f 505/425/95 506/426/95 507/10/95 508/427/95
f 509/1/94 510/428/94 511/429/94 512/1/94
f 513/430/97 514/431/97 515/432/97
f 516/433/98 517/239/98 518/434/98
f 519/258/99 520/435/99 521/256/99
f 522/436/100 523/437/100 524/438/100
f 525/259/101 526/439/101 527/440/101
f 528/224/102 529/223/102 530/441/102
f 531/442/103 532/443/103 533/269/103
f 534/268/104 535/444/104 536/445/104
f 537/446/105 538/447/105 539/448/105
f 540/449/106 541/450/106 542/451/106
f 543/452/107 544/453/107 545/454/107
f 546/455/108 547/456/108 548/278/108
f 549/457/109 550/458/109 551/459/109
f 552/460/110 553/192/110 554/461/110
f 555/462/111 556/463/111 557/190/111
f 558/187/112 559/464/112 560/465/112
f 561/466/113 562/467/113 563/468/113
f 564/469/114 565/177/114 566/470/114
f 567/302/115 568/302/115 569/175/115
f 570/301/116 571/471/116 572/472/116
f 573/473/117 574/474/117 575/475/117
f 576/476/118 577/307/118 578/477/118
f 579/478/119 580/313/119 581/479/119
f 582/480/120 583/481/120 584/482/120
f 585/483/121 586/484/121 587/485/121
f 588/486/108 589/487/108 590/488/108
f 591/489/122 592/490/122 593/491/122
f 594/492/123 595/493/123 596/141/123
f 597/494/111 598/495/111 599/496/111
f 600/497/112 601/498/112 602/499/112
f 603/500/124 604/501/124 605/502/124
f 606/503/125 607/504/125 608/505/125
f 609/506/115 610/507/115 611/508/115
f 612/509/126 613/510/126 614/511/126
f 615/512/127 616/513/127 617/514/127
f 618/515/128 619/516/128 620/517/128
f 621/518/119 622/519/119 623/520/119
f 624/101/120 625/521/120 626/522/120
f 627/523/129 628/524/129 629/525/129
f 630/526/130 631/527/130 632/528/130
f 633/529/131 634/530/131 635/531/131
f 636/85/132 637/532/132 638/360/132
f 639/533/133 640/534/133 641/535/133
f 642/536/134 643/537/134 644/538/134
f 645/539/135 646/540/135 647/541/135
f 648/375/125 649/542/125 650/543/125
f 651/544/136 652/545/136 653/546/136
f 654/547/137 655/376/137 656/548/137
f 657/385/138 658/549/138 659/57/138
f 660/390/139 661/550/139 662/388/139
f 663/396/140 664/551/140 665/395/140
f 666/552/98 667/553/98 668/554/98
f 669/555/141 670/556/141 671/557/141
f 672/558/142 673/559/142 674/401/142
f 675/560/101 676/561/101 677/562/101
f 678/563/102 679/403/102 680/564/102
f 681/565/143 682/566/143 683/567/143
f 684/24/144 685/568/144 686/412/144
f 687/569/145 688/570/145 689/571/145
f 690/572/146 691/573/146 692/574/146
f 693/575/136 694/576/136 695/577/136
f 696/427/137 697/425/137 698/578/137
f 699/579/147 700/580/147 701/581/147
f 702/582/148 703/583/148 704/584/148
f 705/585/149 706/586/149 707/587/149
f 708/588/150 709/589/150 710/590/150
f 711/591/151 712/592/151 713/593/151
f 714/594/152 715/595/152 716/596/152
f 717/597/153 718/598/153 719/599/153
f 720/600/154 721/601/154 722/602/154
f 723/603/155 724/604/155 725/605/155
f 726/606/156 727/607/156 728/608/156
f 1/1/157 9/9/157 12/11/157 2/2/157
f 13/12/158 5/609/158 8/610/158 14/13/158
f 3/3/159 7/7/159 6/6/159 4/4/159
f 15/14/160 11/611/160 10/612/160 16/15/160
f 11/611/161 18/17/161 17/16/161 12/613/161
f 24/614/162 15/14/162 14/13/162 21/615/162
f 23/419/163 19/18/163 18/17/163 24/614/163
f 20/19/157 25/23/157 28/25/157 17/16/157
f 29/26/158 22/21/158 21/20/158 30/27/158
f 31/28/164 27/616/164 26/617/164 32/29/164
f 27/616/165 34/31/165 33/30/165 28/618/165
f 40/619/166 31/28/166 30/27/166 37/620/166
f 39/621/167 35/32/167 34/31/167 40/619/167
f 36/33/157 41/37/157 44/40/157 33/30/157
f 45/41/158 38/35/158 37/34/158 46/42/158
f 47/43/168 43/622/168 42/623/168 48/44/168
f 43/622/169 50/46/169 49/45/169 44/624/169
f 56/52/170 47/43/170 46/42/170 53/49/170
f 55/51/171 51/47/171 50/46/171 56/52/171
f 52/48/157 57/625/157 60/626/157 49/45/157
f 61/57/158 54/551/158 53/627/158 62/58/158
f 63/59/172 59/55/172 58/54/172 64/60/172
f 59/55/173 66/62/173 65/61/173 60/56/173
f 72/628/174 63/59/174 62/58/174 69/629/174
f 71/380/175 67/63/175 66/62/175 72/628/175
f 68/64/157 73/630/157 76/631/157 65/61/157
f 77/72/158 70/66/158 69/65/158 78/73/158
f 79/74/176 75/71/176 74/70/176 80/75/176
f 75/632/177 82/77/177 81/76/177 76/631/177
f 88/83/178 79/74/178 78/73/178 85/80/178
f 87/633/179 83/78/179 82/77/179 88/634/179
f 84/79/157 89/84/157 92/87/157 81/76/157
f 93/88/158 86/81/158 85/80/158 94/89/158
f 95/90/180 91/635/180 90/636/180 96/91/180
f 91/86/181 98/93/181 97/92/181 92/87/181
f 104/99/182 95/90/182 94/89/182 101/96/182
f 103/637/183 99/94/183 98/93/183 104/638/183
f 100/95/157 105/100/157 108/103/157 97/92/157
f 109/104/158 102/97/158 101/96/158 110/105/158
f 111/106/184 107/639/184 106/640/184 112/107/184
f 107/102/185 114/109/185 113/108/185 108/103/185
f 120/641/186 111/106/186 110/105/186 117/642/186
f 119/113/187 115/110/187 114/109/187 120/114/187
f 116/111/157 121/115/157 124/118/157 113/108/157
f 125/119/158 118/643/158 117/642/158 126/120/158
f 127/121/188 123/644/188 122/645/188 128/122/188
f 123/117/189 130/124/189 129/123/189 124/118/189
f 136/130/190 127/121/190 126/120/190 133/127/190
f 135/646/191 131/125/191 130/124/191 136/647/191
f 132/126/157 137/648/157 140/649/157 129/123/157
f 141/134/158 134/128/158 133/127/158 142/135/158
f 143/136/192 139/133/192 138/132/192 144/137/192
f 139/650/193 146/139/193 145/138/193 140/649/193
f 152/145/194 143/136/194 142/135/194 149/142/194
f 151/651/195 147/140/195 146/139/195 152/652/195
f 148/141/157 153/653/157 156/654/157 145/138/157
f 157/149/158 150/143/158 149/142/158 158/150/158
f 159/151/196 155/148/196 154/147/196 160/152/196
f 155/655/197 162/154/197 161/153/197 156/654/197
f 168/160/198 159/151/198 158/150/198 165/157/198
f 167/656/199 163/155/199 162/154/199 168/657/199
f 164/156/157 169/161/157 172/164/157 161/153/157
f 173/165/158 166/158/158 165/157/158 174/166/158
f 175/167/200 171/658/200 170/308/200 176/168/200
f 171/163/201 178/170/201 177/169/201 172/164/201
f 184/176/202 175/167/202 174/166/202 181/173/202
f 183/659/203 179/171/203 178/170/203 184/660/203
f 180/172/157 185/661/157 188/662/157 177/169/157
f 189/180/158 182/174/158 181/173/158 190/181/158
f 191/182/204 187/179/204 186/178/204 192/183/204
f 187/663/205 194/185/205 193/184/205 188/662/205
f 200/191/206 191/182/206 190/181/206 197/188/206
f 199/664/207 195/186/207 194/185/207 200/665/207
f 196/187/157 201/666/157 204/667/157 193/184/157
f 205/196/158 198/189/158 197/188/158 206/197/158
f 207/198/208 203/194/208 202/193/208 208/199/208
f 203/194/209 210/201/209 209/200/209 204/195/209
f 216/668/210 207/198/210 206/197/210 213/669/210
f 215/670/211 211/202/211 210/201/211 216/668/211
f 212/203/157 217/671/157 220/672/157 209/200/157
f 221/211/158 214/205/158 213/204/158 222/212/158
f 223/213/212 219/209/212 218/208/212 224/214/212
f 219/209/213 226/216/213 225/215/213 220/210/213
f 232/222/214 223/213/214 222/212/214 229/219/214
f 231/221/215 227/217/215 226/216/215 232/222/215
f 228/218/157 233/673/157 236/674/157 225/215/157
f 237/227/158 230/675/158 229/676/158 238/228/158
f 239/229/216 235/225/216 234/224/216 240/230/216
f 235/225/217 242/232/217 241/231/217 236/226/217
f 248/238/218 239/229/218 238/228/218 245/235/218
f 247/237/219 243/233/219 242/232/219 248/238/219
f 244/234/157 249/677/157 252/678/157 241/231/157
f 253/243/158 246/257/158 245/679/158 254/244/158
f 255/245/220 251/241/220 250/240/220 256/246/220
f 251/241/221 3/3/221 2/2/221 252/242/221
f 7/7/222 255/245/222 254/244/222 8/8/222
f 364/324/91 148/141/91 147/140/91 361/321/91
f 224/214/73 290/272/73 289/211/73 221/211/73
f 500/680/93 6/6/93 5/5/93 497/5/93
f 16/15/96 502/423/96 501/422/96 13/12/96
f 296/681/74 218/208/74 217/207/74 293/207/74
f 508/427/95 10/10/95 9/9/95 505/425/95
f 4/4/94 510/428/94 509/1/94 1/1/94
f 80/75/80 434/370/80 433/369/80 77/72/80
f 300/279/75 212/203/75 211/202/75 297/276/75
f 214/205/76 302/281/76 301/280/76 215/206/76
f 440/375/79 74/374/79 73/630/79 437/372/79
f 444/379/78 68/64/78 67/63/78 441/376/78
f 70/381/77 446/381/77 445/380/77 71/380/77
f 144/137/93 370/329/93 369/328/93 141/134/93
f 376/333/94 138/132/94 137/131/94 373/131/94
f 380/336/95 132/126/95 131/125/95 377/334/95
f 134/128/96 382/337/96 381/129/96 135/129/96
f 208/199/77 306/284/77 305/283/77 205/196/77
f 312/682/78 202/193/78 201/192/78 309/192/78
f 64/60/84 450/384/84 449/383/84 61/57/84
f 316/187/79 196/187/79 195/186/79 313/289/79
f 198/189/80 318/292/80 317/190/80 199/190/80
f 456/390/83 58/389/83 57/625/83 453/387/83
f 460/394/82 52/48/82 51/47/82 457/391/82
f 54/50/81 462/50/81 461/683/81 55/51/81
f 128/122/68 386/339/68 385/338/68 125/119/68
f 392/116/67 122/116/67 121/115/67 389/115/67
f 396/346/66 116/111/66 115/110/66 393/343/66
f 118/112/65 398/112/65 397/113/65 119/113/65
f 192/183/81 322/295/81 321/294/81 189/180/81
f 328/297/82 186/178/82 185/177/82 325/177/82
f 48/44/88 466/398/88 465/397/88 45/41/88
f 332/301/83 180/172/83 179/171/83 329/298/83
f 182/174/84 334/302/84 333/175/84 183/175/84
f 256/246/65 258/247/65 257/243/65 253/243/65
f 472/38/87 42/38/87 41/37/87 469/401/87
f 264/433/66 250/240/66 249/239/66 261/239/66
f 476/405/86 36/33/86 35/32/86 473/402/86
f 38/684/85 478/407/85 477/406/85 39/621/85
f 112/107/72 402/107/72 401/348/72 109/104/72
f 268/255/67 244/234/67 243/233/67 265/253/67
f 246/257/68 270/257/68 269/256/68 247/256/68
f 408/101/71 106/101/71 105/100/71 405/351/71
f 412/95/70 100/95/70 99/94/70 409/353/70
f 102/685/69 414/686/69 413/687/69 103/637/69
f 176/168/85 338/304/85 337/303/85 173/165/85
f 344/309/86 170/308/86 169/688/86 341/307/86
f 32/29/92 482/409/92 481/26/92 29/26/92
f 348/312/87 164/156/87 163/155/87 345/310/87
f 166/158/88 350/313/88 349/159/88 167/159/88
f 240/230/69 274/259/69 273/227/69 237/227/69
f 488/24/91 26/24/91 25/23/91 485/412/91
f 280/689/70 234/224/70 233/223/70 277/223/70
f 492/416/90 20/19/90 19/18/90 489/18/90
f 22/690/89 494/418/89 493/417/89 23/419/89
f 96/91/76 418/357/76 417/356/76 93/88/76
f 284/268/71 228/218/71 227/217/71 281/265/71
f 230/675/72 286/270/72 285/269/72 231/269/72
f 424/362/75 90/85/75 89/84/75 421/360/75
f 153/146/90 357/146/90 360/147/90 154/147/90
f 428/79/74 84/79/74 83/78/74 425/363/74
f 86/367/73 430/367/73 429/366/73 87/633/73
f 365/144/92 151/144/92 150/143/92 366/691/92
f 160/152/89 354/316/89 353/315/89 157/149/89
f 258/247/223 264/433/223 263/692/223 259/248/223
f 260/249/158 271/258/158 270/257/158 257/243/158
f 267/254/157 262/251/157 261/250/157 268/255/157
f 272/693/224 266/253/224 265/253/224 269/694/224
f 274/259/225 280/689/225 279/695/225 275/260/225
f 276/261/158 287/271/158 286/270/158 273/227/158
f 283/267/157 278/263/157 277/262/157 284/268/157
f 288/696/226 282/266/226 281/265/226 285/221/226
f 290/272/227 296/681/227 295/697/227 291/272/227
f 292/273/158 303/282/158 302/281/158 289/211/158
f 299/278/157 294/274/157 293/274/157 300/279/157
f 304/698/228 298/277/228 297/276/228 301/698/228
f 306/284/229 312/682/229 311/682/229 307/199/229
f 308/285/158 319/293/158 318/292/158 305/283/158
f 315/291/157 310/287/157 309/286/157 316/187/157
f 320/664/230 314/290/230 313/289/230 317/664/230
f 322/295/231 328/297/231 327/178/231 323/296/231
f 324/180/158 335/174/158 334/302/158 321/294/158
f 331/300/157 326/661/157 325/699/157 332/301/157
f 336/700/232 330/299/232 329/298/232 333/701/232
f 338/304/233 344/309/233 343/308/233 339/305/233
f 340/306/158 351/314/158 350/313/158 337/303/158
f 347/311/157 342/702/157 341/703/157 348/312/157
f 352/704/234 346/310/234 345/310/234 349/705/234
f 354/316/235 360/147/235 359/706/235 355/316/235
f 356/317/158 367/707/158 366/691/158 353/315/158
f 363/323/157 358/319/157 357/318/157 364/324/157
f 368/327/236 362/322/236 361/321/236 365/325/236
f 370/329/237 376/333/237 375/332/237 371/330/237
f 372/331/158 383/128/158 382/337/158 369/328/158
f 379/336/157 374/648/157 373/708/157 380/336/157
f 384/709/238 378/335/238 377/334/238 381/710/238
f 386/339/224 392/711/224 391/711/224 387/340/224
f 388/341/158 399/643/158 398/643/158 385/338/158
f 395/345/157 390/342/157 389/115/157 396/346/157
f 400/347/223 394/344/223 393/343/223 397/113/223
f 402/107/226 408/712/226 407/713/226 403/349/226
f 404/350/158 415/97/158 414/97/158 401/348/158
f 411/355/157 406/352/157 405/351/157 412/95/157
f 416/714/225 410/354/225 409/353/225 413/687/225
f 418/357/228 424/715/228 423/716/228 419/358/228
f 420/359/158 431/717/158 430/718/158 417/356/158
f 427/365/157 422/361/157 421/360/157 428/79/157
f 432/368/227 426/364/227 425/363/227 429/366/227
f 434/370/230 440/719/230 439/720/230 435/371/230
f 436/72/158 447/721/158 446/722/158 433/369/158
f 443/378/157 438/373/157 437/372/157 444/379/157
f 448/382/229 442/377/229 441/376/229 445/380/229
f 450/384/232 456/723/232 455/724/232 451/385/232
f 452/386/158 463/396/158 462/396/158 449/383/158
f 459/393/157 454/388/157 453/387/157 460/394/157
f 464/725/231 458/392/231 457/391/231 461/683/231
f 466/398/234 472/726/234 471/727/234 467/399/234
f 468/400/158 479/728/158 478/729/158 465/397/158
f 475/404/157 470/401/157 469/401/157 476/405/157
f 480/408/233 474/403/233 473/402/233 477/406/233
f 482/409/236 488/730/236 487/731/236 483/410/236
f 484/411/158 495/732/158 494/733/158 481/26/158
f 491/415/157 486/413/157 485/412/157 492/416/157
f 496/419/235 490/414/235 489/18/235 493/417/235
f 502/423/238 508/734/238 507/734/238 503/424/238
f 510/428/237 500/680/237 499/6/237 511/429/237
f 504/422/158 498/420/158 497/420/158 501/422/158
f 512/1/157 506/426/157 505/425/157 509/1/157
f 513/430/227 516/433/227 518/434/227 514/431/227
f 514/431/81 520/435/81 519/258/81 515/432/81
f 524/438/82 518/250/82 517/677/82 522/436/82
f 520/735/235 524/438/235 523/437/235 521/736/235
f 525/259/229 528/224/229 530/441/229 526/439/229
f 526/439/85 532/443/85 531/442/85 527/440/85
f 536/445/86 530/737/86 529/737/86 534/268/86
f 532/738/237 536/445/237 535/444/237 533/739/237
f 537/446/231 540/449/231 542/451/231 538/447/231
f 538/447/89 544/453/89 543/452/89 539/448/89
f 548/740/90 542/451/90 541/450/90 546/741/90
f 544/453/224 548/740/224 547/742/224 545/454/224
f 549/457/233 552/460/233 554/461/233 550/458/233
f 550/458/93 556/463/93 555/462/93 551/459/93
f 560/465/94 554/286/94 553/287/94 558/187/94
f 556/743/226 560/465/226 559/464/226 557/664/226
f 561/466/235 564/469/235 566/470/235 562/467/235
f 562/467/68 568/302/68 567/302/68 563/468/68
f 572/472/67 566/699/67 565/699/67 570/301/67
f 568/744/228 572/472/228 571/471/228 569/701/228
f 573/473/237 576/476/237 578/477/237 574/474/237
f 574/474/72 580/313/72 579/478/72 575/475/72
f 584/482/71 578/745/71 577/161/71 582/480/71
f 580/746/230 584/482/230 583/481/230 581/705/230
f 585/483/224 588/486/224 590/488/224 586/484/224
f 586/484/76 592/490/76 591/489/76 587/485/76
f 596/747/75 590/488/75 589/487/75 594/748/75
f 592/490/232 596/747/232 595/749/232 593/491/232
f 597/494/226 600/497/226 602/499/226 598/495/226
f 598/495/80 604/501/80 603/500/80 599/496/80
f 608/750/79 602/499/79 601/498/79 606/751/79
f 604/501/234 608/750/234 607/752/234 605/502/234
f 609/506/228 612/753/228 614/754/228 610/507/228
f 610/507/84 616/513/84 615/512/84 611/508/84
f 620/755/83 614/754/83 613/756/83 618/757/83
f 616/513/236 620/755/236 619/758/236 617/514/236
f 621/518/230 624/759/230 626/760/230 622/519/230
f 622/519/88 628/524/88 627/523/88 623/520/88
f 632/761/87 626/760/87 625/762/87 630/763/87
f 628/524/238 632/761/238 631/764/238 629/525/238
f 633/529/232 636/765/232 638/766/232 634/530/232
f 634/530/92 640/534/92 639/533/92 635/531/92
f 644/767/91 638/766/91 637/768/91 642/769/91
f 640/534/223 644/767/223 643/770/223 641/535/223
f 645/539/234 648/771/234 650/772/234 646/540/234
f 646/540/96 652/545/96 651/544/96 647/541/96
f 656/773/95 650/772/95 649/774/95 654/775/95
f 652/545/225 656/773/225 655/776/225 653/546/225
f 657/385/236 660/723/236 662/777/236 658/549/236
f 658/549/65 664/551/65 663/396/65 659/57/65
f 668/554/66 662/388/66 661/550/66 666/552/66
f 664/778/227 668/554/227 667/553/227 665/779/227
f 669/555/238 672/780/238 674/781/238 670/556/238
f 670/556/69 676/561/69 675/560/69 671/557/69
f 680/782/70 674/781/70 673/783/70 678/784/70
f 676/561/229 680/782/229 679/785/229 677/562/229
f 681/565/223 684/786/223 686/787/223 682/566/223
f 682/566/73 688/570/73 687/569/73 683/567/73
f 692/788/74 686/787/74 685/789/74 690/790/74
f 688/570/231 692/788/231 691/791/231 689/571/231
f 693/575/225 696/792/225 698/793/225 694/576/225
f 699/579/233 702/582/233 704/584/233 700/580/233
f 694/576/77 704/584/77 703/583/77 695/577/77
f 700/580/78 698/793/78 697/794/78 701/581/78
f 447/381/77 651/544/77 653/546/77 448/382/77
f 654/547/78 443/378/78 442/377/78 655/376/78
f 339/305/85 573/473/85 575/475/85 340/306/85
f 581/479/88 352/159/88 351/314/88 579/478/88
f 454/388/83 661/550/83 660/390/83 455/389/83
f 659/57/84 452/386/84 451/385/84 657/385/84
f 346/310/87 583/481/87 582/480/87 347/311/87
f 576/476/86 343/308/86 342/307/86 577/307/86
f 665/779/81 464/725/81 463/50/81 663/50/81
f 458/392/82 667/553/82 666/552/82 459/393/82
f 358/795/90 589/487/90 588/486/90 359/706/90
f 587/796/89 356/317/89 355/316/89 585/797/89
f 593/144/92 368/144/92 367/707/92 591/798/92
f 470/401/87 673/559/87 672/558/87 471/39/87
f 671/799/88 468/400/88 467/399/88 669/800/88
f 362/322/91 595/493/91 594/492/91 363/323/91
f 262/239/66 517/239/66 516/433/66 263/692/66
f 515/432/65 260/249/65 259/248/65 513/430/65
f 677/562/85 480/408/85 479/407/85 675/560/85
f 521/256/68 272/256/68 271/258/68 519/258/68
f 474/403/86 679/403/86 678/563/86 475/404/86
f 374/131/94 601/498/94 600/497/94 375/332/94
f 599/801/93 372/331/93 371/330/93 597/802/93
f 266/253/67 523/437/67 522/436/67 267/254/67
f 605/129/96 384/129/96 383/128/96 603/803/96
f 486/413/91 685/568/91 684/24/91 487/24/91
f 683/804/92 484/411/92 483/410/92 681/805/92
f 378/335/95 607/504/95 606/503/95 379/336/95
f 278/223/70 529/223/70 528/224/70 279/695/70
f 527/440/69 276/261/69 275/260/69 525/259/69
f 689/571/89 496/419/89 495/418/89 687/569/89
f 533/269/72 288/269/72 287/271/72 531/442/72
f 490/414/90 691/573/90 690/572/90 491/415/90
f 390/342/67 613/510/67 612/509/67 391/116/67
f 611/806/68 388/341/68 387/340/68 609/339/68
f 282/266/71 535/444/71 534/268/71 283/267/71
f 617/514/65 400/347/65 399/112/65 615/512/65
f 506/426/95 697/425/95 696/427/95 507/10/95
f 695/807/96 504/422/96 503/424/96 693/808/96
f 394/344/66 619/516/66 618/515/66 395/345/66
f 294/207/74 541/450/74 540/449/74 295/697/74
f 539/809/73 292/273/73 291/272/73 537/810/73
f 498/5/93 703/583/93 702/582/93 499/6/93
f 701/1/94 512/1/94 511/429/94 699/811/94
f 545/280/76 304/206/76 303/282/76 543/812/76
f 406/352/71 625/521/71 624/101/71 407/101/71
f 623/348/72 404/350/72 403/349/72 621/813/72
f 298/277/75 547/456/75 546/455/75 299/278/75
f 629/525/69 416/714/69 415/685/69 627/523/69
f 410/354/70 631/527/70 630/526/70 411/355/70
f 310/192/78 553/192/78 552/460/78 311/682/78
f 551/459/77 308/285/77 307/199/77 549/457/77
f 557/190/80 320/190/80 319/293/80 555/462/80
f 422/361/75 637/532/75 636/85/75 423/362/75
f 635/814/76 420/359/76 419/358/76 633/358/76
f 314/290/79 559/464/79 558/187/79 315/291/79
f 641/535/73 432/368/73 431/367/73 639/533/73
f 426/364/74 643/537/74 642/536/74 427/365/74
f 326/177/82 565/177/82 564/469/82 327/178/82
f 563/468/81 324/180/81 323/296/81 561/466/81
f 569/175/84 336/175/84 335/174/84 567/302/84
f 438/373/79 649/542/79 648/375/79 439/374/79
f 647/815/80 436/72/80 435/371/80 645/370/80
f 330/299/83 571/471/83 570/301/83 331/300/83
f 711/591/159 705/585/159 707/587/159 712/592/159
f 706/816/239 708/817/239 710/818/239 707/819/239
f 709/820/207 714/594/207 716/596/207 710/818/207
f 715/595/240 713/821/240 712/822/240 716/596/240
f 723/603/241 711/591/241 713/593/241 724/604/241
f 714/594/242 726/606/242 728/608/242 715/595/242
f 727/607/243 725/605/243 724/604/243 728/608/243
f 717/597/175 723/603/175 725/605/175 718/598/175
f 726/606/191 720/600/191 722/602/191 727/607/191
f 721/601/244 719/599/244 718/598/244 722/602/244
f 705/585/245 717/597/245 719/599/245 706/586/245
f 720/600/246 709/589/246 708/588/246 721/601/246
f 9/9/157 1/1/157 509/1/157 505/425/157
f 2/2/157 12/11/157 17/16/157 28/25/157 33/30/157 44/40/157 49/45/157 60/626/157 65/61/157 76/631/157 81/76/157 92/87/157 97/92/157 108/103/157 113/108/157 124/118/157 129/123/157 140/649/157 145/138/157 156/654/157 161/153/157 172/164/157 177/169/157 188/662/157 193/184/157 204/667/157 209/200/157 220/672/157 225/215/157 236/674/157 241/231/157 252/678/157
f 4/4/237 6/6/237 500/680/237 510/428/237
f 7/7/247 3/3/247 251/241/247 255/245/247
f 5/609/158 13/12/158 501/422/158 497/420/158
f 14/13/158 8/610/158 254/244/158 245/679/158 238/228/158 229/676/158 222/212/158 213/204/158 206/197/158 197/188/158 190/181/158 181/173/158 174/166/158 165/157/158 158/150/158 149/142/158 142/135/158 133/127/158 126/120/158 117/642/158 110/105/158 101/96/158 94/89/158 85/80/158 78/73/158 69/65/158 62/58/158 53/627/158 46/42/158 37/34/158 30/27/158 21/20/158
f 18/17/248 11/611/248 15/14/248 24/614/248
f 16/15/238 10/612/238 508/734/238 502/423/238
f 25/23/157 20/19/157 492/416/157 485/412/157
f 19/18/235 23/419/235 493/417/235 489/18/235
f 22/21/158 29/26/158 481/26/158 494/733/158
f 32/29/236 26/617/236 488/730/236 482/409/236
f 27/616/249 31/28/249 40/619/249 34/31/249
f 35/32/233 39/621/233 477/406/233 473/402/233
f 41/37/157 36/33/157 476/405/157 469/401/157
f 38/35/158 45/41/158 465/397/158 478/729/158
f 48/44/234 42/623/234 472/726/234 466/398/234
f 43/622/250 47/43/250 56/52/250 50/46/250
f 51/47/231 55/51/231 461/683/231 457/391/231
f 57/625/157 52/48/157 460/394/157 453/387/157
f 54/551/158 61/57/158 449/383/158 462/396/158
f 59/55/251 63/59/251 72/628/251 66/62/251
f 64/60/232 58/54/232 456/723/232 450/384/232
f 67/63/229 71/380/229 445/380/229 441/376/229
f 73/630/157 68/64/157 444/379/157 437/372/157
f 70/66/158 77/72/158 433/369/158 446/722/158
f 75/71/252 79/74/252 88/634/252 82/77/252
f 80/75/230 74/70/230 440/719/230 434/370/230
f 89/84/157 84/79/157 428/79/157 421/360/157
f 83/78/227 87/633/227 429/366/227 425/363/227
f 86/81/158 93/88/158 417/356/158 430/718/158
f 96/91/228 90/636/228 424/715/228 418/357/228
f 98/93/253 91/635/253 95/90/253 104/638/253
f 99/94/225 103/637/225 413/687/225 409/353/225
f 105/100/157 100/95/157 412/95/157 405/351/157
f 102/97/158 109/104/158 401/348/158 414/97/158
f 107/639/254 111/106/254 120/114/254 114/109/254
f 112/107/226 106/640/226 408/712/226 402/107/226
f 115/110/223 119/113/223 397/113/223 393/343/223
f 121/115/157 116/111/157 396/346/157 389/115/157
f 118/643/158 125/119/158 385/338/158 398/643/158
f 123/644/255 127/121/255 136/647/255 130/124/255
f 128/122/224 122/645/224 392/711/224 386/339/224
f 131/125/238 135/646/238 381/710/238 377/334/238
f 137/648/157 132/126/157 380/336/157 373/708/157
f 134/128/158 141/134/158 369/328/158 382/337/158
f 139/133/256 143/136/256 152/652/256 146/139/256
f 144/137/237 138/132/237 376/333/237 370/329/237
f 147/140/236 151/651/236 365/325/236 361/321/236
f 153/653/157 148/141/157 364/324/157 357/318/157
f 150/143/158 157/149/158 353/315/158 366/691/158
f 162/154/257 155/148/257 159/151/257 168/657/257
f 160/152/235 154/147/235 360/147/235 354/316/235
f 169/161/157 164/156/157 348/312/157 341/703/157
f 163/155/234 167/656/234 349/705/234 345/310/234
f 166/158/158 173/165/158 337/303/158 350/313/158
f 176/168/233 170/308/233 344/309/233 338/304/233
f 171/658/258 175/167/258 184/660/258 178/170/258
f 179/171/232 183/659/232 333/701/232 329/298/232
f 185/661/157 180/172/157 332/301/157 325/699/157
f 182/174/158 189/180/158 321/294/158 334/302/158
f 187/179/259 191/182/259 200/665/259 194/185/259
f 192/183/231 186/178/231 328/297/231 322/295/231
f 195/186/230 199/664/230 317/664/230 313/289/230
f 201/666/157 196/187/157 316/187/157 309/286/157
f 198/189/158 205/196/158 305/283/158 318/292/158
f 208/199/229 202/193/229 312/682/229 306/284/229
f 203/194/260 207/198/260 216/668/260 210/201/260
f 211/202/228 215/670/228 301/698/228 297/276/228
f 217/671/157 212/203/157 300/279/157 293/274/157
f 214/205/158 221/211/158 289/211/158 302/281/158
f 219/209/261 223/213/261 232/222/261 226/216/261
f 224/214/227 218/208/227 296/681/227 290/272/227
f 233/673/157 228/218/157 284/268/157 277/262/157
f 227/217/226 231/221/226 285/221/226 281/265/226
f 230/675/158 237/227/158 273/227/158 286/270/158
f 240/230/225 234/224/225 280/689/225 274/259/225
f 242/232/262 235/225/262 239/229/262 248/238/262
f 243/233/224 247/237/224 269/694/224 265/253/224
f 249/677/157 244/234/157 268/255/157 261/250/157
f 246/257/158 253/243/158 257/243/158 270/257/158
f 256/246/223 250/240/223 264/433/223 258/247/223
f 271/258/158 260/249/158 515/432/158 519/258/158
f 259/248/223 263/692/223 516/433/223 513/430/223
f 262/251/157 267/254/157 522/436/157 517/677/157
f 266/253/224 272/693/224 521/736/224 523/437/224
f 287/271/158 276/261/158 527/440/158 531/442/158
f 275/260/225 279/695/225 528/224/225 525/259/225
f 278/263/157 283/267/157 534/268/157 529/737/157
f 282/266/226 288/696/226 533/739/226 535/444/226
f 291/272/227 295/697/227 540/449/227 537/810/227
f 303/282/158 292/273/158 539/809/158 543/812/158
f 294/274/157 299/278/157 546/455/157 541/274/157
f 298/277/228 304/698/228 545/454/228 547/456/228
f 319/293/158 308/285/158 551/459/158 555/462/158
f 307/199/229 311/682/229 552/460/229 549/457/229
f 310/287/157 315/291/157 558/187/157 553/287/157
f 314/290/230 320/664/230 557/664/230 559/464/230
f 335/174/158 324/180/158 563/468/158 567/302/158
f 323/296/231 327/178/231 564/469/231 561/466/231
f 326/661/157 331/300/157 570/301/157 565/699/157
f 330/299/232 336/700/232 569/701/232 571/471/232
f 351/314/158 340/306/158 575/475/158 579/478/158
f 339/305/233 343/308/233 576/476/233 573/473/233
f 342/702/157 347/311/157 582/480/157 577/161/157
f 346/310/234 352/704/234 581/705/234 583/481/234
f 367/707/158 356/317/158 587/796/158 591/798/158
f 355/316/235 359/706/235 588/486/235 585/797/235
f 358/319/157 363/323/157 594/492/157 589/823/157
f 362/322/236 368/327/236 593/491/236 595/493/236
f 383/128/158 372/331/158 599/801/158 603/803/158
f 371/330/237 375/332/237 600/497/237 597/802/237
f 374/648/157 379/336/157 606/503/157 601/648/157
f 378/335/238 384/709/238 605/502/238 607/504/238
f 399/643/158 388/341/158 611/806/158 615/824/158
f 387/340/224 391/711/224 612/753/224 609/339/224
f 390/342/157 395/345/157 618/515/157 613/510/157
f 394/344/223 400/347/223 617/514/223 619/516/223
f 415/97/158 404/350/158 623/348/158 627/97/158
f 403/349/226 407/713/226 624/759/226 621/813/226
f 406/352/157 411/355/157 630/526/157 625/521/157
f 410/354/225 416/714/225 629/525/225 631/527/225
f 431/717/158 420/359/158 635/814/158 639/825/158
f 419/358/228 423/716/228 636/765/228 633/358/228
f 422/361/157 427/365/157 642/536/157 637/532/157
f 426/364/227 432/368/227 641/535/227 643/537/227
f 435/371/230 439/720/230 648/771/230 645/370/230
f 447/721/158 436/72/158 647/815/158 651/826/158
f 438/373/157 443/378/157 654/547/157 649/542/157
f 442/377/229 448/382/229 653/546/229 655/376/229
f 451/385/232 455/724/232 660/723/232 657/385/232
f 463/396/158 452/386/158 659/57/158 663/396/158
f 454/388/157 459/393/157 666/552/157 661/550/157
f 458/392/231 464/725/231 665/779/231 667/553/231
f 479/728/158 468/400/158 671/799/158 675/827/158
f 467/399/234 471/727/234 672/780/234 669/800/234
f 470/401/157 475/404/157 678/563/157 673/559/157
f 474/403/233 480/408/233 677/562/233 679/403/233
f 495/732/158 484/411/158 683/804/158 687/828/158
f 483/410/236 487/731/236 684/786/236 681/805/236
f 486/413/157 491/415/157 690/572/157 685/568/157
f 490/414/235 496/419/235 689/571/235 691/573/235
f 498/420/158 504/422/158 695/807/158 703/609/158
f 511/429/237 499/6/237 702/582/237 699/811/237
f 503/424/238 507/734/238 696/792/238 693/808/238
f 506/426/157 512/1/157 701/1/157 697/425/157
f 524/829/231 520/735/231 514/830/231 518/434/231
f 536/831/233 532/738/233 526/832/233 530/441/233
f 548/740/235 544/453/235 538/447/235 542/451/235
f 560/833/237 556/743/237 550/834/237 554/461/237
f 572/835/224 568/744/224 562/836/224 566/470/224
f 584/837/226 580/746/226 574/838/226 578/477/226
f 596/747/228 592/490/228 586/484/228 590/488/228
f 608/750/230 604/501/230 598/495/230 602/499/230
f 620/755/232 616/513/232 610/507/232 614/754/232
f 632/761/234 628/524/234 622/519/234 626/760/234
f 644/767/236 640/534/236 634/530/236 638/766/236
f 656/773/238 652/545/238 646/540/238 650/772/238
f 668/839/223 664/778/223 658/840/223 662/777/223
f 680/782/225 676/561/225 670/556/225 674/781/225
f 692/788/227 688/570/227 682/566/227 686/787/227
f 700/580/229 704/584/229 694/576/229 698/793/229
f 711/591/167 723/603/167 717/597/167 705/585/167
f 707/819/215 710/818/215 716/596/215 712/822/215
f 719/599/157 721/601/157 708/588/157 706/841/157
f 726/606/199 714/842/199 709/843/199 720/600/199
f 713/821/158 715/595/158 728/608/158 724/604/158
f 725/605/183 727/607/183 722/602/183 718/598/183
