# Blender 5.0.1
# www.blender.org
o Cube
v 0.959272 -0.071288 -0.014232
v 0.959272 -0.071288 0.014232
v 0.959272 0.071288 -0.014232
v 0.959272 0.071288 0.014232
v 0.000000 -0.071288 -0.014232
v 0.000000 -0.071288 0.014232
v -0.000000 0.071288 -0.014232
v -0.000000 0.071288 0.014232
v 1.000000 -0.056142 -0.024748
v 0.989047 -0.055064 -0.024748
v 0.978515 -0.051869 -0.024748
v 0.968809 -0.046681 -0.024748
v 0.960301 -0.039699 -0.024748
v 0.953319 -0.031191 -0.024748
v 0.948131 -0.021485 -0.024748
v 0.944936 -0.010953 -0.024748
v 0.943858 -0.000000 -0.024748
v 0.944936 0.010953 -0.024748
v 0.948131 0.021485 -0.024748
v 0.953319 0.031191 -0.024748
v 0.960301 0.039699 -0.024748
v 0.968809 0.046681 -0.024748
v 0.978515 0.051869 -0.024748
v 0.989047 0.055064 -0.024748
v 1.000000 0.056142 -0.024748
v 1.010953 0.055064 -0.024748
v 1.021485 0.051869 -0.024748
v 1.031191 0.046681 -0.024748
v 1.039699 0.039699 -0.024748
v 1.046681 0.031191 -0.024748
v 1.051869 0.021485 -0.024748
v 1.055064 0.010953 -0.024748
v 1.056142 -0.000000 -0.024748
v 1.055064 -0.010953 -0.024748
v 1.051869 -0.021485 -0.024748
v 1.046681 -0.031191 -0.024748
v 1.039699 -0.039699 -0.024748
v 1.031191 -0.046681 -0.024748
v 1.021485 -0.051869 -0.024748
v 1.010953 -0.055064 -0.024748
v 1.000000 -0.085609 0.000000
v 0.983299 -0.083964 0.000000
v 0.967239 -0.079092 0.000000
v 0.952438 -0.071181 0.000000
v 0.939466 -0.060534 0.000000
v 0.928819 -0.047562 0.000000
v 0.920908 -0.032761 0.000000
v 0.916036 -0.016701 0.000000
v 0.914391 -0.000000 0.000000
v 0.916036 0.016701 -0.000000
v 0.920908 0.032761 -0.000000
v 0.928819 0.047562 -0.000000
v 0.939466 0.060534 -0.000000
v 0.952438 0.071181 -0.000000
v 0.967239 0.079092 -0.000000
v 0.983299 0.083964 -0.000000
v 1.000000 0.085609 -0.000000
v 1.016701 0.083964 -0.000000
v 1.032761 0.079092 -0.000000
v 1.047562 0.071181 -0.000000
v 1.060534 0.060534 -0.000000
v 1.071181 0.047562 -0.000000
v 1.079092 0.032761 -0.000000
v 1.083964 0.016701 -0.000000
v 1.085609 -0.000000 0.000000
v 1.083964 -0.016701 0.000000
v 1.079092 -0.032761 0.000000
v 1.071181 -0.047562 0.000000
v 1.060534 -0.060534 0.000000
v 1.047562 -0.071181 0.000000
v 1.032761 -0.079092 0.000000
v 1.016701 -0.083964 0.000000
v 0.983299 -0.083964 -0.024748
v 1.000000 -0.085609 -0.024748
v 0.967239 -0.079092 -0.024748
v 0.952438 -0.071181 -0.024748
v 0.939466 -0.060534 -0.024748
v 0.928819 -0.047562 -0.024748
v 0.920908 -0.032761 -0.024748
v 0.916036 -0.016701 -0.024748
v 0.914391 -0.000000 -0.024748
v 0.916036 0.016701 -0.024748
v 0.920908 0.032761 -0.024748
v 0.928819 0.047562 -0.024748
v 0.939466 0.060534 -0.024748
v 0.952438 0.071181 -0.024748
v 0.967239 0.079092 -0.024748
v 0.983299 0.083964 -0.024748
v 1.000000 0.085609 -0.024748
v 1.016701 0.083964 -0.024748
v 1.032761 0.079092 -0.024748
v 1.047562 0.071181 -0.024748
v 1.060534 0.060534 -0.024748
v 1.071181 0.047562 -0.024748
v 1.079092 0.032761 -0.024748
v 1.083964 0.016701 -0.024748
v 1.085609 -0.000000 -0.024748
v 1.083964 -0.016701 -0.024748
v 1.079092 -0.032761 -0.024748
v 1.071181 -0.047562 -0.024748
v 1.060534 -0.060534 -0.024748
v 1.047562 -0.071181 -0.024748
v 1.032761 -0.079092 -0.024748
v 1.016701 -0.083964 -0.024748
v 0.000000 0.000000 0.014232
v 0.929288 -0.000000 -0.014232
v -0.000000 -0.000000 -0.014232
v 0.929288 0.000000 0.014232
v 1.000000 -0.056142 0.000000
v 0.989047 -0.055064 0.000000
v 0.978515 -0.051869 0.000000
v 0.968809 -0.046681 0.000000
v 0.960301 -0.039699 0.000000
v 0.953319 -0.031191 0.000000
v 0.948131 -0.021485 0.000000
v 0.944936 -0.010953 0.000000
v 0.943858 -0.000000 0.000000
v 0.944936 0.010953 -0.000000
v 0.948131 0.021485 -0.000000
v 0.953319 0.031191 -0.000000
v 0.960301 0.039699 -0.000000
v 0.968809 0.046681 -0.000000
v 0.978515 0.051869 -0.000000
v 0.989047 0.055064 -0.000000
v 1.000000 0.056142 -0.000000
v 1.010953 0.055064 -0.000000
v 1.021485 0.051869 -0.000000
v 1.031191 0.046681 -0.000000
v 1.039699 0.039699 -0.000000
v 1.046681 0.031191 -0.000000
v 1.051869 0.021485 -0.000000
v 1.055064 0.010953 -0.000000
v 1.056142 -0.000000 0.000000
v 1.055064 -0.010953 0.000000
v 1.051869 -0.021485 0.000000
v 1.046681 -0.031191 0.000000
v 1.039699 -0.039699 0.000000
v 1.031191 -0.046681 0.000000
v 1.021485 -0.051869 0.000000
v 1.010953 -0.055064 0.000000
v -0.959272 -0.071288 -0.014232
v -0.959272 -0.071288 0.014232
v -0.959272 0.071288 -0.014232
v -0.959272 0.071288 0.014232
v -1.000000 -0.056142 -0.024748
v -0.989047 -0.055064 -0.024748
v -0.978515 -0.051869 -0.024748
v -0.968809 -0.046681 -0.024748
v -0.960301 -0.039699 -0.024748
v -0.953319 -0.031191 -0.024748
v -0.948131 -0.021485 -0.024748
v -0.944936 -0.010953 -0.024748
v -0.943858 -0.000000 -0.024748
v -0.944936 0.010953 -0.024748
v -0.948131 0.021485 -0.024748
v -0.953319 0.031191 -0.024748
v -0.960301 0.039699 -0.024748
v -0.968809 0.046681 -0.024748
v -0.978515 0.051869 -0.024748
v -0.989047 0.055064 -0.024748
v -1.000000 0.056142 -0.024748
v -1.010953 0.055064 -0.024748
v -1.021485 0.051869 -0.024748
v -1.031191 0.046681 -0.024748
v -1.039699 0.039699 -0.024748
v -1.046681 0.031191 -0.024748
v -1.051869 0.021485 -0.024748
v -1.055064 0.010953 -0.024748
v -1.056142 -0.000000 -0.024748
v -1.055064 -0.010953 -0.024748
v -1.051869 -0.021485 -0.024748
v -1.046681 -0.031191 -0.024748
v -1.039699 -0.039699 -0.024748
v -1.031191 -0.046681 -0.024748
v -1.021485 -0.051869 -0.024748
v -1.010953 -0.055064 -0.024748
v -1.000000 -0.085609 0.000000
v -0.983299 -0.083964 0.000000
v -0.967239 -0.079092 0.000000
v -0.952438 -0.071181 0.000000
v -0.939466 -0.060534 0.000000
v -0.928819 -0.047562 0.000000
v -0.920908 -0.032761 0.000000
v -0.916036 -0.016701 0.000000
v -0.914391 -0.000000 0.000000
v -0.916036 0.016701 -0.000000
v -0.920908 0.032761 -0.000000
v -0.928819 0.047562 -0.000000
v -0.939466 0.060534 -0.000000
v -0.952438 0.071181 -0.000000
v -0.967239 0.079092 -0.000000
v -0.983299 0.083964 -0.000000
v -1.000000 0.085609 -0.000000
v -1.016701 0.083964 -0.000000
v -1.032761 0.079092 -0.000000
v -1.047562 0.071181 -0.000000
v -1.060534 0.060534 -0.000000
v -1.071181 0.047562 -0.000000
v -1.079092 0.032761 -0.000000
v -1.083964 0.016701 -0.000000
v -1.085609 -0.000000 0.000000
v -1.083964 -0.016701 0.000000
v -1.079092 -0.032761 0.000000
v -1.071181 -0.047562 0.000000
v -1.060534 -0.060534 0.000000
v -1.047562 -0.071181 0.000000
v -1.032761 -0.079092 0.000000
v -1.016701 -0.083964 0.000000
v -0.983299 -0.083964 -0.024748
v -1.000000 -0.085609 -0.024748
v -0.967239 -0.079092 -0.024748
v -0.952438 -0.071181 -0.024748
v -0.939466 -0.060534 -0.024748
v -0.928819 -0.047562 -0.024748
v -0.920908 -0.032761 -0.024748
v -0.916036 -0.016701 -0.024748
v -0.914391 -0.000000 -0.024748
v -0.916036 0.016701 -0.024748
v -0.920908 0.032761 -0.024748
v -0.928819 0.047562 -0.024748
v -0.939466 0.060534 -0.024748
v -0.952438 0.071181 -0.024748
v -0.967239 0.079092 -0.024748
v -0.983299 0.083964 -0.024748
v -1.000000 0.085609 -0.024748
v -1.016701 0.083964 -0.024748
v -1.032761 0.079092 -0.024748
v -1.047562 0.071181 -0.024748
v -1.060534 0.060534 -0.024748
v -1.071181 0.047562 -0.024748
v -1.079092 0.032761 -0.024748
v -1.083964 0.016701 -0.024748
v -1.085609 -0.000000 -0.024748
v -1.083964 -0.016701 -0.024748
v -1.079092 -0.032761 -0.024748
v -1.071181 -0.047562 -0.024748
v -1.060534 -0.060534 -0.024748
v -1.047562 -0.071181 -0.024748
v -1.032761 -0.079092 -0.024748
v -1.016701 -0.083964 -0.024748
v -0.929288 -0.000000 -0.014232
v -0.929288 0.000000 0.014232
v -1.000000 -0.056142 0.000000
v -0.989047 -0.055064 0.000000
v -0.978515 -0.051869 0.000000
v -0.968809 -0.046681 0.000000
v -0.960301 -0.039699 0.000000
v -0.953319 -0.031191 0.000000
v -0.948131 -0.021485 0.000000
v -0.944936 -0.010953 0.000000
v -0.943858 -0.000000 0.000000
v -0.944936 0.010953 -0.000000
v -0.948131 0.021485 -0.000000
v -0.953319 0.031191 -0.000000
v -0.960301 0.039699 -0.000000
v -0.968809 0.046681 -0.000000
v -0.978515 0.051869 -0.000000
v -0.989047 0.055064 -0.000000
v -1.000000 0.056142 -0.000000
v -1.010953 0.055064 -0.000000
v -1.021485 0.051869 -0.000000
v -1.031191 0.046681 -0.000000
v -1.039699 0.039699 -0.000000
v -1.046681 0.031191 -0.000000
v -1.051869 0.021485 -0.000000
v -1.055064 0.010953 -0.000000
v -1.056142 -0.000000 0.000000
v -1.055064 -0.010953 0.000000
v -1.051869 -0.021485 0.000000
v -1.046681 -0.031191 0.000000
v -1.039699 -0.039699 0.000000
v -1.031191 -0.046681 0.000000
v -1.021485 -0.051869 0.000000
v -1.010953 -0.055064 0.000000
v 0.959272 -0.071288 0.014232
v 0.959272 -0.071288 -0.014232
v 0.959272 0.071288 0.014232
v 0.959272 0.071288 -0.014232
v 0.000000 -0.071288 0.014232
v 0.000000 -0.071288 -0.014232
v -0.000000 0.071288 0.014232
v -0.000000 0.071288 -0.014232
v 1.000000 -0.056142 0.024748
v 0.989047 -0.055064 0.024748
v 0.978515 -0.051869 0.024748
v 0.968809 -0.046681 0.024748
v 0.960301 -0.039699 0.024748
v 0.953319 -0.031191 0.024748
v 0.948131 -0.021485 0.024748
v 0.944936 -0.010953 0.024748
v 0.943858 -0.000000 0.024748
v 0.944936 0.010953 0.024748
v 0.948131 0.021485 0.024748
v 0.953319 0.031191 0.024748
v 0.960301 0.039699 0.024748
v 0.968809 0.046681 0.024748
v 0.978515 0.051869 0.024748
v 0.989047 0.055064 0.024748
v 1.000000 0.056142 0.024748
v 1.010953 0.055064 0.024748
v 1.021485 0.051869 0.024748
v 1.031191 0.046681 0.024748
v 1.039699 0.039699 0.024748
v 1.046681 0.031191 0.024748
v 1.051869 0.021485 0.024748
v 1.055064 0.010953 0.024748
v 1.056142 -0.000000 0.024748
v 1.055064 -0.010953 0.024748
v 1.051869 -0.021485 0.024748
v 1.046681 -0.031191 0.024748
v 1.039699 -0.039699 0.024748
v 1.031191 -0.046681 0.024748
v 1.021485 -0.051869 0.024748
v 1.010953 -0.055064 0.024748
v 0.983299 -0.083964 0.024748
v 1.000000 -0.085609 0.024748
v 0.967239 -0.079092 0.024748
v 0.952438 -0.071181 0.024748
v 0.939466 -0.060534 0.024748
v 0.928819 -0.047562 0.024748
v 0.920908 -0.032761 0.024748
v 0.916036 -0.016701 0.024748
v 0.914391 -0.000000 0.024748
v 0.916036 0.016701 0.024748
v 0.920908 0.032761 0.024748
v 0.928819 0.047562 0.024748
v 0.939466 0.060534 0.024748
v 0.952438 0.071181 0.024748
v 0.967239 0.079092 0.024748
v 0.983299 0.083964 0.024748
v 1.000000 0.085609 0.024748
v 1.016701 0.083964 0.024748
v 1.032761 0.079092 0.024748
v 1.047562 0.071181 0.024748
v 1.060534 0.060534 0.024748
v 1.071181 0.047562 0.024748
v 1.079092 0.032761 0.024748
v 1.083964 0.016701 0.024748
v 1.085609 -0.000000 0.024748
v 1.083964 -0.016701 0.024748
v 1.079092 -0.032761 0.024748
v 1.071181 -0.047562 0.024748
v 1.060534 -0.060534 0.024748
v 1.047562 -0.071181 0.024748
v 1.032761 -0.079092 0.024748
v 1.016701 -0.083964 0.024748
v -0.000000 -0.000000 -0.014232
v 0.929288 0.000000 0.014232
v 0.000000 0.000000 0.014232
v 0.929288 -0.000000 -0.014232
v -0.959272 -0.071288 0.014232
v -0.959272 -0.071288 -0.014232
v -0.959272 0.071288 0.014232
v -0.959272 0.071288 -0.014232
v -1.000000 -0.056142 0.024748
v -0.989047 -0.055064 0.024748
v -0.978515 -0.051869 0.024748
v -0.968809 -0.046681 0.024748
v -0.960301 -0.039699 0.024748
v -0.953319 -0.031191 0.024748
v -0.948131 -0.021485 0.024748
v -0.944936 -0.010953 0.024748
v -0.943858 -0.000000 0.024748
v -0.944936 0.010953 0.024748
v -0.948131 0.021485 0.024748
v -0.953319 0.031191 0.024748
v -0.960301 0.039699 0.024748
v -0.968809 0.046681 0.024748
v -0.978515 0.051869 0.024748
v -0.989047 0.055064 0.024748
v -1.000000 0.056142 0.024748
v -1.010953 0.055064 0.024748
v -1.021485 0.051869 0.024748
v -1.031191 0.046681 0.024748
v -1.039699 0.039699 0.024748
v -1.046681 0.031191 0.024748
v -1.051869 0.021485 0.024748
v -1.055064 0.010953 0.024748
v -1.056142 -0.000000 0.024748
v -1.055064 -0.010953 0.024748
v -1.051869 -0.021485 0.024748
v -1.046681 -0.031191 0.024748
v -1.039699 -0.039699 0.024748
v -1.031191 -0.046681 0.024748
v -1.021485 -0.051869 0.024748
v -1.010953 -0.055064 0.024748
v -0.983299 -0.083964 0.024748
v -1.000000 -0.085609 0.024748
v -0.967239 -0.079092 0.024748
v -0.952438 -0.071181 0.024748
v -0.939466 -0.060534 0.024748
v -0.928819 -0.047562 0.024748
v -0.920908 -0.032761 0.024748
v -0.916036 -0.016701 0.024748
v -0.914391 -0.000000 0.024748
v -0.916036 0.016701 0.024748
v -0.920908 0.032761 0.024748
v -0.928819 0.047562 0.024748
v -0.939466 0.060534 0.024748
v -0.952438 0.071181 0.024748
v -0.967239 0.079092 0.024748
v -0.983299 0.083964 0.024748
v -1.000000 0.085609 0.024748
v -1.016701 0.083964 0.024748
v -1.032761 0.079092 0.024748
v -1.047562 0.071181 0.024748
v -1.060534 0.060534 0.024748
v -1.071181 0.047562 0.024748
v -1.079092 0.032761 0.024748
v -1.083964 0.016701 0.024748
v -1.085609 -0.000000 0.024748
v -1.083964 -0.016701 0.024748
v -1.079092 -0.032761 0.024748
v -1.071181 -0.047562 0.024748
v -1.060534 -0.060534 0.024748
v -1.047562 -0.071181 0.024748
v -1.032761 -0.079092 0.024748
v -1.016701 -0.083964 0.024748
v -0.929288 0.000000 0.014232
v -0.929288 -0.000000 -0.014232
vn -0.0000 -0.0000 -1.0000
vn -0.0000 1.0000 -0.0000
vn -0.0000 -0.0000 1.0000
vn 0.9218 -0.3877 -0.0000
vn -0.0000 -1.0000 -0.0000
vn 0.1951 -0.9808 -0.0000
vn 0.5556 0.8315 -0.0000
vn 0.3827 0.9239 -0.0000
vn -0.9239 -0.3827 -0.0000
vn -0.8315 -0.5556 -0.0000
vn 0.7071 0.7071 -0.0000
vn -0.9808 -0.1951 -0.0000
vn 0.8315 0.5556 -0.0000
vn -1.0000 -0.0000 -0.0000
vn 0.9239 0.3827 -0.0000
vn -0.9808 0.1951 -0.0000
vn 0.9808 0.1951 -0.0000
vn -0.9239 0.3827 -0.0000
vn 1.0000 -0.0000 -0.0000
vn -0.8315 0.5556 -0.0000
vn 0.9808 -0.1951 -0.0000
vn -0.7071 0.7071 -0.0000
vn 0.9239 -0.3827 -0.0000
vn -0.5556 0.8315 -0.0000
vn 0.8315 -0.5556 -0.0000
vn -0.3827 0.9239 -0.0000
vn -0.1951 -0.9808 -0.0000
vn 0.7071 -0.7071 -0.0000
vn -0.1951 0.9808 -0.0000
vn -0.3827 -0.9239 -0.0000
vn 0.5556 -0.8315 -0.0000
vn -0.5556 -0.8315 -0.0000
vn 0.3827 -0.9239 -0.0000
vn 0.1951 0.9808 -0.0000
vn -0.7071 -0.7071 -0.0000
vn 0.9218 0.3877 -0.0000
vn -0.9218 -0.3877 -0.0000
vn -0.9218 0.3877 -0.0000
vt 0.625000 0.625000
vt 0.875000 0.625000
vt 0.875000 0.750000
vt 0.625000 0.750000
vt 0.375000 0.750000
vt 0.625000 1.000000
vt 0.375000 1.000000
vt 0.125000 0.625000
vt 0.375000 0.625000
vt 0.125000 0.750000
vt 0.375000 0.250000
vt 0.625000 0.250000
vt 0.625000 0.500000
vt 0.375000 0.500000
vt 0.000000 0.000000
vt 0.125000 0.500000
vt 0.875000 0.500000
s 1
f 106/1/1 107/2/1 7/3/1 3/4/1
f 4/5/2 3/4/2 7/6/2 8/7/2
f 105/8/3 108/9/3 4/5/3 8/10/3
f 108/9/4 106/1/4 3/4/4 4/5/4
f 6/11/5 5/12/5 1/13/5 2/14/5
f 74/15/5 104/15/6 72/15/6 41/15/5
f 92/15/7 91/15/8 59/15/8 60/15/7
f 79/15/9 78/15/10 46/15/10 47/15/9
f 93/15/11 92/15/7 60/15/7 61/15/11
f 80/15/12 79/15/9 47/15/9 48/15/12
f 94/15/13 93/15/11 61/15/11 62/15/13
f 81/15/14 80/15/12 48/15/12 49/15/14
f 95/15/15 94/15/13 62/15/13 63/15/15
f 82/15/16 81/15/14 49/15/14 50/15/16
f 96/15/17 95/15/15 63/15/15 64/15/17
f 83/15/18 82/15/16 50/15/16 51/15/18
f 97/15/19 96/15/17 64/15/17 65/15/19
f 84/15/20 83/15/18 51/15/18 52/15/20
f 98/15/21 97/15/19 65/15/19 66/15/21
f 85/15/22 84/15/20 52/15/20 53/15/22
f 99/15/23 98/15/21 66/15/21 67/15/23
f 86/15/24 85/15/22 53/15/22 54/15/24
f 100/15/25 99/15/23 67/15/23 68/15/25
f 87/15/26 86/15/24 54/15/24 55/15/26
f 73/15/27 74/15/5 41/15/5 42/15/27
f 101/15/28 100/15/25 68/15/25 69/15/28
f 88/15/29 87/15/26 55/15/26 56/15/29
f 75/15/30 73/15/27 42/15/27 43/15/30
f 102/15/31 101/15/28 69/15/28 70/15/31
f 89/15/2 88/15/29 56/15/29 57/15/2
f 76/15/32 75/15/30 43/15/30 44/15/32
f 103/15/33 102/15/31 70/15/31 71/15/33
f 90/15/34 89/15/2 57/15/2 58/15/34
f 77/15/35 76/15/32 44/15/32 45/15/35
f 104/15/6 103/15/33 71/15/33 72/15/6
f 91/15/8 90/15/34 58/15/34 59/15/8
f 78/15/10 77/15/35 45/15/35 46/15/10
f 33/15/14 34/15/16 134/15/16 133/15/14
f 10/15/1 9/15/1 74/15/1 73/15/1
f 11/15/1 10/15/1 73/15/1 75/15/1
f 12/15/1 11/15/1 75/15/1 76/15/1
f 13/15/1 12/15/1 76/15/1 77/15/1
f 14/15/1 13/15/1 77/15/1 78/15/1
f 15/15/1 14/15/1 78/15/1 79/15/1
f 16/15/1 15/15/1 79/15/1 80/15/1
f 17/15/1 16/15/1 80/15/1 81/15/1
f 18/15/1 17/15/1 81/15/1 82/15/1
f 19/15/1 18/15/1 82/15/1 83/15/1
f 20/15/1 19/15/1 83/15/1 84/15/1
f 21/15/1 20/15/1 84/15/1 85/15/1
f 22/15/1 21/15/1 85/15/1 86/15/1
f 23/15/1 22/15/1 86/15/1 87/15/1
f 24/15/1 23/15/1 87/15/1 88/15/1
f 25/15/1 24/15/1 88/15/1 89/15/1
f 26/15/1 25/15/1 89/15/1 90/15/1
f 27/15/1 26/15/1 90/15/1 91/15/1
f 28/15/1 27/15/1 91/15/1 92/15/1
f 29/15/1 28/15/1 92/15/1 93/15/1
f 30/15/1 29/15/1 93/15/1 94/15/1
f 31/15/1 30/15/1 94/15/1 95/15/1
f 32/15/1 31/15/1 95/15/1 96/15/1
f 33/15/1 32/15/1 96/15/1 97/15/1
f 34/15/1 33/15/1 97/15/1 98/15/1
f 35/15/1 34/15/1 98/15/1 99/15/1
f 36/15/1 35/15/1 99/15/1 100/15/1
f 37/15/1 36/15/1 100/15/1 101/15/1
f 38/15/1 37/15/1 101/15/1 102/15/1
f 39/15/1 38/15/1 102/15/1 103/15/1
f 40/15/1 39/15/1 103/15/1 104/15/1
f 9/15/1 40/15/1 104/15/1 74/15/1
f 2/14/36 1/13/36 106/1/36 108/9/36
f 6/16/3 2/14/3 108/9/3 105/8/3
f 1/13/1 5/17/1 107/2/1 106/1/1
f 20/15/25 21/15/28 121/15/28 120/15/25
f 34/15/16 35/15/18 135/15/18 134/15/16
f 21/15/28 22/15/31 122/15/31 121/15/28
f 35/15/18 36/15/20 136/15/20 135/15/18
f 22/15/31 23/15/33 123/15/33 122/15/31
f 9/15/2 10/15/34 110/15/34 109/15/2
f 36/15/20 37/15/22 137/15/22 136/15/20
f 23/15/33 24/15/6 124/15/6 123/15/33
f 10/15/34 11/15/8 111/15/8 110/15/34
f 37/15/22 38/15/24 138/15/24 137/15/22
f 24/15/6 25/15/5 125/15/5 124/15/6
f 11/15/8 12/15/7 112/15/7 111/15/8
f 38/15/24 39/15/26 139/15/26 138/15/24
f 25/15/5 26/15/27 126/15/27 125/15/5
f 12/15/7 13/15/11 113/15/11 112/15/7
f 39/15/26 40/15/29 140/15/29 139/15/26
f 26/15/27 27/15/30 127/15/30 126/15/27
f 13/15/11 14/15/13 114/15/13 113/15/11
f 40/15/29 9/15/2 109/15/2 140/15/29
f 27/15/30 28/15/32 128/15/32 127/15/30
f 14/15/13 15/15/15 115/15/15 114/15/13
f 28/15/32 29/15/35 129/15/35 128/15/32
f 15/15/15 16/15/17 116/15/17 115/15/15
f 29/15/35 30/15/10 130/15/10 129/15/35
f 16/15/17 17/15/19 117/15/19 116/15/17
f 30/15/10 31/15/9 131/15/9 130/15/10
f 17/15/19 18/15/21 118/15/21 117/15/19
f 31/15/9 32/15/12 132/15/12 131/15/9
f 18/15/21 19/15/23 119/15/23 118/15/21
f 32/15/12 33/15/14 133/15/14 132/15/12
f 19/15/23 20/15/25 120/15/25 119/15/23
f 241/1/1 143/4/1 7/3/1 107/2/1
f 144/5/2 8/7/2 7/6/2 143/4/2
f 105/8/3 8/10/3 144/5/3 242/9/3
f 242/9/37 144/5/37 143/4/37 241/1/37
f 6/11/5 142/14/5 141/13/5 5/12/5
f 210/15/5 177/15/5 208/15/27 240/15/27
f 228/15/24 196/15/24 195/15/26 227/15/26
f 215/15/23 183/15/23 182/15/25 214/15/25
f 229/15/22 197/15/22 196/15/24 228/15/24
f 216/15/21 184/15/21 183/15/23 215/15/23
f 230/15/20 198/15/20 197/15/22 229/15/22
f 217/15/19 185/15/19 184/15/21 216/15/21
f 231/15/18 199/15/18 198/15/20 230/15/20
f 218/15/17 186/15/17 185/15/19 217/15/19
f 232/15/16 200/15/16 199/15/18 231/15/18
f 219/15/15 187/15/15 186/15/17 218/15/17
f 233/15/14 201/15/14 200/15/16 232/15/16
f 220/15/13 188/15/13 187/15/15 219/15/15
f 234/15/12 202/15/12 201/15/14 233/15/14
f 221/15/11 189/15/11 188/15/13 220/15/13
f 235/15/9 203/15/9 202/15/12 234/15/12
f 222/15/7 190/15/7 189/15/11 221/15/11
f 236/15/10 204/15/10 203/15/9 235/15/9
f 223/15/8 191/15/8 190/15/7 222/15/7
f 209/15/6 178/15/6 177/15/5 210/15/5
f 237/15/35 205/15/35 204/15/10 236/15/10
f 224/15/34 192/15/34 191/15/8 223/15/8
f 211/15/33 179/15/33 178/15/6 209/15/6
f 238/15/32 206/15/32 205/15/35 237/15/35
f 225/15/2 193/15/2 192/15/34 224/15/34
f 212/15/31 180/15/31 179/15/33 211/15/33
f 239/15/30 207/15/30 206/15/32 238/15/32
f 226/15/29 194/15/29 193/15/2 225/15/2
f 213/15/28 181/15/28 180/15/31 212/15/31
f 240/15/27 208/15/27 207/15/30 239/15/30
f 227/15/26 195/15/26 194/15/29 226/15/29
f 214/15/25 182/15/25 181/15/28 213/15/28
f 169/15/19 267/15/19 268/15/17 170/15/17
f 146/15/1 209/15/1 210/15/1 145/15/1
f 147/15/1 211/15/1 209/15/1 146/15/1
f 148/15/1 212/15/1 211/15/1 147/15/1
f 149/15/1 213/15/1 212/15/1 148/15/1
f 150/15/1 214/15/1 213/15/1 149/15/1
f 151/15/1 215/15/1 214/15/1 150/15/1
f 152/15/1 216/15/1 215/15/1 151/15/1
f 153/15/1 217/15/1 216/15/1 152/15/1
f 154/15/1 218/15/1 217/15/1 153/15/1
f 155/15/1 219/15/1 218/15/1 154/15/1
f 156/15/1 220/15/1 219/15/1 155/15/1
f 157/15/1 221/15/1 220/15/1 156/15/1
f 158/15/1 222/15/1 221/15/1 157/15/1
f 159/15/1 223/15/1 222/15/1 158/15/1
f 160/15/1 224/15/1 223/15/1 159/15/1
f 161/15/1 225/15/1 224/15/1 160/15/1
f 162/15/1 226/15/1 225/15/1 161/15/1
f 163/15/1 227/15/1 226/15/1 162/15/1
f 164/15/1 228/15/1 227/15/1 163/15/1
f 165/15/1 229/15/1 228/15/1 164/15/1
f 166/15/1 230/15/1 229/15/1 165/15/1
f 167/15/1 231/15/1 230/15/1 166/15/1
f 168/15/1 232/15/1 231/15/1 167/15/1
f 169/15/1 233/15/1 232/15/1 168/15/1
f 170/15/1 234/15/1 233/15/1 169/15/1
f 171/15/1 235/15/1 234/15/1 170/15/1
f 172/15/1 236/15/1 235/15/1 171/15/1
f 173/15/1 237/15/1 236/15/1 172/15/1
f 174/15/1 238/15/1 237/15/1 173/15/1
f 175/15/1 239/15/1 238/15/1 174/15/1
f 176/15/1 240/15/1 239/15/1 175/15/1
f 145/15/1 210/15/1 240/15/1 176/15/1
f 142/14/38 242/9/38 241/1/38 141/13/38
f 6/16/3 105/8/3 242/9/3 142/14/3
f 141/13/1 241/1/1 107/2/1 5/17/1
f 156/15/10 254/15/10 255/15/35 157/15/35
f 170/15/17 268/15/17 269/15/15 171/15/15
f 157/15/35 255/15/35 256/15/32 158/15/32
f 171/15/15 269/15/15 270/15/13 172/15/13
f 158/15/32 256/15/32 257/15/30 159/15/30
f 145/15/2 243/15/2 244/15/29 146/15/29
f 172/15/13 270/15/13 271/15/11 173/15/11
f 159/15/30 257/15/30 258/15/27 160/15/27
f 146/15/29 244/15/29 245/15/26 147/15/26
f 173/15/11 271/15/11 272/15/7 174/15/7
f 160/15/27 258/15/27 259/15/5 161/15/5
f 147/15/26 245/15/26 246/15/24 148/15/24
f 174/15/7 272/15/7 273/15/8 175/15/8
f 161/15/5 259/15/5 260/15/6 162/15/6
f 148/15/24 246/15/24 247/15/22 149/15/22
f 175/15/8 273/15/8 274/15/34 176/15/34
f 162/15/6 260/15/6 261/15/33 163/15/33
f 149/15/22 247/15/22 248/15/20 150/15/20
f 176/15/34 274/15/34 243/15/2 145/15/2
f 163/15/33 261/15/33 262/15/31 164/15/31
f 150/15/20 248/15/20 249/15/18 151/15/18
f 164/15/31 262/15/31 263/15/28 165/15/28
f 151/15/18 249/15/18 250/15/16 152/15/16
f 165/15/28 263/15/28 264/15/25 166/15/25
f 152/15/16 250/15/16 251/15/14 153/15/14
f 166/15/25 264/15/25 265/15/23 167/15/23
f 153/15/14 251/15/14 252/15/12 154/15/12
f 167/15/23 265/15/23 266/15/21 168/15/21
f 154/15/12 252/15/12 253/15/9 155/15/9
f 168/15/21 266/15/21 267/15/19 169/15/19
f 155/15/9 253/15/9 254/15/10 156/15/10
f 348/1/3 277/4/3 281/3/3 349/2/3
f 278/5/2 282/7/2 281/6/2 277/4/2
f 347/8/1 282/10/1 278/5/1 350/9/1
f 350/9/4 278/5/4 277/4/4 348/1/4
f 280/11/5 276/14/5 275/13/5 279/12/5
f 316/15/5 41/15/5 72/15/6 346/15/6
f 334/15/7 60/15/7 59/15/8 333/15/8
f 321/15/9 47/15/9 46/15/10 320/15/10
f 335/15/11 61/15/11 60/15/7 334/15/7
f 322/15/12 48/15/12 47/15/9 321/15/9
f 336/15/13 62/15/13 61/15/11 335/15/11
f 323/15/14 49/15/14 48/15/12 322/15/12
f 337/15/15 63/15/15 62/15/13 336/15/13
f 324/15/16 50/15/16 49/15/14 323/15/14
f 338/15/17 64/15/17 63/15/15 337/15/15
f 325/15/18 51/15/18 50/15/16 324/15/16
f 339/15/19 65/15/19 64/15/17 338/15/17
f 326/15/20 52/15/20 51/15/18 325/15/18
f 340/15/21 66/15/21 65/15/19 339/15/19
f 327/15/22 53/15/22 52/15/20 326/15/20
f 341/15/23 67/15/23 66/15/21 340/15/21
f 328/15/24 54/15/24 53/15/22 327/15/22
f 342/15/25 68/15/25 67/15/23 341/15/23
f 329/15/26 55/15/26 54/15/24 328/15/24
f 315/15/27 42/15/27 41/15/5 316/15/5
f 343/15/28 69/15/28 68/15/25 342/15/25
f 330/15/29 56/15/29 55/15/26 329/15/26
f 317/15/30 43/15/30 42/15/27 315/15/27
f 344/15/31 70/15/31 69/15/28 343/15/28
f 331/15/2 57/15/2 56/15/29 330/15/29
f 318/15/32 44/15/32 43/15/30 317/15/30
f 345/15/33 71/15/33 70/15/31 344/15/31
f 332/15/34 58/15/34 57/15/2 331/15/2
f 319/15/35 45/15/35 44/15/32 318/15/32
f 346/15/6 72/15/6 71/15/33 345/15/33
f 333/15/8 59/15/8 58/15/34 332/15/34
f 320/15/10 46/15/10 45/15/35 319/15/35
f 307/15/14 133/15/14 134/15/16 308/15/16
f 284/15/3 315/15/3 316/15/3 283/15/3
f 285/15/3 317/15/3 315/15/3 284/15/3
f 286/15/3 318/15/3 317/15/3 285/15/3
f 287/15/3 319/15/3 318/15/3 286/15/3
f 288/15/3 320/15/3 319/15/3 287/15/3
f 289/15/3 321/15/3 320/15/3 288/15/3
f 290/15/3 322/15/3 321/15/3 289/15/3
f 291/15/3 323/15/3 322/15/3 290/15/3
f 292/15/3 324/15/3 323/15/3 291/15/3
f 293/15/3 325/15/3 324/15/3 292/15/3
f 294/15/3 326/15/3 325/15/3 293/15/3
f 295/15/3 327/15/3 326/15/3 294/15/3
f 296/15/3 328/15/3 327/15/3 295/15/3
f 297/15/3 329/15/3 328/15/3 296/15/3
f 298/15/3 330/15/3 329/15/3 297/15/3
f 299/15/3 331/15/3 330/15/3 298/15/3
f 300/15/3 332/15/3 331/15/3 299/15/3
f 301/15/3 333/15/3 332/15/3 300/15/3
f 302/15/3 334/15/3 333/15/3 301/15/3
f 303/15/3 335/15/3 334/15/3 302/15/3
f 304/15/3 336/15/3 335/15/3 303/15/3
f 305/15/3 337/15/3 336/15/3 304/15/3
f 306/15/3 338/15/3 337/15/3 305/15/3
f 307/15/3 339/15/3 338/15/3 306/15/3
f 308/15/3 340/15/3 339/15/3 307/15/3
f 309/15/3 341/15/3 340/15/3 308/15/3
f 310/15/3 342/15/3 341/15/3 309/15/3
f 311/15/3 343/15/3 342/15/3 310/15/3
f 312/15/3 344/15/3 343/15/3 311/15/3
f 313/15/3 345/15/3 344/15/3 312/15/3
f 314/15/3 346/15/3 345/15/3 313/15/3
f 283/15/3 316/15/3 346/15/3 314/15/3
f 276/14/36 350/9/36 348/1/36 275/13/36
f 280/16/1 347/8/1 350/9/1 276/14/1
f 275/13/3 348/1/3 349/2/3 279/17/3
f 294/15/25 120/15/25 121/15/28 295/15/28
f 308/15/16 134/15/16 135/15/18 309/15/18
f 295/15/28 121/15/28 122/15/31 296/15/31
f 309/15/18 135/15/18 136/15/20 310/15/20
f 296/15/31 122/15/31 123/15/33 297/15/33
f 283/15/2 109/15/2 110/15/34 284/15/34
f 310/15/20 136/15/20 137/15/22 311/15/22
f 297/15/33 123/15/33 124/15/6 298/15/6
f 284/15/34 110/15/34 111/15/8 285/15/8
f 311/15/22 137/15/22 138/15/24 312/15/24
f 298/15/6 124/15/6 125/15/5 299/15/5
f 285/15/8 111/15/8 112/15/7 286/15/7
f 312/15/24 138/15/24 139/15/26 313/15/26
f 299/15/5 125/15/5 126/15/27 300/15/27
f 286/15/7 112/15/7 113/15/11 287/15/11
f 313/15/26 139/15/26 140/15/29 314/15/29
f 300/15/27 126/15/27 127/15/30 301/15/30
f 287/15/11 113/15/11 114/15/13 288/15/13
f 314/15/29 140/15/29 109/15/2 283/15/2
f 301/15/30 127/15/30 128/15/32 302/15/32
f 288/15/13 114/15/13 115/15/15 289/15/15
f 302/15/32 128/15/32 129/15/35 303/15/35
f 289/15/15 115/15/15 116/15/17 290/15/17
f 303/15/35 129/15/35 130/15/10 304/15/10
f 290/15/17 116/15/17 117/15/19 291/15/19
f 304/15/10 130/15/10 131/15/9 305/15/9
f 291/15/19 117/15/19 118/15/21 292/15/21
f 305/15/9 131/15/9 132/15/12 306/15/12
f 292/15/21 118/15/21 119/15/23 293/15/23
f 306/15/12 132/15/12 133/15/14 307/15/14
f 293/15/23 119/15/23 120/15/25 294/15/25
f 419/1/3 349/2/3 281/3/3 353/4/3
f 354/5/2 353/4/2 281/6/2 282/7/2
f 347/8/1 420/9/1 354/5/1 282/10/1
f 420/9/37 419/1/37 353/4/37 354/5/37
f 280/11/5 279/12/5 351/13/5 352/14/5
f 388/15/5 418/15/27 208/15/27 177/15/5
f 406/15/24 405/15/26 195/15/26 196/15/24
f 393/15/23 392/15/25 182/15/25 183/15/23
f 407/15/22 406/15/24 196/15/24 197/15/22
f 394/15/21 393/15/23 183/15/23 184/15/21
f 408/15/20 407/15/22 197/15/22 198/15/20
f 395/15/19 394/15/21 184/15/21 185/15/19
f 409/15/18 408/15/20 198/15/20 199/15/18
f 396/15/17 395/15/19 185/15/19 186/15/17
f 410/15/16 409/15/18 199/15/18 200/15/16
f 397/15/15 396/15/17 186/15/17 187/15/15
f 411/15/14 410/15/16 200/15/16 201/15/14
f 398/15/13 397/15/15 187/15/15 188/15/13
f 412/15/12 411/15/14 201/15/14 202/15/12
f 399/15/11 398/15/13 188/15/13 189/15/11
f 413/15/9 412/15/12 202/15/12 203/15/9
f 400/15/7 399/15/11 189/15/11 190/15/7
f 414/15/10 413/15/9 203/15/9 204/15/10
f 401/15/8 400/15/7 190/15/7 191/15/8
f 387/15/6 388/15/5 177/15/5 178/15/6
f 415/15/35 414/15/10 204/15/10 205/15/35
f 402/15/34 401/15/8 191/15/8 192/15/34
f 389/15/33 387/15/6 178/15/6 179/15/33
f 416/15/32 415/15/35 205/15/35 206/15/32
f 403/15/2 402/15/34 192/15/34 193/15/2
f 390/15/31 389/15/33 179/15/33 180/15/31
f 417/15/30 416/15/32 206/15/32 207/15/30
f 404/15/29 403/15/2 193/15/2 194/15/29
f 391/15/28 390/15/31 180/15/31 181/15/28
f 418/15/27 417/15/30 207/15/30 208/15/27
f 405/15/26 404/15/29 194/15/29 195/15/26
f 392/15/25 391/15/28 181/15/28 182/15/25
f 379/15/19 380/15/17 268/15/17 267/15/19
f 356/15/3 355/15/3 388/15/3 387/15/3
f 357/15/3 356/15/3 387/15/3 389/15/3
f 358/15/3 357/15/3 389/15/3 390/15/3
f 359/15/3 358/15/3 390/15/3 391/15/3
f 360/15/3 359/15/3 391/15/3 392/15/3
f 361/15/3 360/15/3 392/15/3 393/15/3
f 362/15/3 361/15/3 393/15/3 394/15/3
f 363/15/3 362/15/3 394/15/3 395/15/3
f 364/15/3 363/15/3 395/15/3 396/15/3
f 365/15/3 364/15/3 396/15/3 397/15/3
f 366/15/3 365/15/3 397/15/3 398/15/3
f 367/15/3 366/15/3 398/15/3 399/15/3
f 368/15/3 367/15/3 399/15/3 400/15/3
f 369/15/3 368/15/3 400/15/3 401/15/3
f 370/15/3 369/15/3 401/15/3 402/15/3
f 371/15/3 370/15/3 402/15/3 403/15/3
f 372/15/3 371/15/3 403/15/3 404/15/3
f 373/15/3 372/15/3 404/15/3 405/15/3
f 374/15/3 373/15/3 405/15/3 406/15/3
f 375/15/3 374/15/3 406/15/3 407/15/3
f 376/15/3 375/15/3 407/15/3 408/15/3
f 377/15/3 376/15/3 408/15/3 409/15/3
f 378/15/3 377/15/3 409/15/3 410/15/3
f 379/15/3 378/15/3 410/15/3 411/15/3
f 380/15/3 379/15/3 411/15/3 412/15/3
f 381/15/3 380/15/3 412/15/3 413/15/3
f 382/15/3 381/15/3 413/15/3 414/15/3
f 383/15/3 382/15/3 414/15/3 415/15/3
f 384/15/3 383/15/3 415/15/3 416/15/3
f 385/15/3 384/15/3 416/15/3 417/15/3
f 386/15/3 385/15/3 417/15/3 418/15/3
f 355/15/3 386/15/3 418/15/3 388/15/3
f 352/14/38 351/13/38 419/1/38 420/9/38
f 280/16/1 352/14/1 420/9/1 347/8/1
f 351/13/3 279/17/3 349/2/3 419/1/3
f 366/15/10 367/15/35 255/15/35 254/15/10
f 380/15/17 381/15/15 269/15/15 268/15/17
f 367/15/35 368/15/32 256/15/32 255/15/35
f 381/15/15 382/15/13 270/15/13 269/15/15
f 368/15/32 369/15/30 257/15/30 256/15/32
f 355/15/2 356/15/29 244/15/29 243/15/2
f 382/15/13 383/15/11 271/15/11 270/15/13
f 369/15/30 370/15/27 258/15/27 257/15/30
f 356/15/29 357/15/26 245/15/26 244/15/29
f 383/15/11 384/15/7 272/15/7 271/15/11
f 370/15/27 371/15/5 259/15/5 258/15/27
f 357/15/26 358/15/24 246/15/24 245/15/26
f 384/15/7 385/15/8 273/15/8 272/15/7
f 371/15/5 372/15/6 260/15/6 259/15/5
f 358/15/24 359/15/22 247/15/22 246/15/24
f 385/15/8 386/15/34 274/15/34 273/15/8
f 372/15/6 373/15/33 261/15/33 260/15/6
f 359/15/22 360/15/20 248/15/20 247/15/22
f 386/15/34 355/15/2 243/15/2 274/15/34
f 373/15/33 374/15/31 262/15/31 261/15/33
f 360/15/20 361/15/18 249/15/18 248/15/20
f 374/15/31 375/15/28 263/15/28 262/15/31
f 361/15/18 362/15/16 250/15/16 249/15/18
f 375/15/28 376/15/25 264/15/25 263/15/28
f 362/15/16 363/15/14 251/15/14 250/15/16
f 376/15/25 377/15/23 265/15/23 264/15/25
f 363/15/14 364/15/12 252/15/12 251/15/14
f 377/15/23 378/15/21 266/15/21 265/15/23
f 364/15/12 365/15/9 253/15/9 252/15/12
f 378/15/21 379/15/19 267/15/19 266/15/21
f 365/15/9 366/15/10 254/15/10 253/15/9
