# Blender 3.3.1
# www.blender.org
v 0.029000 0.000000 0.013000
v 0.027794 0.004500 0.013000
v 0.024500 0.007794 0.013000
v 0.020000 0.009000 0.013000
v 0.015500 0.007794 0.013000
v 0.012206 0.004500 0.013000
v 0.011000 0.000000 0.013000
v 0.012206 -0.004500 0.013000
v 0.015500 -0.007794 0.013000
v 0.020000 -0.009000 0.013000
v 0.024500 -0.007794 0.013000
v 0.027794 -0.004500 0.013000
v -0.029000 0.000000 0.013000
v -0.027794 0.004500 0.013000
v -0.024500 0.007794 0.013000
v -0.020000 0.009000 0.013000
v -0.015500 0.007794 0.013000
v -0.012206 0.004500 0.013000
v -0.011000 0.000000 0.013000
v -0.012206 -0.004500 0.013000
v -0.015500 -0.007794 0.013000
v -0.020000 -0.009000 0.013000
v -0.024500 -0.007794 0.013000
v -0.027794 -0.004500 0.013000
v -0.028157 0.000000 0.019940
v -0.026987 0.004500 0.019652
v -0.023788 0.007794 0.018863
v -0.019419 0.009000 0.017786
v -0.015050 0.007794 0.016709
v -0.011851 0.004500 0.015921
v -0.010680 0.000000 0.015632
v -0.011851 -0.004500 0.015921
v -0.015050 -0.007794 0.016709
v -0.019419 -0.009000 0.017786
v -0.023788 -0.007794 0.018863
v -0.026987 -0.004500 0.019652
v -0.025678 0.000000 0.026477
v -0.024611 0.004500 0.025917
v -0.021694 0.007794 0.024386
v -0.017709 0.009000 0.022294
v -0.013725 0.007794 0.020203
v -0.010808 0.004500 0.018672
v -0.009740 0.000000 0.018112
v -0.010808 -0.004500 0.018672
v -0.013725 -0.007794 0.020203
v -0.017709 -0.009000 0.022294
v -0.021694 -0.007794 0.024386
v -0.024611 -0.004500 0.025917
v -0.021707 0.000000 0.032231
v -0.020804 0.004500 0.031431
v -0.018339 0.007794 0.029246
v -0.014970 0.009000 0.026262
v -0.011602 0.007794 0.023278
v -0.009136 0.004500 0.021094
v -0.008234 0.000000 0.020294
v -0.009136 -0.004500 0.021094
v -0.011602 -0.007794 0.023278
v -0.014970 -0.009000 0.026262
v -0.018339 -0.007794 0.029246
v -0.020804 -0.004500 0.031431
v -0.016474 0.000000 0.036867
v -0.015789 0.004500 0.035874
v -0.013918 0.007794 0.033163
v -0.011361 0.009000 0.029460
v -0.008805 0.007794 0.025756
v -0.006934 0.004500 0.023045
v -0.006249 0.000000 0.022053
v -0.006934 -0.004500 0.023045
v -0.008805 -0.007794 0.025756
v -0.011361 -0.009000 0.029460
v -0.013918 -0.007794 0.033163
v -0.015789 -0.004500 0.035874
v -0.010284 0.000000 0.040115
v -0.009856 0.004500 0.038988
v -0.008688 0.007794 0.035908
v -0.007092 0.009000 0.031700
v -0.005496 0.007794 0.027493
v -0.004328 0.004500 0.024413
v -0.003901 0.000000 0.023285
v -0.004328 -0.004500 0.024413
v -0.005496 -0.007794 0.027493
v -0.007092 -0.009000 0.031700
v -0.008688 -0.007794 0.035908
v -0.009856 -0.004500 0.038988
v -0.003496 0.000000 0.041789
v -0.003350 0.004500 0.040592
v -0.002953 0.007794 0.037321
v -0.002411 0.009000 0.032854
v -0.001868 0.007794 0.028387
v -0.001471 0.004500 0.025117
v -0.001326 0.000000 0.023920
v -0.001471 -0.004500 0.025117
v -0.001868 -0.007794 0.028387
v -0.002411 -0.009000 0.032854
v -0.002953 -0.007794 0.037321
v -0.003350 -0.004500 0.040592
v 0.003496 0.000000 0.041789
v 0.003350 0.004500 0.040592
v 0.002953 0.007794 0.037321
v 0.002411 0.009000 0.032854
v 0.001868 0.007794 0.028387
v 0.001471 0.004500 0.025117
v 0.001326 0.000000 0.023920
v 0.001471 -0.004500 0.025117
v 0.001868 -0.007794 0.028387
v 0.002411 -0.009000 0.032854
v 0.002953 -0.007794 0.037321
v 0.003350 -0.004500 0.040592
v 0.010284 0.000000 0.040115
v 0.009856 0.004500 0.038988
v 0.008688 0.007794 0.035908
v 0.007092 0.009000 0.031700
v 0.005496 0.007794 0.027493
v 0.004328 0.004500 0.024413
v 0.003901 0.000000 0.023285
v 0.004328 -0.004500 0.024413
v 0.005496 -0.007794 0.027493
v 0.007092 -0.009000 0.031700
v 0.008688 -0.007794 0.035908
v 0.009856 -0.004500 0.038988
v 0.016474 0.000000 0.036867
v 0.015789 0.004500 0.035874
v 0.013918 0.007794 0.033163
v 0.011361 0.009000 0.029460
v 0.008805 0.007794 0.025756
v 0.006934 0.004500 0.023045
v 0.006249 0.000000 0.022053
v 0.006934 -0.004500 0.023045
v 0.008805 -0.007794 0.025756
v 0.011361 -0.009000 0.029460
v 0.013918 -0.007794 0.033163
v 0.015789 -0.004500 0.035874
v 0.021707 0.000000 0.032231
v 0.020804 0.004500 0.031431
v 0.018339 0.007794 0.029247
v 0.014970 0.009000 0.026262
v 0.011602 0.007794 0.023278
v 0.009136 0.004500 0.021094
v 0.008234 0.000000 0.020294
v 0.009136 -0.004500 0.021094
v 0.011602 -0.007794 0.023278
v 0.014970 -0.009000 0.026262
v 0.018339 -0.007794 0.029247
v 0.020804 -0.004500 0.031431
v 0.025678 0.000000 0.026477
v 0.024611 0.004500 0.025917
v 0.021694 0.007794 0.024386
v 0.017709 0.009000 0.022294
v 0.013725 0.007794 0.020203
v 0.010808 0.004500 0.018672
v 0.009740 0.000000 0.018112
v 0.010808 -0.004500 0.018672
v 0.013725 -0.007794 0.020203
v 0.017709 -0.009000 0.022294
v 0.021694 -0.007794 0.024386
v 0.024611 -0.004500 0.025917
v 0.028157 0.000000 0.019940
v 0.026987 0.004500 0.019652
v 0.023788 0.007794 0.018863
v 0.019419 0.009000 0.017786
v 0.015050 0.007794 0.016709
v 0.011851 0.004500 0.015921
v 0.010680 0.000000 0.015632
v 0.011851 -0.004500 0.015921
v 0.015050 -0.007794 0.016709
v 0.019419 -0.009000 0.017786
v 0.023788 -0.007794 0.018863
v 0.026987 -0.004500 0.019652
v 0.029000 0.000000 -0.013000
v 0.027794 0.004500 -0.013000
v 0.024500 0.007794 -0.013000
v 0.020000 0.009000 -0.013000
v 0.015500 0.007794 -0.013000
v 0.012206 0.004500 -0.013000
v 0.011000 0.000000 -0.013000
v 0.012206 -0.004500 -0.013000
v 0.015500 -0.007794 -0.013000
v 0.020000 -0.009000 -0.013000
v 0.024500 -0.007794 -0.013000
v 0.027794 -0.004500 -0.013000
v 0.028157 0.000000 -0.019940
v 0.026987 0.004500 -0.019652
v 0.023788 0.007794 -0.018863
v 0.019419 0.009000 -0.017786
v 0.015050 0.007794 -0.016709
v 0.011851 0.004500 -0.015921
v 0.010680 0.000000 -0.015632
v 0.011851 -0.004500 -0.015921
v 0.015050 -0.007794 -0.016709
v 0.019419 -0.009000 -0.017786
v 0.023788 -0.007794 -0.018863
v 0.026987 -0.004500 -0.019652
v 0.025678 0.000000 -0.026477
v 0.024611 0.004500 -0.025917
v 0.021694 0.007794 -0.024386
v 0.017709 0.009000 -0.022294
v 0.013725 0.007794 -0.020203
v 0.010808 0.004500 -0.018672
v 0.009740 0.000000 -0.018112
v 0.010808 -0.004500 -0.018672
v 0.013725 -0.007794 -0.020203
v 0.017709 -0.009000 -0.022294
v 0.021694 -0.007794 -0.024386
v 0.024611 -0.004500 -0.025917
v 0.021707 0.000000 -0.032231
v 0.020804 0.004500 -0.031431
v 0.018339 0.007794 -0.029247
v 0.014970 0.009000 -0.026262
v 0.011602 0.007794 -0.023278
v 0.009136 0.004500 -0.021094
v 0.008234 0.000000 -0.020294
v 0.009136 -0.004500 -0.021094
v 0.011602 -0.007794 -0.023278
v 0.014970 -0.009000 -0.026262
v 0.018339 -0.007794 -0.029247
v 0.020804 -0.004500 -0.031431
v 0.016474 0.000000 -0.036867
v 0.015789 0.004500 -0.035874
v 0.013918 0.007794 -0.033163
v 0.011361 0.009000 -0.029460
v 0.008805 0.007794 -0.025756
v 0.006934 0.004500 -0.023045
v 0.006249 0.000000 -0.022053
v 0.006934 -0.004500 -0.023045
v 0.008805 -0.007794 -0.025756
v 0.011361 -0.009000 -0.029460
v 0.013918 -0.007794 -0.033163
v 0.015789 -0.004500 -0.035874
v 0.010284 0.000000 -0.040115
v 0.009856 0.004500 -0.038988
v 0.008688 0.007794 -0.035908
v 0.007092 0.009000 -0.031700
v 0.005496 0.007794 -0.027493
v 0.004328 0.004500 -0.024413
v 0.003901 0.000000 -0.023285
v 0.004328 -0.004500 -0.024413
v 0.005496 -0.007794 -0.027493
v 0.007092 -0.009000 -0.031700
v 0.008688 -0.007794 -0.035908
v 0.009856 -0.004500 -0.038988
v 0.003496 0.000000 -0.041789
v 0.003350 0.004500 -0.040592
v 0.002953 0.007794 -0.037321
v 0.002411 0.009000 -0.032854
v 0.001868 0.007794 -0.028387
v 0.001471 0.004500 -0.025117
v 0.001326 0.000000 -0.023920
v 0.001471 -0.004500 -0.025117
v 0.001868 -0.007794 -0.028387
v 0.002411 -0.009000 -0.032854
v 0.002953 -0.007794 -0.037321
v 0.003350 -0.004500 -0.040592
v -0.003496 0.000000 -0.041789
v -0.003350 0.004500 -0.040592
v -0.002953 0.007794 -0.037321
v -0.002411 0.009000 -0.032854
v -0.001868 0.007794 -0.028387
v -0.001471 0.004500 -0.025117
v -0.001326 0.000000 -0.023920
v -0.001471 -0.004500 -0.025117
v -0.001868 -0.007794 -0.028387
v -0.002411 -0.009000 -0.032854
v -0.002953 -0.007794 -0.037321
v -0.003350 -0.004500 -0.040592
v -0.010284 0.000000 -0.040115
v -0.009856 0.004500 -0.038988
v -0.008688 0.007794 -0.035908
v -0.007092 0.009000 -0.031700
v -0.005496 0.007794 -0.027493
v -0.004328 0.004500 -0.024413
v -0.003901 0.000000 -0.023285
v -0.004328 -0.004500 -0.024413
v -0.005496 -0.007794 -0.027493
v -0.007092 -0.009000 -0.031700
v -0.008688 -0.007794 -0.035908
v -0.009856 -0.004500 -0.038988
v -0.016474 0.000000 -0.036867
v -0.015789 0.004500 -0.035874
v -0.013918 0.007794 -0.033163
v -0.011361 0.009000 -0.029460
v -0.008805 0.007794 -0.025756
v -0.006934 0.004500 -0.023045
v -0.006249 0.000000 -0.022053
v -0.006934 -0.004500 -0.023045
v -0.008805 -0.007794 -0.025756
v -0.011361 -0.009000 -0.029460
v -0.013918 -0.007794 -0.033163
v -0.015789 -0.004500 -0.035874
v -0.021707 0.000000 -0.032231
v -0.020804 0.004500 -0.031431
v -0.018339 0.007794 -0.029246
v -0.014970 0.009000 -0.026262
v -0.011602 0.007794 -0.023278
v -0.009136 0.004500 -0.021094
v -0.008234 0.000000 -0.020294
v -0.009136 -0.004500 -0.021094
v -0.011602 -0.007794 -0.023278
v -0.014970 -0.009000 -0.026262
v -0.018339 -0.007794 -0.029246
v -0.020804 -0.004500 -0.031431
v -0.025678 0.000000 -0.026477
v -0.024611 0.004500 -0.025917
v -0.021694 0.007794 -0.024386
v -0.017709 0.009000 -0.022294
v -0.013725 0.007794 -0.020203
v -0.010808 0.004500 -0.018672
v -0.009740 0.000000 -0.018112
v -0.010808 -0.004500 -0.018672
v -0.013725 -0.007794 -0.020203
v -0.017709 -0.009000 -0.022294
v -0.021694 -0.007794 -0.024386
v -0.024611 -0.004500 -0.025917
v -0.028157 0.000000 -0.019940
v -0.026987 0.004500 -0.019652
v -0.023788 0.007794 -0.018863
v -0.019419 0.009000 -0.017786
v -0.015050 0.007794 -0.016709
v -0.011851 0.004500 -0.015921
v -0.010680 0.000000 -0.015632
v -0.011851 -0.004500 -0.015921
v -0.015050 -0.007794 -0.016709
v -0.019419 -0.009000 -0.017786
v -0.023788 -0.007794 -0.018863
v -0.026987 -0.004500 -0.019652
v -0.029000 0.000000 -0.013000
v -0.027794 0.004500 -0.013000
v -0.024500 0.007794 -0.013000
v -0.020000 0.009000 -0.013000
v -0.015500 0.007794 -0.013000
v -0.012206 0.004500 -0.013000
v -0.011000 0.000000 -0.013000
v -0.012206 -0.004500 -0.013000
v -0.015500 -0.007794 -0.013000
v -0.020000 -0.009000 -0.013000
v -0.024500 -0.007794 -0.013000
v -0.027794 -0.004500 -0.013000
v 0.029000 0.000000 -0.007800
v 0.029000 0.000000 -0.002600
v 0.029000 0.000000 0.002600
v 0.029000 0.000000 0.007800
v 0.020000 -0.009000 -0.007800
v 0.020000 -0.009000 -0.002600
v 0.020000 -0.009000 0.002600
v 0.020000 -0.009000 0.007800
v 0.015500 -0.007794 0.007800
v 0.015500 -0.007794 0.002600
v 0.015500 -0.007794 -0.002600
v 0.015500 -0.007794 -0.007800
v 0.015500 0.007794 -0.007800
v 0.015500 0.007794 -0.002600
v 0.015500 0.007794 0.002600
v 0.015500 0.007794 0.007800
v 0.020000 0.009000 0.007800
v 0.020000 0.009000 0.002600
v 0.020000 0.009000 -0.002600
v 0.020000 0.009000 -0.007800
v 0.012206 0.004500 0.007800
v 0.012206 0.004500 0.002600
v 0.012206 0.004500 -0.002600
v 0.012206 0.004500 -0.007800
v 0.012206 -0.004500 -0.007800
v 0.012206 -0.004500 -0.002600
v 0.012206 -0.004500 0.002600
v 0.012206 -0.004500 0.007800
v 0.011000 0.000000 0.007800
v 0.011000 0.000000 0.002600
v 0.011000 0.000000 -0.002600
v 0.011000 0.000000 -0.007800
v 0.027794 -0.004500 -0.007800
v 0.027794 -0.004500 -0.002600
v 0.027794 -0.004500 0.002600
v 0.027794 -0.004500 0.007800
v 0.024500 -0.007794 0.007800
v 0.024500 -0.007794 0.002600
v 0.024500 -0.007794 -0.002600
v 0.024500 -0.007794 -0.007800
v 0.024500 0.007794 -0.007800
v 0.024500 0.007794 -0.002600
v 0.024500 0.007794 0.002600
v 0.024500 0.007794 0.007800
v 0.027794 0.004500 0.007800
v 0.027794 0.004500 0.002600
v 0.027794 0.004500 -0.002600
v 0.027794 0.004500 -0.007800
v -0.027794 0.004500 -0.007800
v -0.027794 0.004500 -0.002600
v -0.027794 0.004500 0.002600
v -0.027794 0.004500 0.007800
v -0.024500 0.007794 0.007800
v -0.024500 0.007794 0.002600
v -0.024500 0.007794 -0.002600
v -0.024500 0.007794 -0.007800
v -0.012206 -0.004500 -0.007800
v -0.012206 -0.004500 -0.002600
v -0.012206 -0.004500 0.002600
v -0.012206 -0.004500 0.007800
v -0.011000 0.000000 0.007800
v -0.011000 0.000000 0.002600
v -0.011000 0.000000 -0.002600
v -0.011000 0.000000 -0.007800
v -0.029000 0.000000 0.007800
v -0.029000 0.000000 0.002600
v -0.029000 0.000000 -0.002600
v -0.029000 0.000000 -0.007800
v -0.020000 0.009000 -0.007800
v -0.020000 0.009000 -0.002600
v -0.020000 0.009000 0.002600
v -0.020000 0.009000 0.007800
v -0.015500 -0.007794 -0.007800
v -0.015500 -0.007794 -0.002600
v -0.015500 -0.007794 0.002600
v -0.015500 -0.007794 0.007800
v -0.020000 -0.009000 0.007800
v -0.020000 -0.009000 0.002600
v -0.020000 -0.009000 -0.002600
v -0.020000 -0.009000 -0.007800
v -0.015500 0.007794 -0.007800
v -0.015500 0.007794 -0.002600
v -0.015500 0.007794 0.002600
v -0.015500 0.007794 0.007800
v -0.012206 0.004500 0.007800
v -0.012206 0.004500 0.002600
v -0.012206 0.004500 -0.002600
v -0.012206 0.004500 -0.007800
v -0.024500 -0.007794 -0.007800
v -0.024500 -0.007794 -0.002600
v -0.024500 -0.007794 0.002600
v -0.024500 -0.007794 0.007800
v -0.027794 -0.004500 0.007800
v -0.027794 -0.004500 0.002600
v -0.027794 -0.004500 -0.002600
v -0.027794 -0.004500 -0.007800
s 1
f 337 170 384
f 326 404 385
f 335 416 425
f 328 392 405
f 377 172 356
f 369 169 337
f 332 400 393
f 327 385 392
f 333 393 409
f 341 179 376
f 331 424 400
f 361 177 348
f 325 432 404
f 349 174 360
f 348 178 341
f 329 405 417
f 356 173 349
f 360 175 368
f 368 176 361
f 376 180 369
f 416 333 409
f 384 171 377
f 424 329 417
f 13 26 14
f 26 15 14
f 27 16 15
f 16 29 17
f 29 18 17
f 30 19 18
f 19 32 20
f 32 21 20
f 33 22 21
f 22 35 23
f 23 36 24
f 36 13 24
f 37 26 25
f 38 27 26
f 39 28 27
f 28 41 29
f 41 30 29
f 42 31 30
f 31 44 32
f 44 33 32
f 45 34 33
f 34 47 35
f 35 48 36
f 48 25 36
f 49 38 37
f 50 39 38
f 51 40 39
f 52 41 40
f 53 42 41
f 54 43 42
f 55 44 43
f 56 45 44
f 45 58 46
f 46 59 47
f 47 60 48
f 60 37 48
f 49 62 50
f 62 51 50
f 63 52 51
f 64 53 52
f 65 54 53
f 54 67 55
f 67 56 55
f 56 69 57
f 57 70 58
f 70 59 58
f 59 72 60
f 72 49 60
f 73 62 61
f 74 63 62
f 63 76 64
f 64 77 65
f 77 66 65
f 66 79 67
f 79 68 67
f 68 81 69
f 81 70 69
f 82 71 70
f 71 84 72
f 72 73 61
f 85 74 73
f 86 75 74
f 87 76 75
f 88 77 76
f 77 90 78
f 90 79 78
f 91 80 79
f 92 81 80
f 93 82 81
f 94 83 82
f 95 84 83
f 96 73 84
f 85 98 86
f 98 87 86
f 99 88 87
f 88 101 89
f 101 90 89
f 102 91 90
f 103 92 91
f 104 93 92
f 105 94 93
f 106 95 94
f 107 96 95
f 108 85 96
f 109 98 97
f 98 111 99
f 111 100 99
f 112 101 100
f 113 102 101
f 114 103 102
f 115 104 103
f 104 117 105
f 105 118 106
f 106 119 107
f 119 108 107
f 120 97 108
f 121 110 109
f 122 111 110
f 111 124 112
f 112 125 113
f 125 114 113
f 126 115 114
f 127 116 115
f 116 129 117
f 129 118 117
f 130 119 118
f 119 132 120
f 120 121 109
f 133 122 121
f 134 123 122
f 123 136 124
f 124 137 125
f 137 126 125
f 138 127 126
f 139 128 127
f 128 141 129
f 129 142 130
f 142 131 130
f 143 132 131
f 144 121 132
f 145 134 133
f 134 147 135
f 135 148 136
f 148 137 136
f 149 138 137
f 150 139 138
f 151 140 139
f 152 141 140
f 141 154 142
f 154 143 142
f 143 156 144
f 144 145 133
f 145 158 146
f 146 159 147
f 159 148 147
f 148 161 149
f 149 162 150
f 162 151 150
f 163 152 151
f 164 153 152
f 165 154 153
f 154 167 155
f 167 156 155
f 168 145 156
f 157 2 158
f 2 159 158
f 159 4 160
f 160 5 161
f 5 162 161
f 162 7 163
f 7 164 163
f 164 9 165
f 9 166 165
f 10 167 166
f 11 168 167
f 12 157 168
f 169 182 170
f 182 171 170
f 183 172 171
f 184 173 172
f 185 174 173
f 186 175 174
f 187 176 175
f 176 189 177
f 189 178 177
f 178 191 179
f 191 180 179
f 192 169 180
f 193 182 181
f 182 195 183
f 195 184 183
f 196 185 184
f 197 186 185
f 186 199 187
f 199 188 187
f 188 201 189
f 201 190 189
f 202 191 190
f 203 192 191
f 204 181 192
f 193 206 194
f 206 195 194
f 195 208 196
f 196 209 197
f 209 198 197
f 210 199 198
f 211 200 199
f 200 213 201
f 213 202 201
f 214 203 202
f 215 204 203
f 216 193 204
f 217 206 205
f 218 207 206
f 219 208 207
f 220 209 208
f 209 222 210
f 210 223 211
f 223 212 211
f 224 213 212
f 213 226 214
f 214 227 215
f 227 216 215
f 216 217 205
f 229 218 217
f 230 219 218
f 231 220 219
f 232 221 220
f 233 222 221
f 222 235 223
f 235 224 223
f 224 237 225
f 225 238 226
f 226 239 227
f 239 228 227
f 240 217 228
f 241 230 229
f 242 231 230
f 231 244 232
f 232 245 233
f 245 234 233
f 246 235 234
f 247 236 235
f 236 249 237
f 249 238 237
f 250 239 238
f 239 252 240
f 252 229 240
f 253 242 241
f 254 243 242
f 243 256 244
f 256 245 244
f 257 246 245
f 258 247 246
f 259 248 247
f 248 261 249
f 249 262 250
f 262 251 250
f 263 252 251
f 252 253 241
f 265 254 253
f 266 255 254
f 267 256 255
f 268 257 256
f 257 270 258
f 270 259 258
f 259 272 260
f 272 261 260
f 261 274 262
f 274 263 262
f 275 264 263
f 276 253 264
f 277 266 265
f 266 279 267
f 279 268 267
f 280 269 268
f 281 270 269
f 282 271 270
f 271 284 272
f 272 285 273
f 273 286 274
f 274 287 275
f 287 276 275
f 276 277 265
f 289 278 277
f 278 291 279
f 279 292 280
f 292 281 280
f 293 282 281
f 294 283 282
f 295 284 283
f 296 285 284
f 285 298 286
f 298 287 286
f 299 288 287
f 288 289 277
f 301 290 289
f 302 291 290
f 291 304 292
f 304 293 292
f 305 294 293
f 306 295 294
f 307 296 295
f 308 297 296
f 297 310 298
f 310 299 298
f 311 300 299
f 312 289 300
f 313 302 301
f 302 315 303
f 315 304 303
f 316 305 304
f 317 306 305
f 318 307 306
f 319 308 307
f 320 309 308
f 309 322 310
f 310 323 311
f 323 312 311
f 312 313 301
f 325 314 313
f 326 315 314
f 327 316 315
f 328 317 316
f 329 318 317
f 330 319 318
f 331 320 319
f 332 321 320
f 333 322 321
f 322 335 323
f 335 324 323
f 324 325 313
f 432 335 425
f 2 380 3
f 381 379 380
f 382 378 379
f 383 377 378
f 11 372 12
f 373 371 372
f 374 370 371
f 375 369 370
f 7 364 8
f 365 363 364
f 366 362 363
f 367 361 362
f 6 365 7
f 357 366 365
f 358 367 366
f 359 368 367
f 4 352 5
f 353 351 352
f 354 350 351
f 355 349 350
f 9 344 10
f 345 343 344
f 346 342 343
f 347 341 342
f 5 357 6
f 352 358 357
f 358 350 359
f 359 349 360
f 8 345 9
f 364 346 345
f 346 362 347
f 347 361 348
f 10 373 11
f 373 343 374
f 374 342 375
f 375 341 376
f 12 340 1
f 372 339 340
f 371 338 339
f 370 337 338
f 3 353 4
f 353 379 354
f 354 378 355
f 355 377 356
f 1 381 2
f 340 382 381
f 382 338 383
f 338 384 383
f 24 428 23
f 429 427 428
f 430 426 427
f 431 425 426
f 421 17 18
f 422 420 421
f 423 419 422
f 423 417 418
f 22 412 21
f 413 411 412
f 414 410 411
f 415 409 410
f 420 16 17
f 420 407 408
f 418 407 419
f 417 406 418
f 401 24 13
f 402 429 401
f 403 430 402
f 404 431 403
f 397 18 19
f 398 421 397
f 399 422 398
f 400 423 399
f 412 20 21
f 411 396 412
f 410 395 411
f 409 394 410
f 389 14 15
f 390 388 389
f 391 387 390
f 392 386 391
f 396 19 20
f 395 397 396
f 394 398 395
f 393 399 394
f 408 15 16
f 407 389 408
f 406 390 407
f 405 391 406
f 428 22 23
f 427 413 428
f 426 414 427
f 425 415 426
f 388 13 14
f 387 401 388
f 386 402 387
f 385 403 386
f 337 169 170
f 326 325 404
f 335 334 416
f 328 327 392
f 377 171 172
f 369 180 169
f 332 331 400
f 327 326 385
f 333 332 393
f 341 178 179
f 331 330 424
f 361 176 177
f 325 336 432
f 349 173 174
f 348 177 178
f 329 328 405
f 356 172 173
f 360 174 175
f 368 175 176
f 376 179 180
f 416 334 333
f 384 170 171
f 424 330 329
f 13 25 26
f 26 27 15
f 27 28 16
f 16 28 29
f 29 30 18
f 30 31 19
f 19 31 32
f 32 33 21
f 33 34 22
f 22 34 35
f 23 35 36
f 36 25 13
f 37 38 26
f 38 39 27
f 39 40 28
f 28 40 41
f 41 42 30
f 42 43 31
f 31 43 44
f 44 45 33
f 45 46 34
f 34 46 47
f 35 47 48
f 48 37 25
f 49 50 38
f 50 51 39
f 51 52 40
f 52 53 41
f 53 54 42
f 54 55 43
f 55 56 44
f 56 57 45
f 45 57 58
f 46 58 59
f 47 59 60
f 60 49 37
f 49 61 62
f 62 63 51
f 63 64 52
f 64 65 53
f 65 66 54
f 54 66 67
f 67 68 56
f 56 68 69
f 57 69 70
f 70 71 59
f 59 71 72
f 72 61 49
f 73 74 62
f 74 75 63
f 63 75 76
f 64 76 77
f 77 78 66
f 66 78 79
f 79 80 68
f 68 80 81
f 81 82 70
f 82 83 71
f 71 83 84
f 72 84 73
f 85 86 74
f 86 87 75
f 87 88 76
f 88 89 77
f 77 89 90
f 90 91 79
f 91 92 80
f 92 93 81
f 93 94 82
f 94 95 83
f 95 96 84
f 96 85 73
f 85 97 98
f 98 99 87
f 99 100 88
f 88 100 101
f 101 102 90
f 102 103 91
f 103 104 92
f 104 105 93
f 105 106 94
f 106 107 95
f 107 108 96
f 108 97 85
f 109 110 98
f 98 110 111
f 111 112 100
f 112 113 101
f 113 114 102
f 114 115 103
f 115 116 104
f 104 116 117
f 105 117 118
f 106 118 119
f 119 120 108
f 120 109 97
f 121 122 110
f 122 123 111
f 111 123 124
f 112 124 125
f 125 126 114
f 126 127 115
f 127 128 116
f 116 128 129
f 129 130 118
f 130 131 119
f 119 131 132
f 120 132 121
f 133 134 122
f 134 135 123
f 123 135 136
f 124 136 137
f 137 138 126
f 138 139 127
f 139 140 128
f 128 140 141
f 129 141 142
f 142 143 131
f 143 144 132
f 144 133 121
f 145 146 134
f 134 146 147
f 135 147 148
f 148 149 137
f 149 150 138
f 150 151 139
f 151 152 140
f 152 153 141
f 141 153 154
f 154 155 143
f 143 155 156
f 144 156 145
f 145 157 158
f 146 158 159
f 159 160 148
f 148 160 161
f 149 161 162
f 162 163 151
f 163 164 152
f 164 165 153
f 165 166 154
f 154 166 167
f 167 168 156
f 168 157 145
f 157 1 2
f 2 3 159
f 159 3 4
f 160 4 5
f 5 6 162
f 162 6 7
f 7 8 164
f 164 8 9
f 9 10 166
f 10 11 167
f 11 12 168
f 12 1 157
f 169 181 182
f 182 183 171
f 183 184 172
f 184 185 173
f 185 186 174
f 186 187 175
f 187 188 176
f 176 188 189
f 189 190 178
f 178 190 191
f 191 192 180
f 192 181 169
f 193 194 182
f 182 194 195
f 195 196 184
f 196 197 185
f 197 198 186
f 186 198 199
f 199 200 188
f 188 200 201
f 201 202 190
f 202 203 191
f 203 204 192
f 204 193 181
f 193 205 206
f 206 207 195
f 195 207 208
f 196 208 209
f 209 210 198
f 210 211 199
f 211 212 200
f 200 212 213
f 213 214 202
f 214 215 203
f 215 216 204
f 216 205 193
f 217 218 206
f 218 219 207
f 219 220 208
f 220 221 209
f 209 221 222
f 210 222 223
f 223 224 212
f 224 225 213
f 213 225 226
f 214 226 227
f 227 228 216
f 216 228 217
f 229 230 218
f 230 231 219
f 231 232 220
f 232 233 221
f 233 234 222
f 222 234 235
f 235 236 224
f 224 236 237
f 225 237 238
f 226 238 239
f 239 240 228
f 240 229 217
f 241 242 230
f 242 243 231
f 231 243 244
f 232 244 245
f 245 246 234
f 246 247 235
f 247 248 236
f 236 248 249
f 249 250 238
f 250 251 239
f 239 251 252
f 252 241 229
f 253 254 242
f 254 255 243
f 243 255 256
f 256 257 245
f 257 258 246
f 258 259 247
f 259 260 248
f 248 260 261
f 249 261 262
f 262 263 251
f 263 264 252
f 252 264 253
f 265 266 254
f 266 267 255
f 267 268 256
f 268 269 257
f 257 269 270
f 270 271 259
f 259 271 272
f 272 273 261
f 261 273 274
f 274 275 263
f 275 276 264
f 276 265 253
f 277 278 266
f 266 278 279
f 279 280 268
f 280 281 269
f 281 282 270
f 282 283 271
f 271 283 284
f 272 284 285
f 273 285 286
f 274 286 287
f 287 288 276
f 276 288 277
f 289 290 278
f 278 290 291
f 279 291 292
f 292 293 281
f 293 294 282
f 294 295 283
f 295 296 284
f 296 297 285
f 285 297 298
f 298 299 287
f 299 300 288
f 288 300 289
f 301 302 290
f 302 303 291
f 291 303 304
f 304 305 293
f 305 306 294
f 306 307 295
f 307 308 296
f 308 309 297
f 297 309 310
f 310 311 299
f 311 312 300
f 312 301 289
f 313 314 302
f 302 314 315
f 315 316 304
f 316 317 305
f 317 318 306
f 318 319 307
f 319 320 308
f 320 321 309
f 309 321 322
f 310 322 323
f 323 324 312
f 312 324 313
f 325 326 314
f 326 327 315
f 327 328 316
f 328 329 317
f 329 330 318
f 330 331 319
f 331 332 320
f 332 333 321
f 333 334 322
f 322 334 335
f 335 336 324
f 324 336 325
f 432 336 335
f 2 381 380
f 381 382 379
f 382 383 378
f 383 384 377
f 11 373 372
f 373 374 371
f 374 375 370
f 375 376 369
f 7 365 364
f 365 366 363
f 366 367 362
f 367 368 361
f 6 357 365
f 357 358 366
f 358 359 367
f 359 360 368
f 4 353 352
f 353 354 351
f 354 355 350
f 355 356 349
f 9 345 344
f 345 346 343
f 346 347 342
f 347 348 341
f 5 352 357
f 352 351 358
f 358 351 350
f 359 350 349
f 8 364 345
f 364 363 346
f 346 363 362
f 347 362 361
f 10 344 373
f 373 344 343
f 374 343 342
f 375 342 341
f 12 372 340
f 372 371 339
f 371 370 338
f 370 369 337
f 3 380 353
f 353 380 379
f 354 379 378
f 355 378 377
f 1 340 381
f 340 339 382
f 382 339 338
f 338 337 384
f 24 429 428
f 429 430 427
f 430 431 426
f 431 432 425
f 421 420 17
f 422 419 420
f 423 418 419
f 423 424 417
f 22 413 412
f 413 414 411
f 414 415 410
f 415 416 409
f 420 408 16
f 420 419 407
f 418 406 407
f 417 405 406
f 401 429 24
f 402 430 429
f 403 431 430
f 404 432 431
f 397 421 18
f 398 422 421
f 399 423 422
f 400 424 423
f 412 396 20
f 411 395 396
f 410 394 395
f 409 393 394
f 389 388 14
f 390 387 388
f 391 386 387
f 392 385 386
f 396 397 19
f 395 398 397
f 394 399 398
f 393 400 399
f 408 389 15
f 407 390 389
f 406 391 390
f 405 392 391
f 428 413 22
f 427 414 413
f 426 415 414
f 425 416 415
f 388 401 13
f 387 402 401
f 386 403 402
f 385 404 403
